<svg width="411" height="731" viewBox="0 0 411 731" fill="none" xmlns="http://www.w3.org/2000/svg">
<rect width="411" height="731" fill="#1F2133" fill-opacity="0.74"/>
<rect x="173" y="241" width="73" height="49" fill="#C4C4C4"/>
<path d="M210.527 261.708H207.479V270H205.428V261.708H202.42V260.047H210.527V261.708ZM216.29 270H214.314V262.385L211.956 263.116V261.51L216.078 260.033H216.29V270Z" fill="#4F3BCD"/>
<rect x="280" y="366" width="62" height="37" fill="#C4C4C4"/>
<path d="M311.877 380.708H308.828V389H306.777V380.708H303.769V379.047H311.877V380.708ZM319.663 389H312.841V387.646L316.06 384.215C316.502 383.732 316.828 383.31 317.038 382.95C317.252 382.59 317.359 382.248 317.359 381.925C317.359 381.483 317.247 381.136 317.024 380.886C316.801 380.631 316.482 380.503 316.067 380.503C315.62 380.503 315.267 380.658 315.007 380.968C314.752 381.273 314.625 381.676 314.625 382.178H312.642C312.642 381.572 312.786 381.018 313.073 380.517C313.365 380.015 313.775 379.623 314.303 379.341C314.832 379.054 315.431 378.91 316.101 378.91C317.127 378.91 317.922 379.156 318.487 379.648C319.057 380.141 319.341 380.836 319.341 381.733C319.341 382.226 319.214 382.727 318.959 383.237C318.703 383.748 318.266 384.342 317.646 385.021L315.383 387.407H319.663V389Z" fill="#2CB36A" fill-opacity="0.87"/>
<rect x="224" y="479" width="62" height="37" fill="#C4C4C4"/>
<path d="M255.877 493.708H252.828V502H250.777V493.708H247.769V492.047H255.877V493.708ZM258.85 496.148H259.903C260.404 496.148 260.776 496.023 261.017 495.772C261.259 495.522 261.38 495.189 261.38 494.774C261.38 494.373 261.259 494.061 261.017 493.838C260.78 493.615 260.452 493.503 260.033 493.503C259.655 493.503 259.338 493.608 259.083 493.817C258.827 494.022 258.7 494.291 258.7 494.624H256.724C256.724 494.104 256.863 493.64 257.141 493.229C257.424 492.815 257.816 492.491 258.317 492.259C258.823 492.026 259.379 491.91 259.985 491.91C261.038 491.91 261.863 492.163 262.46 492.669C263.057 493.17 263.355 493.863 263.355 494.747C263.355 495.203 263.216 495.622 262.938 496.005C262.66 496.388 262.296 496.682 261.844 496.887C262.405 497.087 262.822 497.388 263.095 497.789C263.373 498.19 263.512 498.664 263.512 499.211C263.512 500.095 263.189 500.804 262.542 501.337C261.899 501.87 261.047 502.137 259.985 502.137C258.992 502.137 258.178 501.875 257.545 501.351C256.916 500.826 256.601 500.134 256.601 499.272H258.577C258.577 499.646 258.716 499.951 258.994 500.188C259.276 500.425 259.623 500.544 260.033 500.544C260.502 500.544 260.869 500.421 261.133 500.175C261.402 499.924 261.537 499.594 261.537 499.184C261.537 498.19 260.99 497.693 259.896 497.693H258.85V496.148Z" fill="#D13333"/>
<rect x="311" y="479" width="62" height="37" fill="#C4C4C4"/>
<path d="M342.877 493.708H339.828V502H337.777V493.708H334.769V492.047H342.877V493.708ZM345.85 496.148H346.903C347.404 496.148 347.776 496.023 348.017 495.772C348.259 495.522 348.38 495.189 348.38 494.774C348.38 494.373 348.259 494.061 348.017 493.838C347.78 493.615 347.452 493.503 347.033 493.503C346.655 493.503 346.338 493.608 346.083 493.817C345.827 494.022 345.7 494.291 345.7 494.624H343.724C343.724 494.104 343.863 493.64 344.141 493.229C344.424 492.815 344.816 492.491 345.317 492.259C345.823 492.026 346.379 491.91 346.985 491.91C348.038 491.91 348.863 492.163 349.46 492.669C350.057 493.17 350.355 493.863 350.355 494.747C350.355 495.203 350.216 495.622 349.938 496.005C349.66 496.388 349.296 496.682 348.844 496.887C349.405 497.087 349.822 497.388 350.095 497.789C350.373 498.19 350.512 498.664 350.512 499.211C350.512 500.095 350.189 500.804 349.542 501.337C348.899 501.87 348.047 502.137 346.985 502.137C345.992 502.137 345.178 501.875 344.545 501.351C343.916 500.826 343.601 500.134 343.601 499.272H345.577C345.577 499.646 345.716 499.951 345.994 500.188C346.276 500.425 346.623 500.544 347.033 500.544C347.502 500.544 347.869 500.421 348.133 500.175C348.402 499.924 348.537 499.594 348.537 499.184C348.537 498.19 347.99 497.693 346.896 497.693H345.85V496.148Z" fill="#D13333"/>
<rect x="180" y="366" width="62" height="37" fill="#C4C4C4"/>
<path d="M211.877 380.708H208.828V389H206.777V380.708H203.769V379.047H211.877V380.708ZM219.663 389H212.841V387.646L216.06 384.215C216.502 383.732 216.828 383.31 217.038 382.95C217.252 382.59 217.359 382.248 217.359 381.925C217.359 381.483 217.247 381.136 217.024 380.886C216.801 380.631 216.482 380.503 216.067 380.503C215.62 380.503 215.267 380.658 215.007 380.968C214.752 381.273 214.625 381.676 214.625 382.178H212.642C212.642 381.572 212.786 381.018 213.073 380.517C213.365 380.015 213.775 379.623 214.303 379.341C214.832 379.054 215.431 378.91 216.101 378.91C217.127 378.91 217.922 379.156 218.487 379.648C219.057 380.141 219.341 380.836 219.341 381.733C219.341 382.226 219.214 382.727 218.959 383.237C218.703 383.748 218.266 384.342 217.646 385.021L215.383 387.407H219.663V389Z" fill="#2CB36A" fill-opacity="0.87"/>
<rect x="139" y="479" width="62" height="37" fill="#C4C4C4"/>
<path d="M170.877 493.708H167.828V502H165.777V493.708H162.769V492.047H170.877V493.708ZM173.85 496.148H174.903C175.404 496.148 175.776 496.023 176.017 495.772C176.259 495.522 176.38 495.189 176.38 494.774C176.38 494.373 176.259 494.061 176.017 493.838C175.78 493.615 175.452 493.503 175.033 493.503C174.655 493.503 174.338 493.608 174.083 493.817C173.827 494.022 173.7 494.291 173.7 494.624H171.724C171.724 494.104 171.863 493.64 172.141 493.229C172.424 492.815 172.816 492.491 173.317 492.259C173.823 492.026 174.379 491.91 174.985 491.91C176.038 491.91 176.863 492.163 177.46 492.669C178.057 493.17 178.355 493.863 178.355 494.747C178.355 495.203 178.216 495.622 177.938 496.005C177.66 496.388 177.296 496.682 176.844 496.887C177.405 497.087 177.822 497.388 178.095 497.789C178.373 498.19 178.512 498.664 178.512 499.211C178.512 500.095 178.189 500.804 177.542 501.337C176.899 501.87 176.047 502.137 174.985 502.137C173.992 502.137 173.178 501.875 172.545 501.351C171.916 500.826 171.601 500.134 171.601 499.272H173.577C173.577 499.646 173.716 499.951 173.994 500.188C174.276 500.425 174.623 500.544 175.033 500.544C175.502 500.544 175.869 500.421 176.133 500.175C176.402 499.924 176.537 499.594 176.537 499.184C176.537 498.19 175.99 497.693 174.896 497.693H173.85V496.148Z" fill="#D13333"/>
<rect x="80" y="366" width="62" height="37" fill="#C4C4C4"/>
<path d="M111.877 380.708H108.828V389H106.777V380.708H103.769V379.047H111.877V380.708ZM119.663 389H112.841V387.646L116.06 384.215C116.502 383.732 116.828 383.31 117.038 382.95C117.252 382.59 117.359 382.248 117.359 381.925C117.359 381.483 117.247 381.136 117.024 380.886C116.801 380.631 116.482 380.503 116.067 380.503C115.62 380.503 115.267 380.658 115.007 380.968C114.752 381.273 114.625 381.676 114.625 382.178H112.642C112.642 381.572 112.786 381.018 113.073 380.517C113.365 380.015 113.775 379.623 114.303 379.341C114.832 379.054 115.431 378.91 116.101 378.91C117.127 378.91 117.922 379.156 118.487 379.648C119.057 380.141 119.341 380.836 119.341 381.733C119.341 382.226 119.214 382.727 118.959 383.237C118.703 383.748 118.266 384.342 117.646 385.021L115.383 387.407H119.663V389Z" fill="#2CB36A" fill-opacity="0.87"/>
<rect x="49" y="479" width="62" height="37" fill="#C4C4C4"/>
<path d="M80.8766 493.708H77.8278V502H75.777V493.708H72.7692V492.047H80.8766V493.708ZM83.8503 496.148H84.903C85.4043 496.148 85.7757 496.023 86.0173 495.772C86.2588 495.522 86.3796 495.189 86.3796 494.774C86.3796 494.373 86.2588 494.061 86.0173 493.838C85.7803 493.615 85.4522 493.503 85.0329 493.503C84.6546 493.503 84.3379 493.608 84.0827 493.817C83.8275 494.022 83.6999 494.291 83.6999 494.624H81.7243C81.7243 494.104 81.8633 493.64 82.1413 493.229C82.4238 492.815 82.8158 492.491 83.3171 492.259C83.8229 492.026 84.3789 491.91 84.985 491.91C86.0378 491.91 86.8626 492.163 87.4596 492.669C88.0566 493.17 88.3552 493.863 88.3552 494.747C88.3552 495.203 88.2162 495.622 87.9382 496.005C87.6602 496.388 87.2956 496.682 86.8444 496.887C87.405 497.087 87.8219 497.388 88.0954 497.789C88.3734 498.19 88.5124 498.664 88.5124 499.211C88.5124 500.095 88.1888 500.804 87.5417 501.337C86.8991 501.87 86.0469 502.137 84.985 502.137C83.9915 502.137 83.1781 501.875 82.5446 501.351C81.9157 500.826 81.6012 500.134 81.6012 499.272H83.5768C83.5768 499.646 83.7158 499.951 83.9938 500.188C84.2764 500.425 84.6227 500.544 85.0329 500.544C85.5023 500.544 85.8691 500.421 86.1335 500.175C86.4024 499.924 86.5368 499.594 86.5368 499.184C86.5368 498.19 85.9899 497.693 84.8962 497.693H83.8503V496.148Z" fill="#D13333"/>
<path d="M144.325 190.678H139.667V203H139.192V190.678H134.534V190.203H144.325V190.678ZM146.909 203H146.435V193.49H146.909V203ZM146.188 190.52C146.188 190.385 146.235 190.271 146.329 190.177C146.423 190.077 146.537 190.027 146.672 190.027C146.807 190.027 146.921 190.077 147.015 190.177C147.114 190.271 147.164 190.385 147.164 190.52C147.164 190.654 147.114 190.769 147.015 190.862C146.921 190.956 146.807 191.003 146.672 191.003C146.537 191.003 146.423 190.956 146.329 190.862C146.235 190.769 146.188 190.654 146.188 190.52ZM153.448 203.176C152.681 203.176 151.975 202.971 151.33 202.561C150.691 202.145 150.19 201.576 149.827 200.855C149.464 200.135 149.282 199.335 149.282 198.456V198.061C149.282 197.182 149.458 196.376 149.81 195.644C150.161 194.911 150.645 194.34 151.26 193.93C151.875 193.52 152.546 193.314 153.272 193.314C154.333 193.314 155.2 193.692 155.874 194.448C156.548 195.204 156.885 196.197 156.885 197.428V197.929H149.757V198.447C149.757 199.221 149.918 199.938 150.24 200.601C150.568 201.257 151.017 201.772 151.585 202.147C152.159 202.522 152.78 202.71 153.448 202.71C154.087 202.71 154.629 202.604 155.074 202.394C155.525 202.177 155.924 201.846 156.27 201.4L156.604 201.638C155.895 202.663 154.843 203.176 153.448 203.176ZM153.272 193.789C152.347 193.789 151.562 194.135 150.917 194.826C150.272 195.512 149.895 196.388 149.783 197.454H156.41V197.34C156.41 196.695 156.272 196.098 155.997 195.547C155.728 194.99 155.353 194.56 154.872 194.255C154.397 193.944 153.864 193.789 153.272 193.789ZM163.292 193.833L162.677 193.78C161.868 193.78 161.191 194.044 160.646 194.571C160.102 195.093 159.744 195.825 159.574 196.769V203H159.1V193.49H159.574V195.468C159.832 194.806 160.219 194.281 160.734 193.895C161.25 193.508 161.897 193.314 162.677 193.314C162.952 193.314 163.175 193.347 163.345 193.411L163.292 193.833ZM171.141 200.249L171.659 202.297L174.445 193.49H174.929L177.697 202.297L178.233 200.249L180.167 193.49H180.721L177.952 203H177.478L175.131 195.854L174.683 194.149L174.199 195.854L171.888 203H171.413L168.653 193.49H169.198L171.141 200.249ZM182.338 198.061C182.338 197.152 182.511 196.338 182.856 195.617C183.208 194.891 183.7 194.325 184.333 193.921C184.972 193.517 185.692 193.314 186.495 193.314C187.292 193.314 188.007 193.511 188.64 193.903C189.272 194.296 189.765 194.853 190.116 195.573C190.474 196.294 190.655 197.105 190.661 198.008V198.43C190.661 199.344 190.488 200.161 190.143 200.882C189.797 201.603 189.305 202.165 188.666 202.569C188.033 202.974 187.315 203.176 186.513 203.176C185.71 203.176 184.989 202.977 184.351 202.578C183.718 202.18 183.226 201.623 182.874 200.908C182.522 200.188 182.344 199.379 182.338 198.482V198.061ZM182.812 198.43C182.812 199.221 182.968 199.947 183.278 200.609C183.595 201.266 184.031 201.778 184.588 202.147C185.15 202.517 185.792 202.701 186.513 202.701C187.597 202.701 188.479 202.294 189.158 201.479C189.844 200.665 190.187 199.616 190.187 198.333V198.061C190.187 197.281 190.028 196.561 189.712 195.898C189.396 195.236 188.956 194.721 188.394 194.352C187.837 193.977 187.204 193.789 186.495 193.789C185.411 193.789 184.526 194.202 183.841 195.028C183.155 195.854 182.812 196.895 182.812 198.148V198.43ZM197.165 193.833L196.55 193.78C195.741 193.78 195.064 194.044 194.52 194.571C193.975 195.093 193.617 195.825 193.447 196.769V203H192.973V193.49H193.447V195.468C193.705 194.806 194.092 194.281 194.607 193.895C195.123 193.508 195.771 193.314 196.55 193.314C196.825 193.314 197.048 193.347 197.218 193.411L197.165 193.833ZM200.874 197.858L200.856 197.876L199.477 199.062V203H199.002V189.5H199.477V198.544L200.593 197.489L204.917 193.49H205.594L201.226 197.542L205.866 203H205.251L200.874 197.858ZM208.116 203H207.642V193.49H208.116V203ZM207.396 190.52C207.396 190.385 207.442 190.271 207.536 190.177C207.63 190.077 207.744 190.027 207.879 190.027C208.014 190.027 208.128 190.077 208.222 190.177C208.321 190.271 208.371 190.385 208.371 190.52C208.371 190.654 208.321 190.769 208.222 190.862C208.128 190.956 208.014 191.003 207.879 191.003C207.744 191.003 207.63 190.956 207.536 190.862C207.442 190.769 207.396 190.654 207.396 190.52ZM211.711 195.705C212.021 194.967 212.479 194.384 213.082 193.956C213.686 193.528 214.354 193.314 215.086 193.314C216.105 193.314 216.861 193.604 217.354 194.185C217.852 194.759 218.104 195.629 218.109 196.795V203H217.635V196.777C217.629 195.758 217.421 195.005 217.011 194.519C216.601 194.026 215.95 193.78 215.06 193.78C214.239 193.78 213.527 194.073 212.924 194.659C212.326 195.239 211.922 195.989 211.711 196.909V203H211.236V193.49H211.711V195.705ZM220.649 198.148C220.649 196.631 220.969 195.447 221.607 194.598C222.246 193.742 223.122 193.314 224.235 193.314C224.944 193.314 225.574 193.479 226.125 193.807C226.676 194.129 227.118 194.604 227.452 195.23V193.49H227.936V202.833C227.936 204.087 227.613 205.065 226.969 205.769C226.324 206.478 225.448 206.832 224.341 206.832C223.702 206.832 223.116 206.694 222.583 206.419C222.056 206.144 221.604 205.748 221.229 205.232L221.563 204.916C221.933 205.385 222.337 205.742 222.776 205.988C223.216 206.24 223.731 206.366 224.323 206.366C225.302 206.366 226.063 206.067 226.608 205.47C227.153 204.878 227.435 204.04 227.452 202.956V201.497C227.124 202.036 226.679 202.452 226.116 202.745C225.56 203.032 224.927 203.176 224.218 203.176C223.116 203.176 222.246 202.739 221.607 201.866C220.969 200.993 220.649 199.795 220.649 198.271V198.148ZM221.133 198.333C221.133 199.692 221.402 200.762 221.941 201.541C222.48 202.314 223.236 202.701 224.209 202.701C225.012 202.701 225.694 202.517 226.257 202.147C226.819 201.772 227.218 201.248 227.452 200.574V196.259C226.937 194.612 225.861 193.789 224.227 193.789C223.248 193.789 222.486 194.173 221.941 194.94C221.402 195.708 221.133 196.839 221.133 198.333ZM242.552 198.333C242.552 199.815 242.232 200.993 241.594 201.866C240.955 202.739 240.085 203.176 238.983 203.176C238.269 203.176 237.63 203.029 237.067 202.736C236.505 202.438 236.062 202.024 235.74 201.497V203H235.266V189.5H235.74V195.222C236.074 194.595 236.514 194.12 237.059 193.798C237.609 193.476 238.245 193.314 238.966 193.314C240.079 193.314 240.955 193.742 241.594 194.598C242.232 195.447 242.552 196.643 242.552 198.184V198.333ZM242.06 198.148C242.06 196.783 241.787 195.717 241.242 194.949C240.703 194.176 239.947 193.789 238.975 193.789C238.178 193.789 237.501 193.994 236.944 194.404C236.394 194.814 235.992 195.424 235.74 196.232V200.592C235.992 201.266 236.394 201.787 236.944 202.156C237.501 202.52 238.184 202.701 238.992 202.701C239.971 202.701 240.727 202.312 241.26 201.532C241.793 200.753 242.06 199.625 242.06 198.148ZM248.563 203.176C247.796 203.176 247.09 202.971 246.445 202.561C245.807 202.145 245.306 201.576 244.942 200.855C244.579 200.135 244.397 199.335 244.397 198.456V198.061C244.397 197.182 244.573 196.376 244.925 195.644C245.276 194.911 245.76 194.34 246.375 193.93C246.99 193.52 247.661 193.314 248.388 193.314C249.448 193.314 250.315 193.692 250.989 194.448C251.663 195.204 252 196.197 252 197.428V197.929H244.872V198.447C244.872 199.221 245.033 199.938 245.355 200.601C245.684 201.257 246.132 201.772 246.7 202.147C247.274 202.522 247.896 202.71 248.563 202.71C249.202 202.71 249.744 202.604 250.189 202.394C250.641 202.177 251.039 201.846 251.385 201.4L251.719 201.638C251.01 202.663 249.958 203.176 248.563 203.176ZM248.388 193.789C247.462 193.789 246.677 194.135 246.032 194.826C245.388 195.512 245.01 196.388 244.898 197.454H251.525V197.34C251.525 196.695 251.388 196.098 251.112 195.547C250.843 194.99 250.468 194.56 249.987 194.255C249.513 193.944 248.979 193.789 248.388 193.789ZM254.804 203H254.329V189.5H254.804V203ZM257.203 198.061C257.203 197.152 257.376 196.338 257.722 195.617C258.073 194.891 258.565 194.325 259.198 193.921C259.837 193.517 260.558 193.314 261.36 193.314C262.157 193.314 262.872 193.511 263.505 193.903C264.138 194.296 264.63 194.853 264.981 195.573C265.339 196.294 265.521 197.105 265.526 198.008V198.43C265.526 199.344 265.354 200.161 265.008 200.882C264.662 201.603 264.17 202.165 263.531 202.569C262.898 202.974 262.181 203.176 261.378 203.176C260.575 203.176 259.854 202.977 259.216 202.578C258.583 202.18 258.091 201.623 257.739 200.908C257.388 200.188 257.209 199.379 257.203 198.482V198.061ZM257.678 198.43C257.678 199.221 257.833 199.947 258.144 200.609C258.46 201.266 258.896 201.778 259.453 202.147C260.016 202.517 260.657 202.701 261.378 202.701C262.462 202.701 263.344 202.294 264.023 201.479C264.709 200.665 265.052 199.616 265.052 198.333V198.061C265.052 197.281 264.894 196.561 264.577 195.898C264.261 195.236 263.821 194.721 263.259 194.352C262.702 193.977 262.069 193.789 261.36 193.789C260.276 193.789 259.392 194.202 258.706 195.028C258.021 195.854 257.678 196.895 257.678 198.148V198.43ZM269.543 200.249L270.062 202.297L272.848 193.49H273.331L276.1 202.297L276.636 200.249L278.569 193.49H279.123L276.354 203H275.88L273.533 195.854L273.085 194.149L272.602 195.854L270.29 203H269.815L267.056 193.49H267.601L269.543 200.249Z" fill="white"/>
<path d="M112.5 365C112.5 365 112.5 347.5 112.5 301.5C112.5 255.5 172.5 264.5 172.5 264.5" stroke="#2CB36A" stroke-opacity="0.4" stroke-width="2"/>
<path d="M73 479C73 479 73 439.716 73 342C73 244.284 172.5 264.5 172.5 264.5" stroke="#D13333"/>
<path d="M162 273.5C165.5 270.5 170.4 262.5 162 254.5L173 264.5L162 273.5Z" stroke="#4F3BCD"/>
<path d="M119.557 306.223C118.608 310.777 116.764 315.198 116 319.783" stroke="#2CB36A" stroke-opacity="0.87" stroke-linecap="round" stroke-linejoin="round"/>
<path d="M126.448 307.334C123.727 309.223 123.023 314.084 123.113 317.239C123.129 317.786 124.154 317.56 124.558 317.56C125.898 317.56 126.437 315.774 126.905 314.769C127.583 313.311 128.007 311.799 128.671 310.348C129.019 309.585 129.56 308.615 129.56 307.779C129.56 306.737 127.48 307.041 126.892 307.334" stroke="#2CB36A" stroke-opacity="0.87" stroke-linecap="round" stroke-linejoin="round"/>
<path d="M139.119 304C137.119 308.513 134.831 312.987 132.339 317.239C131.21 319.163 130.49 321.52 128.893 323.117" stroke="#2CB36A" stroke-opacity="0.87" stroke-linecap="round" stroke-linejoin="round"/>
<path d="M132.45 309.335C132.45 309.705 132.18 311.598 132.499 311.953C132.87 312.365 133.561 312.382 133.561 311.768C133.561 310.739 133.561 309.71 133.561 308.68C133.561 307.502 133.2 309.372 132.894 309.78" stroke="#2CB36A" stroke-opacity="0.87" stroke-linecap="round" stroke-linejoin="round"/>
<path d="M135.784 315.781C135.566 316.236 134.623 318.017 135.167 318.622C135.328 318.802 135.99 318.721 136.006 318.449C136.034 317.973 136.684 316.893 135.784 316.893" stroke="#2CB36A" stroke-opacity="0.87" stroke-linecap="round" stroke-linejoin="round"/>
<rect x="29" y="69" width="354" height="30" fill="#C4C4C4" fill-opacity="0.04"/>
<path d="M108.265 84.8232H105.259V90H103.562V77.2031H107.799C109.24 77.2031 110.348 77.5312 111.121 78.1875C111.9 78.8438 112.29 79.7988 112.29 81.0527C112.29 81.8496 112.073 82.5439 111.64 83.1357C111.212 83.7275 110.614 84.1699 109.847 84.4629L112.853 89.8945V90H111.042L108.265 84.8232ZM105.259 83.4434H107.852C108.689 83.4434 109.354 83.2266 109.847 82.793C110.345 82.3594 110.594 81.7793 110.594 81.0527C110.594 80.2617 110.356 79.6553 109.882 79.2334C109.413 78.8115 108.733 78.5977 107.843 78.5918H105.259V83.4434ZM118.354 90.1758C117.065 90.1758 116.017 89.7539 115.208 88.9102C114.399 88.0605 113.995 86.9268 113.995 85.5088V85.21C113.995 84.2666 114.174 83.4258 114.531 82.6875C114.895 81.9434 115.398 81.3633 116.043 80.9473C116.693 80.5254 117.396 80.3145 118.152 80.3145C119.389 80.3145 120.35 80.7217 121.035 81.5361C121.721 82.3506 122.063 83.5166 122.063 85.0342V85.7109H115.621C115.645 86.6484 115.917 87.4072 116.438 87.9873C116.966 88.5615 117.634 88.8486 118.442 88.8486C119.017 88.8486 119.503 88.7314 119.901 88.4971C120.3 88.2627 120.648 87.9521 120.947 87.5654L121.94 88.3389C121.144 89.5635 119.948 90.1758 118.354 90.1758ZM118.152 81.6504C117.496 81.6504 116.945 81.8906 116.5 82.3711C116.055 82.8457 115.779 83.5137 115.674 84.375H120.438V84.252C120.391 83.4258 120.168 82.7871 119.77 82.3359C119.371 81.8789 118.832 81.6504 118.152 81.6504ZM124.753 90V81.7471H123.25V80.4902H124.753V79.5146C124.753 78.4951 125.025 77.707 125.57 77.1504C126.115 76.5938 126.886 76.3154 127.882 76.3154C128.257 76.3154 128.629 76.3652 128.998 76.4648L128.91 77.7832C128.635 77.7305 128.342 77.7041 128.031 77.7041C127.504 77.7041 127.097 77.8594 126.81 78.1699C126.522 78.4746 126.379 78.9141 126.379 79.4883V80.4902H128.409V81.7471H126.379V90H124.753ZM131.011 90V81.7471H129.508V80.4902H131.011V79.5146C131.011 78.4951 131.283 77.707 131.828 77.1504C132.373 76.5938 133.144 76.3154 134.14 76.3154C134.515 76.3154 134.887 76.3652 135.256 76.4648L135.168 77.7832C134.893 77.7305 134.6 77.7041 134.289 77.7041C133.762 77.7041 133.354 77.8594 133.067 78.1699C132.78 78.4746 132.637 78.9141 132.637 79.4883V80.4902H134.667V81.7471H132.637V90H131.011ZM140.204 90.1758C138.915 90.1758 137.866 89.7539 137.058 88.9102C136.249 88.0605 135.845 86.9268 135.845 85.5088V85.21C135.845 84.2666 136.023 83.4258 136.381 82.6875C136.744 81.9434 137.248 81.3633 137.893 80.9473C138.543 80.5254 139.246 80.3145 140.002 80.3145C141.238 80.3145 142.199 80.7217 142.885 81.5361C143.57 82.3506 143.913 83.5166 143.913 85.0342V85.7109H137.471C137.494 86.6484 137.767 87.4072 138.288 87.9873C138.815 88.5615 139.483 88.8486 140.292 88.8486C140.866 88.8486 141.353 88.7314 141.751 88.4971C142.149 88.2627 142.498 87.9521 142.797 87.5654L143.79 88.3389C142.993 89.5635 141.798 90.1758 140.204 90.1758ZM140.002 81.6504C139.346 81.6504 138.795 81.8906 138.35 82.3711C137.904 82.8457 137.629 83.5137 137.523 84.375H142.287V84.252C142.24 83.4258 142.018 82.7871 141.619 82.3359C141.221 81.8789 140.682 81.6504 140.002 81.6504ZM150.399 81.9492C150.153 81.9082 149.887 81.8877 149.6 81.8877C148.533 81.8877 147.81 82.3418 147.429 83.25V90H145.803V80.4902H147.385L147.411 81.5889C147.944 80.7393 148.7 80.3145 149.679 80.3145C149.995 80.3145 150.235 80.3555 150.399 80.4375V81.9492ZM158.573 78.1875V80.4902H160.349V81.7471H158.573V87.6445C158.573 88.0254 158.652 88.3125 158.811 88.5059C158.969 88.6934 159.238 88.7871 159.619 88.7871C159.807 88.7871 160.064 88.752 160.393 88.6816V90C159.965 90.1172 159.549 90.1758 159.145 90.1758C158.418 90.1758 157.87 89.9561 157.501 89.5166C157.132 89.0771 156.947 88.4531 156.947 87.6445V81.7471H155.216V80.4902H156.947V78.1875H158.573ZM161.649 85.1572C161.649 84.2256 161.831 83.3877 162.194 82.6436C162.563 81.8994 163.073 81.3252 163.724 80.9209C164.38 80.5166 165.127 80.3145 165.965 80.3145C167.26 80.3145 168.306 80.7627 169.103 81.6592C169.905 82.5557 170.307 83.748 170.307 85.2363V85.3506C170.307 86.2764 170.128 87.1084 169.771 87.8467C169.419 88.5791 168.912 89.1504 168.25 89.5605C167.594 89.9707 166.838 90.1758 165.982 90.1758C164.693 90.1758 163.647 89.7275 162.845 88.8311C162.048 87.9346 161.649 86.748 161.649 85.2715V85.1572ZM163.284 85.3506C163.284 86.4053 163.527 87.252 164.014 87.8906C164.506 88.5293 165.162 88.8486 165.982 88.8486C166.809 88.8486 167.465 88.5264 167.951 87.8818C168.438 87.2314 168.681 86.3232 168.681 85.1572C168.681 84.1143 168.432 83.2705 167.934 82.626C167.441 81.9756 166.785 81.6504 165.965 81.6504C165.162 81.6504 164.515 81.9697 164.022 82.6084C163.53 83.2471 163.284 84.1611 163.284 85.3506ZM179.008 82.8105H180.229C180.997 82.7988 181.601 82.5967 182.04 82.2041C182.479 81.8115 182.699 81.2812 182.699 80.6133C182.699 79.1133 181.952 78.3633 180.458 78.3633C179.755 78.3633 179.192 78.5654 178.771 78.9697C178.354 79.3682 178.146 79.8984 178.146 80.5605H176.521C176.521 79.5469 176.89 78.7061 177.628 78.0381C178.372 77.3643 179.315 77.0273 180.458 77.0273C181.665 77.0273 182.611 77.3467 183.297 77.9854C183.982 78.624 184.325 79.5117 184.325 80.6484C184.325 81.2051 184.144 81.7441 183.78 82.2656C183.423 82.7871 182.934 83.1768 182.312 83.4346C183.016 83.6572 183.558 84.0264 183.938 84.542C184.325 85.0576 184.519 85.6875 184.519 86.4316C184.519 87.5801 184.144 88.4912 183.394 89.165C182.644 89.8389 181.668 90.1758 180.467 90.1758C179.266 90.1758 178.287 89.8506 177.531 89.2002C176.781 88.5498 176.406 87.6914 176.406 86.625H178.041C178.041 87.2988 178.261 87.8379 178.7 88.2422C179.14 88.6465 179.729 88.8486 180.467 88.8486C181.252 88.8486 181.853 88.6436 182.269 88.2334C182.685 87.8232 182.893 87.2344 182.893 86.4668C182.893 85.7227 182.664 85.1514 182.207 84.7529C181.75 84.3545 181.091 84.1494 180.229 84.1377H179.008V82.8105ZM190.952 85.1572C190.952 84.2256 191.134 83.3877 191.497 82.6436C191.866 81.8994 192.376 81.3252 193.026 80.9209C193.683 80.5166 194.43 80.3145 195.268 80.3145C196.562 80.3145 197.608 80.7627 198.405 81.6592C199.208 82.5557 199.609 83.748 199.609 85.2363V85.3506C199.609 86.2764 199.431 87.1084 199.073 87.8467C198.722 88.5791 198.215 89.1504 197.553 89.5605C196.896 89.9707 196.141 90.1758 195.285 90.1758C193.996 90.1758 192.95 89.7275 192.147 88.8311C191.351 87.9346 190.952 86.748 190.952 85.2715V85.1572ZM192.587 85.3506C192.587 86.4053 192.83 87.252 193.316 87.8906C193.809 88.5293 194.465 88.8486 195.285 88.8486C196.111 88.8486 196.768 88.5264 197.254 87.8818C197.74 87.2314 197.983 86.3232 197.983 85.1572C197.983 84.1143 197.734 83.2705 197.236 82.626C196.744 81.9756 196.088 81.6504 195.268 81.6504C194.465 81.6504 193.817 81.9697 193.325 82.6084C192.833 83.2471 192.587 84.1611 192.587 85.3506ZM206.245 81.9492C205.999 81.9082 205.732 81.8877 205.445 81.8877C204.379 81.8877 203.655 82.3418 203.274 83.25V90H201.648V80.4902H203.23L203.257 81.5889C203.79 80.7393 204.546 80.3145 205.524 80.3145C205.841 80.3145 206.081 80.3555 206.245 80.4375V81.9492ZM213.742 80.4902L213.786 81.5449C214.483 80.7246 215.424 80.3145 216.607 80.3145C217.938 80.3145 218.843 80.8242 219.323 81.8438C219.64 81.3867 220.05 81.0176 220.554 80.7363C221.063 80.4551 221.664 80.3145 222.355 80.3145C224.441 80.3145 225.502 81.4189 225.537 83.6279V90H223.911V83.7246C223.911 83.0449 223.756 82.5381 223.445 82.2041C223.135 81.8643 222.613 81.6943 221.881 81.6943C221.277 81.6943 220.776 81.876 220.378 82.2393C219.979 82.5967 219.748 83.0801 219.684 83.6895V90H218.049V83.7686C218.049 82.3857 217.372 81.6943 216.019 81.6943C214.952 81.6943 214.223 82.1484 213.83 83.0566V90H212.204V80.4902H213.742ZM227.567 85.1572C227.567 84.2256 227.749 83.3877 228.112 82.6436C228.481 81.8994 228.991 81.3252 229.642 80.9209C230.298 80.5166 231.045 80.3145 231.883 80.3145C233.178 80.3145 234.224 80.7627 235.021 81.6592C235.823 82.5557 236.225 83.748 236.225 85.2363V85.3506C236.225 86.2764 236.046 87.1084 235.688 87.8467C235.337 88.5791 234.83 89.1504 234.168 89.5605C233.512 89.9707 232.756 90.1758 231.9 90.1758C230.611 90.1758 229.565 89.7275 228.763 88.8311C227.966 87.9346 227.567 86.748 227.567 85.2715V85.1572ZM229.202 85.3506C229.202 86.4053 229.445 87.252 229.932 87.8906C230.424 88.5293 231.08 88.8486 231.9 88.8486C232.727 88.8486 233.383 88.5264 233.869 87.8818C234.355 87.2314 234.599 86.3232 234.599 85.1572C234.599 84.1143 234.35 83.2705 233.852 82.626C233.359 81.9756 232.703 81.6504 231.883 81.6504C231.08 81.6504 230.433 81.9697 229.94 82.6084C229.448 83.2471 229.202 84.1611 229.202 85.3506ZM242.86 81.9492C242.614 81.9082 242.348 81.8877 242.061 81.8877C240.994 81.8877 240.271 82.3418 239.89 83.25V90H238.264V80.4902H239.846L239.872 81.5889C240.405 80.7393 241.161 80.3145 242.14 80.3145C242.456 80.3145 242.696 80.3555 242.86 80.4375V81.9492ZM248.134 90.1758C246.845 90.1758 245.796 89.7539 244.987 88.9102C244.179 88.0605 243.774 86.9268 243.774 85.5088V85.21C243.774 84.2666 243.953 83.4258 244.311 82.6875C244.674 81.9434 245.178 81.3633 245.822 80.9473C246.473 80.5254 247.176 80.3145 247.932 80.3145C249.168 80.3145 250.129 80.7217 250.814 81.5361C251.5 82.3506 251.843 83.5166 251.843 85.0342V85.7109H245.4C245.424 86.6484 245.696 87.4072 246.218 87.9873C246.745 88.5615 247.413 88.8486 248.222 88.8486C248.796 88.8486 249.282 88.7314 249.681 88.4971C250.079 88.2627 250.428 87.9521 250.727 87.5654L251.72 88.3389C250.923 89.5635 249.728 90.1758 248.134 90.1758ZM247.932 81.6504C247.275 81.6504 246.725 81.8906 246.279 82.3711C245.834 82.8457 245.559 83.5137 245.453 84.375H250.217V84.252C250.17 83.4258 249.947 82.7871 249.549 82.3359C249.15 81.8789 248.611 81.6504 247.932 81.6504ZM266.23 85.3506C266.23 86.7979 265.899 87.9639 265.237 88.8486C264.575 89.7334 263.679 90.1758 262.548 90.1758C261.394 90.1758 260.485 89.8096 259.823 89.0771V93.6562H258.197V80.4902H259.683L259.762 81.5449C260.424 80.7246 261.344 80.3145 262.521 80.3145C263.664 80.3145 264.566 80.7451 265.229 81.6064C265.896 82.4678 266.23 83.666 266.23 85.2012V85.3506ZM264.604 85.166C264.604 84.0938 264.376 83.2471 263.919 82.626C263.462 82.0049 262.835 81.6943 262.038 81.6943C261.054 81.6943 260.315 82.1309 259.823 83.0039V87.5479C260.31 88.415 261.054 88.8486 262.056 88.8486C262.835 88.8486 263.453 88.541 263.91 87.9258C264.373 87.3047 264.604 86.3848 264.604 85.166ZM272.251 90.1758C270.962 90.1758 269.913 89.7539 269.104 88.9102C268.296 88.0605 267.892 86.9268 267.892 85.5088V85.21C267.892 84.2666 268.07 83.4258 268.428 82.6875C268.791 81.9434 269.295 81.3633 269.939 80.9473C270.59 80.5254 271.293 80.3145 272.049 80.3145C273.285 80.3145 274.246 80.7217 274.932 81.5361C275.617 82.3506 275.96 83.5166 275.96 85.0342V85.7109H269.518C269.541 86.6484 269.813 87.4072 270.335 87.9873C270.862 88.5615 271.53 88.8486 272.339 88.8486C272.913 88.8486 273.399 88.7314 273.798 88.4971C274.196 88.2627 274.545 87.9521 274.844 87.5654L275.837 88.3389C275.04 89.5635 273.845 90.1758 272.251 90.1758ZM272.049 81.6504C271.393 81.6504 270.842 81.8906 270.396 82.3711C269.951 82.8457 269.676 83.5137 269.57 84.375H274.334V84.252C274.287 83.4258 274.064 82.7871 273.666 82.3359C273.268 81.8789 272.729 81.6504 272.049 81.6504ZM277.419 85.1572C277.419 84.2256 277.601 83.3877 277.964 82.6436C278.333 81.8994 278.843 81.3252 279.493 80.9209C280.149 80.5166 280.896 80.3145 281.734 80.3145C283.029 80.3145 284.075 80.7627 284.872 81.6592C285.675 82.5557 286.076 83.748 286.076 85.2363V85.3506C286.076 86.2764 285.897 87.1084 285.54 87.8467C285.188 88.5791 284.682 89.1504 284.02 89.5605C283.363 89.9707 282.607 90.1758 281.752 90.1758C280.463 90.1758 279.417 89.7275 278.614 88.8311C277.817 87.9346 277.419 86.748 277.419 85.2715V85.1572ZM279.054 85.3506C279.054 86.4053 279.297 87.252 279.783 87.8906C280.275 88.5293 280.932 88.8486 281.752 88.8486C282.578 88.8486 283.234 88.5264 283.721 87.8818C284.207 87.2314 284.45 86.3232 284.45 85.1572C284.45 84.1143 284.201 83.2705 283.703 82.626C283.211 81.9756 282.555 81.6504 281.734 81.6504C280.932 81.6504 280.284 81.9697 279.792 82.6084C279.3 83.2471 279.054 84.1611 279.054 85.3506ZM296.148 85.3506C296.148 86.7979 295.817 87.9639 295.155 88.8486C294.493 89.7334 293.597 90.1758 292.466 90.1758C291.312 90.1758 290.403 89.8096 289.741 89.0771V93.6562H288.115V80.4902H289.601L289.68 81.5449C290.342 80.7246 291.262 80.3145 292.439 80.3145C293.582 80.3145 294.484 80.7451 295.146 81.6064C295.814 82.4678 296.148 83.666 296.148 85.2012V85.3506ZM294.522 85.166C294.522 84.0938 294.294 83.2471 293.837 82.626C293.38 82.0049 292.753 81.6943 291.956 81.6943C290.972 81.6943 290.233 82.1309 289.741 83.0039V87.5479C290.228 88.415 290.972 88.8486 291.974 88.8486C292.753 88.8486 293.371 88.541 293.828 87.9258C294.291 87.3047 294.522 86.3848 294.522 85.166ZM299.989 90H298.363V76.5H299.989V90ZM306.546 90.1758C305.257 90.1758 304.208 89.7539 303.399 88.9102C302.591 88.0605 302.187 86.9268 302.187 85.5088V85.21C302.187 84.2666 302.365 83.4258 302.723 82.6875C303.086 81.9434 303.59 81.3633 304.234 80.9473C304.885 80.5254 305.588 80.3145 306.344 80.3145C307.58 80.3145 308.541 80.7217 309.227 81.5361C309.912 82.3506 310.255 83.5166 310.255 85.0342V85.7109H303.812C303.836 86.6484 304.108 87.4072 304.63 87.9873C305.157 88.5615 305.825 88.8486 306.634 88.8486C307.208 88.8486 307.694 88.7314 308.093 88.4971C308.491 88.2627 308.84 87.9521 309.139 87.5654L310.132 88.3389C309.335 89.5635 308.14 90.1758 306.546 90.1758ZM306.344 81.6504C305.688 81.6504 305.137 81.8906 304.691 82.3711C304.246 82.8457 303.971 83.5137 303.865 84.375H308.629V84.252C308.582 83.4258 308.359 82.7871 307.961 82.3359C307.562 81.8789 307.023 81.6504 306.344 81.6504Z" fill="#46BA7B" fill-opacity="0.87"/>
<path d="M83.8787 430.513C83.4454 431.829 83.0687 433.175 82.5694 434.468C82.524 434.586 81.7139 436.245 81.8034 436.265C82.9559 436.521 83.1084 436.5 83.9344 437.533C86.1298 440.277 87.0537 442.642 86.8733 446.071C86.7929 447.597 85.6433 450.129 83.7115 449.511C82.7189 449.193 81.2054 447.975 80.4245 447.255C79.6771 446.565 79.2312 445.219 78.8645 444.302" stroke="#D13333" stroke-linecap="round" stroke-linejoin="round"/>
<path d="M84.3801 431.766C87.106 431.814 89.1721 434.023 91.9014 434.023" stroke="#D13333" stroke-linecap="round" stroke-linejoin="round"/>
<path d="M99.4226 434.023C97.3603 437.136 95.1765 440.412 93.8234 443.912C92.9821 446.088 92.3251 448.349 91.5113 450.542C90.6413 452.886 89.5121 455.019 88.6421 457.339" stroke="#D13333" stroke-linecap="round" stroke-linejoin="round"/>
<path d="M91.6506 441.544C92.2947 444.407 92.9042 440.858 92.9042 439.789C92.9042 439.788 92.6659 440.675 92.6535 440.987C92.6386 441.358 92.1802 441.609 91.9013 441.795" stroke="#D13333" stroke-linecap="round" stroke-linejoin="round"/>
<path d="M96.1633 445.555C96.121 445.753 95.394 447.681 95.8012 447.798C96.0572 447.871 96.6455 447.908 96.6647 447.561C96.7175 446.611 96.9695 444.898 95.9126 446.307" stroke="#D13333" stroke-linecap="round" stroke-linejoin="round"/>
<path d="M55.084 609H54.3032V599.758H55.084V609ZM57.9658 609V602.754H56.8296V602.132H57.9658V601.3C57.9658 600.598 58.1436 600.058 58.499 599.682C58.8587 599.305 59.3581 599.117 59.9971 599.117C60.2848 599.117 60.5535 599.153 60.8032 599.225L60.7461 599.859C60.5345 599.809 60.3039 599.783 60.0542 599.783C59.6353 599.783 59.3094 599.914 59.0767 600.177C58.8439 600.435 58.7275 600.803 58.7275 601.281V602.132H60.3652V602.754H58.7275V609H57.9658ZM69.3027 608.13C68.8457 608.795 68.1157 609.127 67.1128 609.127C66.3807 609.127 65.8242 608.915 65.4434 608.492C65.0625 608.065 64.8678 607.434 64.8594 606.601V602.132H65.6147V606.505C65.6147 607.813 66.1437 608.467 67.2017 608.467C68.3019 608.467 68.998 608.012 69.29 607.102V602.132H70.0518V609H69.3154L69.3027 608.13ZM76.1455 607.254C76.1455 606.878 75.9932 606.575 75.6885 606.347C75.388 606.118 74.9331 605.94 74.3237 605.813C73.7144 605.682 73.2404 605.534 72.9019 605.369C72.5675 605.2 72.3179 604.995 72.1528 604.753C71.992 604.512 71.9116 604.22 71.9116 603.877C71.9116 603.336 72.138 602.889 72.5908 602.538C73.0436 602.183 73.6234 602.005 74.3301 602.005C75.096 602.005 75.7096 602.195 76.1709 602.576C76.6364 602.953 76.8691 603.446 76.8691 604.055H76.1074C76.1074 603.653 75.9382 603.319 75.5996 603.052C75.2653 602.786 74.8421 602.652 74.3301 602.652C73.8307 602.652 73.4287 602.764 73.124 602.989C72.8236 603.209 72.6733 603.497 72.6733 603.852C72.6733 604.195 72.7982 604.461 73.0479 604.652C73.3018 604.838 73.7609 605.009 74.4253 605.166C75.0939 605.323 75.5933 605.49 75.9233 605.667C76.2576 605.845 76.5052 606.059 76.666 606.309C76.8268 606.558 76.9072 606.861 76.9072 607.216C76.9072 607.796 76.6724 608.259 76.2026 608.606C75.7371 608.953 75.1278 609.127 74.3745 609.127C73.5747 609.127 72.9251 608.934 72.4258 608.549C71.9307 608.16 71.6831 607.669 71.6831 607.077H72.4448C72.4744 607.521 72.6606 607.868 73.0034 608.118C73.3504 608.363 73.8075 608.486 74.3745 608.486C74.9035 608.486 75.3309 608.369 75.6567 608.137C75.9826 607.904 76.1455 607.61 76.1455 607.254ZM81.2808 609.127C80.6968 609.127 80.1678 608.983 79.6938 608.695C79.2241 608.408 78.8581 608.008 78.5957 607.496C78.3333 606.979 78.2021 606.402 78.2021 605.763V605.49C78.2021 604.83 78.3291 604.235 78.583 603.706C78.8411 603.177 79.1987 602.762 79.6558 602.462C80.1128 602.157 80.6079 602.005 81.1411 602.005C81.9748 602.005 82.6349 602.291 83.1216 602.862C83.6125 603.429 83.8579 604.205 83.8579 605.191V605.617H78.9575V605.763C78.9575 606.541 79.1797 607.191 79.624 607.711C80.0726 608.228 80.6354 608.486 81.3125 608.486C81.7188 608.486 82.0763 608.412 82.3853 608.264C82.6984 608.116 82.9819 607.879 83.2358 607.553L83.7119 607.915C83.1533 608.723 82.3429 609.127 81.2808 609.127ZM81.1411 602.652C80.5698 602.652 80.0874 602.862 79.6938 603.281C79.3045 603.7 79.0675 604.263 78.9829 604.969H83.1025V604.887C83.0814 604.227 82.8931 603.689 82.5376 603.274C82.1821 602.86 81.7166 602.652 81.1411 602.652ZM88.5107 602.779C88.3499 602.75 88.1785 602.735 87.9966 602.735C87.5226 602.735 87.1206 602.868 86.7905 603.135C86.4647 603.397 86.2319 603.78 86.0923 604.284V609H85.3369V602.132H86.0796L86.0923 603.224C86.4943 602.411 87.1396 602.005 88.0283 602.005C88.2399 602.005 88.4071 602.032 88.5298 602.087L88.5107 602.779ZM93.6333 603.293C93.883 602.883 94.2025 602.566 94.5918 602.341C94.9811 602.117 95.4064 602.005 95.8677 602.005C96.604 602.005 97.152 602.212 97.5117 602.627C97.8714 603.042 98.0534 603.664 98.0576 604.493V609H97.3022V604.487C97.298 603.873 97.1668 603.416 96.9087 603.116C96.6548 602.815 96.2464 602.665 95.6836 602.665C95.2139 602.665 94.797 602.813 94.4331 603.109C94.0734 603.401 93.8068 603.797 93.6333 604.296V609H92.8779V599.25H93.6333V603.293ZM104.348 609C104.272 608.784 104.223 608.465 104.202 608.042C103.936 608.389 103.595 608.657 103.18 608.848C102.77 609.034 102.334 609.127 101.873 609.127C101.212 609.127 100.677 608.943 100.267 608.575C99.8604 608.207 99.6572 607.741 99.6572 607.178C99.6572 606.51 99.9344 605.981 100.489 605.591C101.047 605.202 101.824 605.007 102.818 605.007H104.196V604.227C104.196 603.736 104.043 603.351 103.739 603.071C103.438 602.788 102.998 602.646 102.418 602.646C101.889 602.646 101.451 602.781 101.104 603.052C100.757 603.323 100.584 603.649 100.584 604.03L99.8223 604.023C99.8223 603.478 100.076 603.006 100.584 602.608C101.092 602.206 101.716 602.005 102.457 602.005C103.222 602.005 103.826 602.197 104.266 602.583C104.71 602.963 104.938 603.497 104.951 604.182V607.432C104.951 608.097 105.021 608.594 105.161 608.924V609H104.348ZM101.961 608.454C102.469 608.454 102.922 608.331 103.32 608.086C103.722 607.84 104.014 607.513 104.196 607.102V605.591H102.837C102.08 605.6 101.487 605.739 101.06 606.01C100.633 606.277 100.419 606.645 100.419 607.115C100.419 607.5 100.561 607.819 100.844 608.073C101.132 608.327 101.504 608.454 101.961 608.454ZM111.096 607.254C111.096 606.878 110.943 606.575 110.639 606.347C110.338 606.118 109.883 605.94 109.274 605.813C108.665 605.682 108.191 605.534 107.852 605.369C107.518 605.2 107.268 604.995 107.103 604.753C106.942 604.512 106.862 604.22 106.862 603.877C106.862 603.336 107.088 602.889 107.541 602.538C107.994 602.183 108.574 602.005 109.28 602.005C110.046 602.005 110.66 602.195 111.121 602.576C111.587 602.953 111.819 603.446 111.819 604.055H111.058C111.058 603.653 110.888 603.319 110.55 603.052C110.215 602.786 109.792 602.652 109.28 602.652C108.781 602.652 108.379 602.764 108.074 602.989C107.774 603.209 107.624 603.497 107.624 603.852C107.624 604.195 107.748 604.461 107.998 604.652C108.252 604.838 108.711 605.009 109.375 605.166C110.044 605.323 110.543 605.49 110.874 605.667C111.208 605.845 111.455 606.059 111.616 606.309C111.777 606.558 111.857 606.861 111.857 607.216C111.857 607.796 111.623 608.259 111.153 608.606C110.687 608.953 110.078 609.127 109.325 609.127C108.525 609.127 107.875 608.934 107.376 608.549C106.881 608.16 106.633 607.669 106.633 607.077H107.395C107.425 607.521 107.611 607.868 107.954 608.118C108.301 608.363 108.758 608.486 109.325 608.486C109.854 608.486 110.281 608.369 110.607 608.137C110.933 607.904 111.096 607.61 111.096 607.254ZM118.3 603.966H119.087C119.523 603.966 119.904 603.89 120.23 603.738C120.556 603.581 120.803 603.37 120.973 603.103C121.146 602.832 121.233 602.521 121.233 602.17C121.233 601.577 121.066 601.114 120.731 600.78C120.397 600.445 119.917 600.278 119.291 600.278C118.698 600.278 118.211 600.454 117.831 600.805C117.454 601.152 117.266 601.611 117.266 602.183H116.504C116.504 601.704 116.625 601.269 116.866 600.875C117.107 600.477 117.441 600.17 117.869 599.955C118.296 599.739 118.77 599.631 119.291 599.631C120.128 599.631 120.789 599.859 121.271 600.316C121.753 600.773 121.995 601.4 121.995 602.195C121.995 602.64 121.853 603.05 121.569 603.427C121.29 603.799 120.905 604.078 120.414 604.265C120.99 604.425 121.425 604.703 121.722 605.096C122.018 605.486 122.166 605.951 122.166 606.493C122.166 607.284 121.908 607.921 121.392 608.403C120.875 608.886 120.186 609.127 119.322 609.127C118.772 609.127 118.266 609.017 117.805 608.797C117.348 608.577 116.993 608.27 116.739 607.876C116.489 607.479 116.364 607.017 116.364 606.493H117.126C117.126 607.081 117.331 607.561 117.742 607.934C118.152 608.302 118.679 608.486 119.322 608.486C119.978 608.486 120.488 608.319 120.852 607.984C121.22 607.646 121.404 607.157 121.404 606.518C121.404 605.9 121.205 605.428 120.808 605.103C120.414 604.777 119.832 604.614 119.062 604.614H118.3V603.966ZM130.278 602.779C130.118 602.75 129.946 602.735 129.764 602.735C129.29 602.735 128.888 602.868 128.558 603.135C128.232 603.397 128 603.78 127.86 604.284V609H127.104V602.132H127.847L127.86 603.224C128.262 602.411 128.907 602.005 129.796 602.005C130.007 602.005 130.175 602.032 130.297 602.087L130.278 602.779ZM134.017 609.127C133.433 609.127 132.904 608.983 132.43 608.695C131.96 608.408 131.594 608.008 131.332 607.496C131.07 606.979 130.938 606.402 130.938 605.763V605.49C130.938 604.83 131.065 604.235 131.319 603.706C131.577 603.177 131.935 602.762 132.392 602.462C132.849 602.157 133.344 602.005 133.877 602.005C134.711 602.005 135.371 602.291 135.858 602.862C136.349 603.429 136.594 604.205 136.594 605.191V605.617H131.694V605.763C131.694 606.541 131.916 607.191 132.36 607.711C132.809 608.228 133.372 608.486 134.049 608.486C134.455 608.486 134.813 608.412 135.122 608.264C135.435 608.116 135.718 607.879 135.972 607.553L136.448 607.915C135.89 608.723 135.079 609.127 134.017 609.127ZM133.877 602.652C133.306 602.652 132.824 602.862 132.43 603.281C132.041 603.7 131.804 604.263 131.719 604.969H135.839V604.887C135.818 604.227 135.629 603.689 135.274 603.274C134.918 602.86 134.453 602.652 133.877 602.652ZM138.619 609V602.754H137.483V602.132H138.619V601.3C138.619 600.598 138.797 600.058 139.152 599.682C139.512 599.305 140.011 599.117 140.65 599.117C140.938 599.117 141.207 599.153 141.457 599.225L141.399 599.859C141.188 599.809 140.957 599.783 140.708 599.783C140.289 599.783 139.963 599.914 139.73 600.177C139.497 600.435 139.381 600.803 139.381 601.281V602.132H141.019V602.754H139.381V609H138.619ZM142.923 609V602.754H141.787V602.132H142.923V601.3C142.923 600.598 143.101 600.058 143.456 599.682C143.816 599.305 144.315 599.117 144.954 599.117C145.242 599.117 145.511 599.153 145.76 599.225L145.703 599.859C145.492 599.809 145.261 599.783 145.011 599.783C144.592 599.783 144.266 599.914 144.034 600.177C143.801 600.435 143.685 600.803 143.685 601.281V602.132H145.322V602.754H143.685V609H142.923ZM149.188 609.127C148.604 609.127 148.075 608.983 147.601 608.695C147.131 608.408 146.765 608.008 146.503 607.496C146.241 606.979 146.109 606.402 146.109 605.763V605.49C146.109 604.83 146.236 604.235 146.49 603.706C146.748 603.177 147.106 602.762 147.563 602.462C148.02 602.157 148.515 602.005 149.048 602.005C149.882 602.005 150.542 602.291 151.029 602.862C151.52 603.429 151.765 604.205 151.765 605.191V605.617H146.865V605.763C146.865 606.541 147.087 607.191 147.531 607.711C147.98 608.228 148.543 608.486 149.22 608.486C149.626 608.486 149.984 608.412 150.292 608.264C150.606 608.116 150.889 607.879 151.143 607.553L151.619 607.915C151.061 608.723 150.25 609.127 149.188 609.127ZM149.048 602.652C148.477 602.652 147.995 602.862 147.601 603.281C147.212 603.7 146.975 604.263 146.89 604.969H151.01V604.887C150.989 604.227 150.8 603.689 150.445 603.274C150.089 602.86 149.624 602.652 149.048 602.652ZM156.418 602.779C156.257 602.75 156.086 602.735 155.904 602.735C155.43 602.735 155.028 602.868 154.698 603.135C154.372 603.397 154.139 603.78 154 604.284V609H153.244V602.132H153.987L154 603.224C154.402 602.411 155.047 602.005 155.936 602.005C156.147 602.005 156.314 602.032 156.437 602.087L156.418 602.779ZM161.706 609C161.629 608.784 161.581 608.465 161.56 608.042C161.293 608.389 160.952 608.657 160.538 608.848C160.127 609.034 159.691 609.127 159.23 609.127C158.57 609.127 158.035 608.943 157.624 608.575C157.218 608.207 157.015 607.741 157.015 607.178C157.015 606.51 157.292 605.981 157.846 605.591C158.405 605.202 159.181 605.007 160.176 605.007H161.553V604.227C161.553 603.736 161.401 603.351 161.096 603.071C160.796 602.788 160.356 602.646 159.776 602.646C159.247 602.646 158.809 602.781 158.462 603.052C158.115 603.323 157.941 603.649 157.941 604.03L157.18 604.023C157.18 603.478 157.434 603.006 157.941 602.608C158.449 602.206 159.073 602.005 159.814 602.005C160.58 602.005 161.183 602.197 161.623 602.583C162.067 602.963 162.296 603.497 162.309 604.182V607.432C162.309 608.097 162.378 608.594 162.518 608.924V609H161.706ZM159.319 608.454C159.827 608.454 160.279 608.331 160.677 608.086C161.079 607.84 161.371 607.513 161.553 607.102V605.591H160.195C159.437 605.6 158.845 605.739 158.417 606.01C157.99 606.277 157.776 606.645 157.776 607.115C157.776 607.5 157.918 607.819 158.202 608.073C158.489 608.327 158.862 608.454 159.319 608.454ZM165.19 609H164.429V599.25H165.19V609ZM171.373 607.254C171.373 606.878 171.221 606.575 170.916 606.347C170.616 606.118 170.161 605.94 169.551 605.813C168.942 605.682 168.468 605.534 168.129 605.369C167.795 605.2 167.545 604.995 167.38 604.753C167.22 604.512 167.139 604.22 167.139 603.877C167.139 603.336 167.366 602.889 167.818 602.538C168.271 602.183 168.851 602.005 169.558 602.005C170.324 602.005 170.937 602.195 171.398 602.576C171.864 602.953 172.097 603.446 172.097 604.055H171.335C171.335 603.653 171.166 603.319 170.827 603.052C170.493 602.786 170.07 602.652 169.558 602.652C169.058 602.652 168.656 602.764 168.352 602.989C168.051 603.209 167.901 603.497 167.901 603.852C167.901 604.195 168.026 604.461 168.275 604.652C168.529 604.838 168.988 605.009 169.653 605.166C170.321 605.323 170.821 605.49 171.151 605.667C171.485 605.845 171.733 606.059 171.894 606.309C172.054 606.558 172.135 606.861 172.135 607.216C172.135 607.796 171.9 608.259 171.43 608.606C170.965 608.953 170.355 609.127 169.602 609.127C168.802 609.127 168.153 608.934 167.653 608.549C167.158 608.16 166.911 607.669 166.911 607.077H167.672C167.702 607.521 167.888 607.868 168.231 608.118C168.578 608.363 169.035 608.486 169.602 608.486C170.131 608.486 170.558 608.369 170.884 608.137C171.21 607.904 171.373 607.61 171.373 607.254ZM178.19 600.374V602.132H179.612V602.754H178.19V607.331C178.19 607.711 178.258 607.995 178.394 608.181C178.533 608.367 178.764 608.46 179.085 608.46C179.212 608.46 179.418 608.439 179.701 608.397L179.733 609.019C179.534 609.091 179.263 609.127 178.92 609.127C178.4 609.127 178.021 608.977 177.784 608.676C177.547 608.372 177.429 607.925 177.429 607.337V602.754H176.166V602.132H177.429V600.374H178.19ZM181.942 603.293C182.192 602.883 182.511 602.566 182.9 602.341C183.29 602.117 183.715 602.005 184.176 602.005C184.913 602.005 185.461 602.212 185.82 602.627C186.18 603.042 186.362 603.664 186.366 604.493V609H185.611V604.487C185.607 603.873 185.475 603.416 185.217 603.116C184.963 602.815 184.555 602.665 183.992 602.665C183.522 602.665 183.106 602.813 182.742 603.109C182.382 603.401 182.115 603.797 181.942 604.296V609H181.187V599.25H181.942V603.293ZM190.981 609.127C190.397 609.127 189.868 608.983 189.394 608.695C188.924 608.408 188.558 608.008 188.296 607.496C188.034 606.979 187.902 606.402 187.902 605.763V605.49C187.902 604.83 188.029 604.235 188.283 603.706C188.541 603.177 188.899 602.762 189.356 602.462C189.813 602.157 190.308 602.005 190.841 602.005C191.675 602.005 192.335 602.291 192.822 602.862C193.313 603.429 193.558 604.205 193.558 605.191V605.617H188.658V605.763C188.658 606.541 188.88 607.191 189.324 607.711C189.773 608.228 190.336 608.486 191.013 608.486C191.419 608.486 191.777 608.412 192.085 608.264C192.399 608.116 192.682 607.879 192.936 607.553L193.412 607.915C192.854 608.723 192.043 609.127 190.981 609.127ZM190.841 602.652C190.27 602.652 189.788 602.862 189.394 603.281C189.005 603.7 188.768 604.263 188.683 604.969H192.803V604.887C192.782 604.227 192.593 603.689 192.238 603.274C191.882 602.86 191.417 602.652 190.841 602.652ZM195.761 602.132L195.786 603.306C196.044 602.883 196.366 602.561 196.751 602.341C197.136 602.117 197.561 602.005 198.027 602.005C198.763 602.005 199.311 602.212 199.671 602.627C200.031 603.042 200.213 603.664 200.217 604.493V609H199.461V604.487C199.457 603.873 199.326 603.416 199.068 603.116C198.814 602.815 198.406 602.665 197.843 602.665C197.373 602.665 196.956 602.813 196.592 603.109C196.233 603.401 195.966 603.797 195.792 604.296V609H195.037V602.132H195.761ZM206.101 603.293C206.351 602.883 206.67 602.566 207.06 602.341C207.449 602.117 207.874 602.005 208.335 602.005C209.072 602.005 209.62 602.212 209.979 602.627C210.339 603.042 210.521 603.664 210.525 604.493V609H209.77V604.487C209.766 603.873 209.635 603.416 209.376 603.116C209.123 602.815 208.714 602.665 208.151 602.665C207.682 602.665 207.265 602.813 206.901 603.109C206.541 603.401 206.275 603.797 206.101 604.296V609H205.346V599.25H206.101V603.293ZM215.14 609.127C214.556 609.127 214.027 608.983 213.553 608.695C213.083 608.408 212.717 608.008 212.455 607.496C212.193 606.979 212.062 606.402 212.062 605.763V605.49C212.062 604.83 212.188 604.235 212.442 603.706C212.701 603.177 213.058 602.762 213.515 602.462C213.972 602.157 214.467 602.005 215 602.005C215.834 602.005 216.494 602.291 216.981 602.862C217.472 603.429 217.717 604.205 217.717 605.191V605.617H212.817V605.763C212.817 606.541 213.039 607.191 213.483 607.711C213.932 608.228 214.495 608.486 215.172 608.486C215.578 608.486 215.936 608.412 216.245 608.264C216.558 608.116 216.841 607.879 217.095 607.553L217.571 607.915C217.013 608.723 216.202 609.127 215.14 609.127ZM215 602.652C214.429 602.652 213.947 602.862 213.553 603.281C213.164 603.7 212.927 604.263 212.842 604.969H216.962V604.887C216.941 604.227 216.752 603.689 216.397 603.274C216.042 602.86 215.576 602.652 215 602.652ZM224.896 608.486C225.425 608.486 225.868 608.338 226.223 608.042C226.583 607.741 226.778 607.354 226.807 606.88H227.537C227.516 607.299 227.385 607.682 227.144 608.029C226.902 608.372 226.581 608.64 226.179 608.835C225.781 609.03 225.354 609.127 224.896 609.127C223.995 609.127 223.28 608.814 222.751 608.188C222.226 607.561 221.964 606.719 221.964 605.661V605.433C221.964 604.756 222.082 604.157 222.319 603.636C222.556 603.116 222.895 602.714 223.335 602.43C223.779 602.147 224.298 602.005 224.89 602.005C225.643 602.005 226.263 602.229 226.75 602.678C227.241 603.126 227.503 603.717 227.537 604.449H226.807C226.773 603.911 226.579 603.478 226.223 603.147C225.872 602.817 225.428 602.652 224.89 602.652C224.205 602.652 223.671 602.9 223.291 603.395C222.914 603.89 222.726 604.584 222.726 605.477V605.699C222.726 606.575 222.914 607.259 223.291 607.75C223.671 608.24 224.207 608.486 224.896 608.486ZM233.396 609C233.32 608.784 233.271 608.465 233.25 608.042C232.983 608.389 232.643 608.657 232.228 608.848C231.818 609.034 231.382 609.127 230.92 609.127C230.26 609.127 229.725 608.943 229.314 608.575C228.908 608.207 228.705 607.741 228.705 607.178C228.705 606.51 228.982 605.981 229.537 605.591C230.095 605.202 230.872 605.007 231.866 605.007H233.244V604.227C233.244 603.736 233.091 603.351 232.787 603.071C232.486 602.788 232.046 602.646 231.466 602.646C230.937 602.646 230.499 602.781 230.152 603.052C229.805 603.323 229.632 603.649 229.632 604.03L228.87 604.023C228.87 603.478 229.124 603.006 229.632 602.608C230.14 602.206 230.764 602.005 231.504 602.005C232.27 602.005 232.873 602.197 233.313 602.583C233.758 602.963 233.986 603.497 233.999 604.182V607.432C233.999 608.097 234.069 608.594 234.208 608.924V609H233.396ZM231.009 608.454C231.517 608.454 231.97 608.331 232.368 608.086C232.77 607.84 233.062 607.513 233.244 607.102V605.591H231.885C231.128 605.6 230.535 605.739 230.108 606.01C229.681 606.277 229.467 606.645 229.467 607.115C229.467 607.5 229.609 607.819 229.892 608.073C230.18 608.327 230.552 608.454 231.009 608.454ZM236.754 602.132L236.779 603.306C237.037 602.883 237.359 602.561 237.744 602.341C238.129 602.117 238.555 602.005 239.02 602.005C239.756 602.005 240.304 602.212 240.664 602.627C241.024 603.042 241.206 603.664 241.21 604.493V609H240.455V604.487C240.45 603.873 240.319 603.416 240.061 603.116C239.807 602.815 239.399 602.665 238.836 602.665C238.366 602.665 237.949 602.813 237.585 603.109C237.226 603.401 236.959 603.797 236.786 604.296V609H236.03V602.132H236.754ZM247.094 603.293C247.344 602.883 247.663 602.566 248.053 602.341C248.442 602.117 248.867 602.005 249.329 602.005C250.065 602.005 250.613 602.212 250.973 602.627C251.332 603.042 251.514 603.664 251.519 604.493V609H250.763V604.487C250.759 603.873 250.628 603.416 250.37 603.116C250.116 602.815 249.707 602.665 249.145 602.665C248.675 602.665 248.258 602.813 247.894 603.109C247.534 603.401 247.268 603.797 247.094 604.296V609H246.339V599.25H247.094V603.293ZM257.809 609C257.733 608.784 257.684 608.465 257.663 608.042C257.396 608.389 257.056 608.657 256.641 608.848C256.231 609.034 255.795 609.127 255.333 609.127C254.673 609.127 254.138 608.943 253.728 608.575C253.321 608.207 253.118 607.741 253.118 607.178C253.118 606.51 253.395 605.981 253.95 605.591C254.508 605.202 255.285 605.007 256.279 605.007H257.657V604.227C257.657 603.736 257.504 603.351 257.2 603.071C256.899 602.788 256.459 602.646 255.879 602.646C255.35 602.646 254.912 602.781 254.565 603.052C254.218 603.323 254.045 603.649 254.045 604.03L253.283 604.023C253.283 603.478 253.537 603.006 254.045 602.608C254.553 602.206 255.177 602.005 255.917 602.005C256.683 602.005 257.286 602.197 257.727 602.583C258.171 602.963 258.399 603.497 258.412 604.182V607.432C258.412 608.097 258.482 608.594 258.622 608.924V609H257.809ZM255.422 608.454C255.93 608.454 256.383 608.331 256.781 608.086C257.183 607.84 257.475 607.513 257.657 607.102V605.591H256.298C255.541 605.6 254.948 605.739 254.521 606.01C254.094 606.277 253.88 606.645 253.88 607.115C253.88 607.5 254.022 607.819 254.305 608.073C254.593 608.327 254.965 608.454 255.422 608.454ZM262.481 607.953L264.569 602.132H265.35L262.786 609H262.17L259.593 602.132H260.374L262.481 607.953ZM269.171 609.127C268.587 609.127 268.058 608.983 267.584 608.695C267.115 608.408 266.749 608.008 266.486 607.496C266.224 606.979 266.093 606.402 266.093 605.763V605.49C266.093 604.83 266.22 604.235 266.474 603.706C266.732 603.177 267.089 602.762 267.546 602.462C268.003 602.157 268.499 602.005 269.032 602.005C269.865 602.005 270.526 602.291 271.012 602.862C271.503 603.429 271.749 604.205 271.749 605.191V605.617H266.848V605.763C266.848 606.541 267.07 607.191 267.515 607.711C267.963 608.228 268.526 608.486 269.203 608.486C269.609 608.486 269.967 608.412 270.276 608.264C270.589 608.116 270.873 607.879 271.126 607.553L271.603 607.915C271.044 608.723 270.234 609.127 269.171 609.127ZM269.032 602.652C268.46 602.652 267.978 602.862 267.584 603.281C267.195 603.7 266.958 604.263 266.874 604.969H270.993V604.887C270.972 604.227 270.784 603.689 270.428 603.274C270.073 602.86 269.607 602.652 269.032 602.652ZM276.782 604.265L277.233 599.758H281.854V600.462H277.887L277.563 603.585C278.058 603.247 278.638 603.078 279.302 603.078C280.136 603.078 280.8 603.348 281.295 603.89C281.791 604.432 282.038 605.153 282.038 606.055C282.038 607.028 281.797 607.783 281.314 608.321C280.832 608.858 280.153 609.127 279.277 609.127C278.473 609.127 277.821 608.903 277.322 608.454C276.822 608.006 276.537 607.377 276.465 606.569H277.195C277.267 607.199 277.48 607.678 277.836 608.003C278.191 608.325 278.672 608.486 279.277 608.486C279.937 608.486 280.434 608.276 280.769 607.857C281.107 607.438 281.276 606.842 281.276 606.067C281.276 605.39 281.088 604.838 280.711 604.411C280.335 603.983 279.821 603.77 279.169 603.77C278.809 603.77 278.496 603.816 278.229 603.909C277.963 603.998 277.681 604.174 277.385 604.436L276.782 604.265ZM283.301 601.535C283.301 600.985 283.471 600.53 283.809 600.17C284.152 599.806 284.586 599.625 285.11 599.625C285.635 599.625 286.067 599.806 286.405 600.17C286.748 600.53 286.919 600.998 286.919 601.573V602.024C286.919 602.566 286.75 603.018 286.412 603.382C286.077 603.742 285.648 603.922 285.123 603.922C284.603 603.922 284.169 603.744 283.822 603.389C283.475 603.033 283.301 602.563 283.301 601.979V601.535ZM283.917 602.024C283.917 602.417 284.025 602.741 284.241 602.995C284.461 603.249 284.755 603.376 285.123 603.376C285.483 603.376 285.768 603.249 285.98 602.995C286.196 602.737 286.304 602.405 286.304 601.999V601.535C286.304 601.142 286.194 600.818 285.974 600.564C285.754 600.306 285.466 600.177 285.11 600.177C284.759 600.177 284.471 600.304 284.247 600.558C284.027 600.812 283.917 601.15 283.917 601.573V602.024ZM287.954 606.734C287.954 606.184 288.123 605.729 288.462 605.369C288.805 605.009 289.236 604.83 289.757 604.83C290.277 604.83 290.709 605.009 291.052 605.369C291.399 605.725 291.572 606.194 291.572 606.778V607.229C291.572 607.779 291.401 608.234 291.058 608.594C290.72 608.953 290.29 609.133 289.77 609.133C289.249 609.133 288.815 608.956 288.468 608.6C288.125 608.24 287.954 607.773 287.954 607.197V606.734ZM288.563 607.229C288.563 607.627 288.671 607.953 288.887 608.207C289.107 608.46 289.401 608.587 289.77 608.587C290.133 608.587 290.421 608.46 290.633 608.207C290.849 607.948 290.957 607.612 290.957 607.197V606.734C290.957 606.328 290.847 606.002 290.626 605.756C290.411 605.507 290.121 605.382 289.757 605.382C289.401 605.382 289.114 605.507 288.894 605.756C288.674 606.006 288.563 606.34 288.563 606.759V607.229ZM285.364 608.232L284.888 607.927L289.401 600.704L289.877 601.008L285.364 608.232ZM299.545 602.779C299.384 602.75 299.213 602.735 299.031 602.735C298.557 602.735 298.155 602.868 297.825 603.135C297.499 603.397 297.266 603.78 297.126 604.284V609H296.371V602.132H297.114L297.126 603.224C297.528 602.411 298.174 602.005 299.062 602.005C299.274 602.005 299.441 602.032 299.564 602.087L299.545 602.779ZM303.284 609.127C302.7 609.127 302.171 608.983 301.697 608.695C301.227 608.408 300.861 608.008 300.599 607.496C300.336 606.979 300.205 606.402 300.205 605.763V605.49C300.205 604.83 300.332 604.235 300.586 603.706C300.844 603.177 301.202 602.762 301.659 602.462C302.116 602.157 302.611 602.005 303.144 602.005C303.978 602.005 304.638 602.291 305.125 602.862C305.615 603.429 305.861 604.205 305.861 605.191V605.617H300.96V605.763C300.96 606.541 301.183 607.191 301.627 607.711C302.076 608.228 302.638 608.486 303.315 608.486C303.722 608.486 304.079 608.412 304.388 608.264C304.701 608.116 304.985 607.879 305.239 607.553L305.715 607.915C305.156 608.723 304.346 609.127 303.284 609.127ZM303.144 602.652C302.573 602.652 302.09 602.862 301.697 603.281C301.307 603.7 301.07 604.263 300.986 604.969H305.105V604.887C305.084 604.227 304.896 603.689 304.541 603.274C304.185 602.86 303.72 602.652 303.144 602.652ZM308.984 607.419L309.098 608.01L309.25 607.388L310.901 602.132H311.548L313.18 607.343L313.357 608.067L313.503 607.4L314.913 602.132H315.7L313.7 609H313.053L311.288 603.554L311.206 603.179L311.123 603.56L309.39 609H308.743L306.75 602.132H307.53L308.984 607.419ZM321.476 609C321.4 608.784 321.351 608.465 321.33 608.042C321.063 608.389 320.723 608.657 320.308 608.848C319.898 609.034 319.462 609.127 319 609.127C318.34 609.127 317.805 608.943 317.395 608.575C316.988 608.207 316.785 607.741 316.785 607.178C316.785 606.51 317.062 605.981 317.617 605.591C318.175 605.202 318.952 605.007 319.946 605.007H321.324V604.227C321.324 603.736 321.171 603.351 320.867 603.071C320.566 602.788 320.126 602.646 319.546 602.646C319.017 602.646 318.579 602.781 318.232 603.052C317.885 603.323 317.712 603.649 317.712 604.03L316.95 604.023C316.95 603.478 317.204 603.006 317.712 602.608C318.22 602.206 318.844 602.005 319.584 602.005C320.35 602.005 320.953 602.197 321.394 602.583C321.838 602.963 322.066 603.497 322.079 604.182V607.432C322.079 608.097 322.149 608.594 322.289 608.924V609H321.476ZM319.089 608.454C319.597 608.454 320.05 608.331 320.448 608.086C320.85 607.84 321.142 607.513 321.324 607.102V605.591H319.965C319.208 605.6 318.615 605.739 318.188 606.01C317.761 606.277 317.547 606.645 317.547 607.115C317.547 607.5 317.689 607.819 317.972 608.073C318.26 608.327 318.632 608.454 319.089 608.454ZM327.284 602.779C327.123 602.75 326.952 602.735 326.77 602.735C326.296 602.735 325.894 602.868 325.564 603.135C325.238 603.397 325.005 603.78 324.866 604.284V609H324.11V602.132H324.853L324.866 603.224C325.268 602.411 325.913 602.005 326.802 602.005C327.013 602.005 327.181 602.032 327.303 602.087L327.284 602.779ZM328.059 605.502C328.059 604.436 328.296 603.588 328.77 602.957C329.248 602.322 329.895 602.005 330.712 602.005C331.639 602.005 332.345 602.371 332.832 603.103V599.25H333.587V609H332.876L332.845 608.086C332.358 608.78 331.643 609.127 330.699 609.127C329.908 609.127 329.269 608.81 328.782 608.175C328.3 607.536 328.059 606.675 328.059 605.591V605.502ZM328.827 605.636C328.827 606.512 329.002 607.204 329.354 607.711C329.705 608.215 330.2 608.467 330.839 608.467C331.774 608.467 332.438 608.054 332.832 607.229V604.004C332.438 603.111 331.778 602.665 330.852 602.665C330.213 602.665 329.715 602.917 329.36 603.42C329.004 603.92 328.827 604.658 328.827 605.636ZM339.7 607.254C339.7 606.878 339.548 606.575 339.243 606.347C338.943 606.118 338.488 605.94 337.878 605.813C337.269 605.682 336.795 605.534 336.457 605.369C336.122 605.2 335.873 604.995 335.708 604.753C335.547 604.512 335.466 604.22 335.466 603.877C335.466 603.336 335.693 602.889 336.146 602.538C336.598 602.183 337.178 602.005 337.885 602.005C338.651 602.005 339.264 602.195 339.726 602.576C340.191 602.953 340.424 603.446 340.424 604.055H339.662C339.662 603.653 339.493 603.319 339.154 603.052C338.82 602.786 338.397 602.652 337.885 602.652C337.385 602.652 336.983 602.764 336.679 602.989C336.378 603.209 336.228 603.497 336.228 603.852C336.228 604.195 336.353 604.461 336.603 604.652C336.856 604.838 337.316 605.009 337.98 605.166C338.649 605.323 339.148 605.49 339.478 605.667C339.812 605.845 340.06 606.059 340.221 606.309C340.382 606.558 340.462 606.861 340.462 607.216C340.462 607.796 340.227 608.259 339.757 608.606C339.292 608.953 338.682 609.127 337.929 609.127C337.129 609.127 336.48 608.934 335.98 608.549C335.485 608.16 335.238 607.669 335.238 607.077H336C336.029 607.521 336.215 607.868 336.558 608.118C336.905 608.363 337.362 608.486 337.929 608.486C338.458 608.486 338.886 608.369 339.211 608.137C339.537 607.904 339.7 607.61 339.7 607.254ZM350.866 605.636C350.866 606.706 350.629 607.557 350.155 608.188C349.681 608.814 349.044 609.127 348.244 609.127C347.288 609.127 346.564 608.771 346.073 608.061L346.042 609H345.331V599.25H346.086V603.128C346.568 602.379 347.284 602.005 348.231 602.005C349.044 602.005 349.685 602.316 350.155 602.938C350.629 603.556 350.866 604.417 350.866 605.521V605.636ZM350.104 605.502C350.104 604.597 349.928 603.899 349.577 603.408C349.226 602.913 348.731 602.665 348.092 602.665C347.605 602.665 347.193 602.786 346.854 603.027C346.515 603.264 346.259 603.613 346.086 604.074V607.172C346.467 608.035 347.14 608.467 348.104 608.467C348.731 608.467 349.22 608.219 349.571 607.724C349.926 607.229 350.104 606.488 350.104 605.502ZM354.649 607.908L356.655 602.132H357.474L354.541 610.168L354.389 610.523C354.012 611.357 353.43 611.774 352.643 611.774C352.461 611.774 352.266 611.744 352.059 611.685L352.053 611.057L352.446 611.095C352.819 611.095 353.119 611.002 353.348 610.815C353.58 610.633 353.777 610.318 353.938 609.87L354.274 608.943L351.685 602.132H352.516L354.649 607.908ZM367.484 609H361.695V608.416L364.862 604.823C365.387 604.218 365.751 603.719 365.954 603.325C366.157 602.932 366.259 602.549 366.259 602.176C366.259 601.592 366.087 601.131 365.745 600.792C365.402 600.45 364.93 600.278 364.329 600.278C363.707 600.278 363.203 600.477 362.818 600.875C362.438 601.273 362.247 601.789 362.247 602.424H361.492C361.492 601.903 361.608 601.429 361.841 601.002C362.078 600.575 362.412 600.24 362.844 599.999C363.28 599.754 363.775 599.631 364.329 599.631C365.175 599.631 365.836 599.853 366.31 600.297C366.788 600.742 367.027 601.347 367.027 602.113C367.027 602.544 366.891 603.016 366.621 603.528C366.354 604.04 365.882 604.679 365.205 605.445L362.628 608.359H367.484V609ZM90.1167 624H89.355V614.25H90.1167V624ZM94.8457 624.127C94.2617 624.127 93.7327 623.983 93.2588 623.695C92.7891 623.408 92.423 623.008 92.1606 622.496C91.8983 621.979 91.7671 621.402 91.7671 620.763V620.49C91.7671 619.83 91.894 619.235 92.1479 618.706C92.4061 618.177 92.7637 617.762 93.2207 617.462C93.6777 617.157 94.1729 617.005 94.7061 617.005C95.5397 617.005 96.1999 617.291 96.6865 617.862C97.1774 618.429 97.4229 619.205 97.4229 620.191V620.617H92.5225V620.763C92.5225 621.541 92.7446 622.191 93.189 622.711C93.6375 623.228 94.2004 623.486 94.8774 623.486C95.2837 623.486 95.6413 623.412 95.9502 623.264C96.2633 623.116 96.5469 622.879 96.8008 622.553L97.2769 622.915C96.7183 623.723 95.9079 624.127 94.8457 624.127ZM94.7061 617.652C94.1348 617.652 93.6523 617.862 93.2588 618.281C92.8695 618.7 92.6325 619.263 92.5479 619.969H96.6675V619.887C96.6463 619.227 96.458 618.689 96.1025 618.274C95.7471 617.86 95.2816 617.652 94.7061 617.652ZM100.952 622.953L103.041 617.132H103.821L101.257 624H100.641L98.064 617.132H98.8447L100.952 622.953ZM107.643 624.127C107.059 624.127 106.53 623.983 106.056 623.695C105.586 623.408 105.22 623.008 104.958 622.496C104.695 621.979 104.564 621.402 104.564 620.763V620.49C104.564 619.83 104.691 619.235 104.945 618.706C105.203 618.177 105.561 617.762 106.018 617.462C106.475 617.157 106.97 617.005 107.503 617.005C108.337 617.005 108.997 617.291 109.483 617.862C109.974 618.429 110.22 619.205 110.22 620.191V620.617H105.319V620.763C105.319 621.541 105.542 622.191 105.986 622.711C106.434 623.228 106.997 623.486 107.674 623.486C108.081 623.486 108.438 623.412 108.747 623.264C109.06 623.116 109.344 622.879 109.598 622.553L110.074 622.915C109.515 623.723 108.705 624.127 107.643 624.127ZM107.503 617.652C106.932 617.652 106.449 617.862 106.056 618.281C105.666 618.7 105.429 619.263 105.345 619.969H109.464V619.887C109.443 619.227 109.255 618.689 108.899 618.274C108.544 617.86 108.078 617.652 107.503 617.652ZM112.549 624H111.788V614.25H112.549V624ZM118.732 622.254C118.732 621.878 118.58 621.575 118.275 621.347C117.974 621.118 117.52 620.94 116.91 620.813C116.301 620.682 115.827 620.534 115.488 620.369C115.154 620.2 114.904 619.995 114.739 619.753C114.578 619.512 114.498 619.22 114.498 618.877C114.498 618.336 114.724 617.889 115.177 617.538C115.63 617.183 116.21 617.005 116.917 617.005C117.682 617.005 118.296 617.195 118.757 617.576C119.223 617.953 119.456 618.446 119.456 619.055H118.694C118.694 618.653 118.525 618.319 118.186 618.052C117.852 617.786 117.429 617.652 116.917 617.652C116.417 617.652 116.015 617.764 115.71 617.989C115.41 618.209 115.26 618.497 115.26 618.852C115.26 619.195 115.385 619.461 115.634 619.652C115.888 619.838 116.347 620.009 117.012 620.166C117.68 620.323 118.18 620.49 118.51 620.667C118.844 620.845 119.092 621.059 119.252 621.309C119.413 621.558 119.494 621.861 119.494 622.216C119.494 622.796 119.259 623.259 118.789 623.606C118.324 623.953 117.714 624.127 116.961 624.127C116.161 624.127 115.512 623.934 115.012 623.549C114.517 623.16 114.27 622.669 114.27 622.077H115.031C115.061 622.521 115.247 622.868 115.59 623.118C115.937 623.363 116.394 623.486 116.961 623.486C117.49 623.486 117.917 623.369 118.243 623.137C118.569 622.904 118.732 622.61 118.732 622.254ZM129.897 620.636C129.897 621.706 129.66 622.557 129.187 623.188C128.713 623.814 128.076 624.127 127.276 624.127C126.319 624.127 125.596 623.771 125.105 623.061L125.073 624H124.362V614.25H125.118V618.128C125.6 617.379 126.315 617.005 127.263 617.005C128.076 617.005 128.717 617.316 129.187 617.938C129.66 618.556 129.897 619.417 129.897 620.521V620.636ZM129.136 620.502C129.136 619.597 128.96 618.899 128.609 618.408C128.258 617.913 127.763 617.665 127.124 617.665C126.637 617.665 126.224 617.786 125.886 618.027C125.547 618.264 125.291 618.613 125.118 619.074V622.172C125.499 623.035 126.171 623.467 127.136 623.467C127.763 623.467 128.251 623.219 128.603 622.724C128.958 622.229 129.136 621.488 129.136 620.502ZM134.239 624.127C133.655 624.127 133.126 623.983 132.652 623.695C132.183 623.408 131.817 623.008 131.554 622.496C131.292 621.979 131.161 621.402 131.161 620.763V620.49C131.161 619.83 131.288 619.235 131.542 618.706C131.8 618.177 132.157 617.762 132.614 617.462C133.071 617.157 133.566 617.005 134.1 617.005C134.933 617.005 135.593 617.291 136.08 617.862C136.571 618.429 136.816 619.205 136.816 620.191V620.617H131.916V620.763C131.916 621.541 132.138 622.191 132.583 622.711C133.031 623.228 133.594 623.486 134.271 623.486C134.677 623.486 135.035 623.412 135.344 623.264C135.657 623.116 135.94 622.879 136.194 622.553L136.67 622.915C136.112 623.723 135.301 624.127 134.239 624.127ZM134.1 617.652C133.528 617.652 133.046 617.862 132.652 618.281C132.263 618.7 132.026 619.263 131.941 619.969H136.061V619.887C136.04 619.227 135.852 618.689 135.496 618.274C135.141 617.86 134.675 617.652 134.1 617.652ZM139.146 624H138.384V614.25H139.146V624ZM140.796 620.464C140.796 619.804 140.923 619.21 141.177 618.681C141.435 618.152 141.797 617.741 142.263 617.449C142.732 617.153 143.264 617.005 143.856 617.005C144.77 617.005 145.511 617.326 146.078 617.97C146.645 618.609 146.928 619.457 146.928 620.515V620.674C146.928 621.338 146.799 621.937 146.541 622.47C146.287 622.999 145.927 623.408 145.462 623.695C144.996 623.983 144.465 624.127 143.869 624.127C142.959 624.127 142.218 623.807 141.647 623.168C141.08 622.525 140.796 621.675 140.796 620.617V620.464ZM141.558 620.674C141.558 621.495 141.77 622.17 142.193 622.699C142.62 623.223 143.179 623.486 143.869 623.486C144.554 623.486 145.109 623.223 145.532 622.699C145.959 622.17 146.173 621.474 146.173 620.61V620.464C146.173 619.94 146.076 619.459 145.881 619.023C145.686 618.588 145.413 618.251 145.062 618.014C144.711 617.773 144.309 617.652 143.856 617.652C143.179 617.652 142.627 617.919 142.199 618.452C141.772 618.981 141.558 619.675 141.558 620.534V620.674ZM150.146 622.419L150.261 623.01L150.413 622.388L152.063 617.132H152.711L154.342 622.343L154.52 623.067L154.666 622.4L156.075 617.132H156.862L154.863 624H154.215L152.451 618.554L152.368 618.179L152.286 618.56L150.553 624H149.905L147.912 617.132H148.693L150.146 622.419ZM162.22 618.293C162.469 617.883 162.789 617.566 163.178 617.341C163.568 617.117 163.993 617.005 164.454 617.005C165.19 617.005 165.738 617.212 166.098 617.627C166.458 618.042 166.64 618.664 166.644 619.493V624H165.889V619.487C165.884 618.873 165.753 618.416 165.495 618.116C165.241 617.815 164.833 617.665 164.27 617.665C163.8 617.665 163.383 617.813 163.02 618.109C162.66 618.401 162.393 618.797 162.22 619.296V624H161.464V614.25H162.22V618.293ZM169.45 624H168.688V617.132H169.45V624ZM168.555 615.145C168.555 615.001 168.601 614.881 168.694 614.783C168.787 614.682 168.914 614.631 169.075 614.631C169.236 614.631 169.363 614.682 169.456 614.783C169.553 614.881 169.602 615.001 169.602 615.145C169.602 615.289 169.553 615.41 169.456 615.507C169.363 615.604 169.236 615.653 169.075 615.653C168.914 615.653 168.787 615.604 168.694 615.507C168.601 615.41 168.555 615.289 168.555 615.145ZM172.211 617.132L172.236 618.249C172.49 617.834 172.808 617.523 173.188 617.316C173.569 617.109 173.993 617.005 174.458 617.005C175.541 617.005 176.229 617.449 176.521 618.338C176.766 617.91 177.094 617.583 177.505 617.354C177.915 617.121 178.368 617.005 178.863 617.005C180.336 617.005 181.087 617.809 181.117 619.417V624H180.355V619.474C180.351 618.861 180.217 618.406 179.955 618.109C179.697 617.813 179.274 617.665 178.686 617.665C178.14 617.674 177.678 617.851 177.302 618.198C176.925 618.541 176.716 618.96 176.673 619.455V624H175.912V619.417C175.907 618.829 175.768 618.391 175.493 618.103C175.222 617.811 174.803 617.665 174.236 617.665C173.758 617.665 173.347 617.803 173.004 618.078C172.662 618.348 172.408 618.753 172.243 619.29V624H171.481V617.132H172.211ZM185.789 620.464C185.789 619.804 185.916 619.21 186.169 618.681C186.428 618.152 186.789 617.741 187.255 617.449C187.725 617.153 188.256 617.005 188.848 617.005C189.762 617.005 190.503 617.326 191.07 617.97C191.637 618.609 191.92 619.457 191.92 620.515V620.674C191.92 621.338 191.791 621.937 191.533 622.47C191.279 622.999 190.92 623.408 190.454 623.695C189.989 623.983 189.458 624.127 188.861 624.127C187.951 624.127 187.21 623.807 186.639 623.168C186.072 622.525 185.789 621.675 185.789 620.617V620.464ZM186.55 620.674C186.55 621.495 186.762 622.17 187.185 622.699C187.612 623.223 188.171 623.486 188.861 623.486C189.546 623.486 190.101 623.223 190.524 622.699C190.951 622.17 191.165 621.474 191.165 620.61V620.464C191.165 619.94 191.068 619.459 190.873 619.023C190.678 618.588 190.405 618.251 190.054 618.014C189.703 617.773 189.301 617.652 188.848 617.652C188.171 617.652 187.619 617.919 187.191 618.452C186.764 618.981 186.55 619.675 186.55 620.534V620.674ZM194.218 617.132L194.244 618.306C194.502 617.883 194.823 617.561 195.208 617.341C195.594 617.117 196.019 617.005 196.484 617.005C197.221 617.005 197.769 617.212 198.128 617.627C198.488 618.042 198.67 618.664 198.674 619.493V624H197.919V619.487C197.915 618.873 197.784 618.416 197.525 618.116C197.271 617.815 196.863 617.665 196.3 617.665C195.831 617.665 195.414 617.813 195.05 618.109C194.69 618.401 194.424 618.797 194.25 619.296V624H193.495V617.132H194.218ZM204.984 615.374V617.132H206.406V617.754H204.984V622.331C204.984 622.711 205.052 622.995 205.187 623.181C205.327 623.367 205.557 623.46 205.879 623.46C206.006 623.46 206.211 623.439 206.495 623.397L206.526 624.019C206.327 624.091 206.057 624.127 205.714 624.127C205.193 624.127 204.815 623.977 204.578 623.676C204.341 623.372 204.222 622.925 204.222 622.337V617.754H202.959V617.132H204.222V615.374H204.984ZM207.434 620.464C207.434 619.804 207.561 619.21 207.815 618.681C208.073 618.152 208.435 617.741 208.9 617.449C209.37 617.153 209.901 617.005 210.494 617.005C211.408 617.005 212.148 617.326 212.715 617.97C213.282 618.609 213.566 619.457 213.566 620.515V620.674C213.566 621.338 213.437 621.937 213.179 622.47C212.925 622.999 212.565 623.408 212.1 623.695C211.634 623.983 211.103 624.127 210.506 624.127C209.597 624.127 208.856 623.807 208.285 623.168C207.718 622.525 207.434 621.675 207.434 620.617V620.464ZM208.196 620.674C208.196 621.495 208.407 622.17 208.831 622.699C209.258 623.223 209.817 623.486 210.506 623.486C211.192 623.486 211.746 623.223 212.169 622.699C212.597 622.17 212.811 621.474 212.811 620.61V620.464C212.811 619.94 212.713 619.459 212.519 619.023C212.324 618.588 212.051 618.251 211.7 618.014C211.348 617.773 210.946 617.652 210.494 617.652C209.817 617.652 209.264 617.919 208.837 618.452C208.41 618.981 208.196 619.675 208.196 620.534V620.674ZM220.663 620.636C220.663 621.706 220.426 622.557 219.952 623.188C219.478 623.814 218.843 624.127 218.047 624.127C217.108 624.127 216.389 623.797 215.889 623.137V626.641H215.134V617.132H215.838L215.876 618.103C216.372 617.371 217.089 617.005 218.028 617.005C218.849 617.005 219.493 617.316 219.958 617.938C220.428 618.56 220.663 619.423 220.663 620.528V620.636ZM219.901 620.502C219.901 619.626 219.721 618.935 219.361 618.427C219.002 617.919 218.5 617.665 217.857 617.665C217.391 617.665 216.992 617.777 216.657 618.001C216.323 618.226 216.067 618.552 215.889 618.979V622.273C216.071 622.667 216.331 622.967 216.67 623.175C217.008 623.382 217.408 623.486 217.87 623.486C218.509 623.486 219.006 623.232 219.361 622.724C219.721 622.212 219.901 621.472 219.901 620.502ZM225.093 620.464C225.093 619.804 225.22 619.21 225.474 618.681C225.732 618.152 226.094 617.741 226.56 617.449C227.029 617.153 227.56 617.005 228.153 617.005C229.067 617.005 229.807 617.326 230.375 617.97C230.942 618.609 231.225 619.457 231.225 620.515V620.674C231.225 621.338 231.096 621.937 230.838 622.47C230.584 622.999 230.224 623.408 229.759 623.695C229.293 623.983 228.762 624.127 228.166 624.127C227.256 624.127 226.515 623.807 225.944 623.168C225.377 622.525 225.093 621.675 225.093 620.617V620.464ZM225.855 620.674C225.855 621.495 226.067 622.17 226.49 622.699C226.917 623.223 227.476 623.486 228.166 623.486C228.851 623.486 229.405 623.223 229.829 622.699C230.256 622.17 230.47 621.474 230.47 620.61V620.464C230.47 619.94 230.372 619.459 230.178 619.023C229.983 618.588 229.71 618.251 229.359 618.014C229.008 617.773 228.606 617.652 228.153 617.652C227.476 617.652 226.924 617.919 226.496 618.452C226.069 618.981 225.855 619.675 225.855 620.534V620.674ZM233.345 624V617.754H232.209V617.132H233.345V616.3C233.345 615.598 233.523 615.058 233.878 614.682C234.238 614.305 234.737 614.117 235.376 614.117C235.664 614.117 235.933 614.153 236.183 614.225L236.125 614.859C235.914 614.809 235.683 614.783 235.434 614.783C235.015 614.783 234.689 614.914 234.456 615.177C234.223 615.435 234.107 615.803 234.107 616.281V617.132H235.745V617.754H234.107V624H233.345ZM268.003 624V617.754H266.867V617.132H268.003V616.3C268.003 615.598 268.181 615.058 268.537 614.682C268.896 614.305 269.396 614.117 270.035 614.117C270.322 614.117 270.591 614.153 270.841 614.225L270.784 614.859C270.572 614.809 270.341 614.783 270.092 614.783C269.673 614.783 269.347 614.914 269.114 615.177C268.882 615.435 268.765 615.803 268.765 616.281V617.132H270.403V617.754H268.765V624H268.003ZM274.935 617.779C274.774 617.75 274.603 617.735 274.421 617.735C273.947 617.735 273.545 617.868 273.215 618.135C272.889 618.397 272.656 618.78 272.517 619.284V624H271.761V617.132H272.504L272.517 618.224C272.919 617.411 273.564 617.005 274.453 617.005C274.664 617.005 274.831 617.032 274.954 617.087L274.935 617.779ZM275.595 620.464C275.595 619.804 275.722 619.21 275.976 618.681C276.234 618.152 276.596 617.741 277.062 617.449C277.531 617.153 278.062 617.005 278.655 617.005C279.569 617.005 280.309 617.326 280.876 617.97C281.444 618.609 281.727 619.457 281.727 620.515V620.674C281.727 621.338 281.598 621.937 281.34 622.47C281.086 622.999 280.726 623.408 280.261 623.695C279.795 623.983 279.264 624.127 278.667 624.127C277.758 624.127 277.017 623.807 276.446 623.168C275.879 622.525 275.595 621.675 275.595 620.617V620.464ZM276.357 620.674C276.357 621.495 276.569 622.17 276.992 622.699C277.419 623.223 277.978 623.486 278.667 623.486C279.353 623.486 279.907 623.223 280.331 622.699C280.758 622.17 280.972 621.474 280.972 620.61V620.464C280.972 619.94 280.874 619.459 280.68 619.023C280.485 618.588 280.212 618.251 279.861 618.014C279.51 617.773 279.108 617.652 278.655 617.652C277.978 617.652 277.425 617.919 276.998 618.452C276.571 618.981 276.357 619.675 276.357 620.534V620.674ZM283.993 617.132L284.019 618.249C284.272 617.834 284.59 617.523 284.971 617.316C285.352 617.109 285.775 617.005 286.24 617.005C287.324 617.005 288.011 617.449 288.303 618.338C288.549 617.91 288.877 617.583 289.287 617.354C289.698 617.121 290.15 617.005 290.646 617.005C292.118 617.005 292.869 617.809 292.899 619.417V624H292.137V619.474C292.133 618.861 292 618.406 291.737 618.109C291.479 617.813 291.056 617.665 290.468 617.665C289.922 617.674 289.461 617.851 289.084 618.198C288.707 618.541 288.498 618.96 288.456 619.455V624H287.694V619.417C287.69 618.829 287.55 618.391 287.275 618.103C287.004 617.811 286.585 617.665 286.018 617.665C285.54 617.665 285.129 617.803 284.787 618.078C284.444 618.348 284.19 618.753 284.025 619.29V624H283.263V617.132H283.993ZM298.84 624H298.079V614.25H298.84V624ZM303.569 624.127C302.985 624.127 302.456 623.983 301.982 623.695C301.513 623.408 301.147 623.008 300.884 622.496C300.622 621.979 300.491 621.402 300.491 620.763V620.49C300.491 619.83 300.618 619.235 300.872 618.706C301.13 618.177 301.487 617.762 301.944 617.462C302.401 617.157 302.896 617.005 303.43 617.005C304.263 617.005 304.924 617.291 305.41 617.862C305.901 618.429 306.146 619.205 306.146 620.191V620.617H301.246V620.763C301.246 621.541 301.468 622.191 301.913 622.711C302.361 623.228 302.924 623.486 303.601 623.486C304.007 623.486 304.365 623.412 304.674 623.264C304.987 623.116 305.271 622.879 305.524 622.553L306 622.915C305.442 623.723 304.632 624.127 303.569 624.127ZM303.43 617.652C302.858 617.652 302.376 617.862 301.982 618.281C301.593 618.7 301.356 619.263 301.271 619.969H305.391V619.887C305.37 619.227 305.182 618.689 304.826 618.274C304.471 617.86 304.005 617.652 303.43 617.652ZM309.676 622.953L311.764 617.132H312.545L309.98 624H309.365L306.788 617.132H307.568L309.676 622.953ZM316.366 624.127C315.782 624.127 315.253 623.983 314.779 623.695C314.31 623.408 313.944 623.008 313.681 622.496C313.419 621.979 313.288 621.402 313.288 620.763V620.49C313.288 619.83 313.415 619.235 313.668 618.706C313.927 618.177 314.284 617.762 314.741 617.462C315.198 617.157 315.693 617.005 316.227 617.005C317.06 617.005 317.72 617.291 318.207 617.862C318.698 618.429 318.943 619.205 318.943 620.191V620.617H314.043V620.763C314.043 621.541 314.265 622.191 314.709 622.711C315.158 623.228 315.721 623.486 316.398 623.486C316.804 623.486 317.162 623.412 317.471 623.264C317.784 623.116 318.067 622.879 318.321 622.553L318.797 622.915C318.239 623.723 317.428 624.127 316.366 624.127ZM316.227 617.652C315.655 617.652 315.173 617.862 314.779 618.281C314.39 618.7 314.153 619.263 314.068 619.969H318.188V619.887C318.167 619.227 317.979 618.689 317.623 618.274C317.268 617.86 316.802 617.652 316.227 617.652ZM321.273 624H320.511V614.25H321.273V624ZM329.918 624H329.157V615.672L326.643 616.605V615.894L329.792 614.726H329.918V624Z" fill="white" fill-opacity="0.94"/>
<path d="M243.679 624H242.917V615.672L240.404 616.605V615.894L243.552 614.726H243.679V624ZM252.928 620.147C252.928 621.45 252.689 622.441 252.21 623.118C251.732 623.791 251.028 624.127 250.097 624.127C249.183 624.127 248.482 623.797 247.996 623.137C247.509 622.472 247.259 621.507 247.247 620.242V618.585C247.247 617.286 247.488 616.302 247.97 615.634C248.453 614.965 249.157 614.631 250.084 614.631C250.998 614.631 251.696 614.955 252.179 615.602C252.661 616.245 252.911 617.195 252.928 618.452V620.147ZM252.166 618.49C252.166 617.432 251.993 616.632 251.646 616.091C251.303 615.549 250.782 615.278 250.084 615.278C249.398 615.278 248.882 615.543 248.535 616.072C248.188 616.601 248.01 617.382 248.002 618.414V620.229C248.002 621.283 248.18 622.089 248.535 622.648C248.895 623.207 249.415 623.486 250.097 623.486C250.774 623.486 251.286 623.213 251.633 622.667C251.984 622.121 252.162 621.321 252.166 620.268V618.49ZM254.388 616.535C254.388 615.985 254.557 615.53 254.896 615.17C255.238 614.806 255.672 614.625 256.197 614.625C256.722 614.625 257.153 614.806 257.492 615.17C257.834 615.53 258.006 615.998 258.006 616.573V617.024C258.006 617.566 257.837 618.018 257.498 618.382C257.164 618.742 256.734 618.922 256.209 618.922C255.689 618.922 255.255 618.744 254.908 618.389C254.561 618.033 254.388 617.563 254.388 616.979V616.535ZM255.003 617.024C255.003 617.417 255.111 617.741 255.327 617.995C255.547 618.249 255.841 618.376 256.209 618.376C256.569 618.376 256.855 618.249 257.066 617.995C257.282 617.737 257.39 617.405 257.39 616.999V616.535C257.39 616.142 257.28 615.818 257.06 615.564C256.84 615.306 256.552 615.177 256.197 615.177C255.846 615.177 255.558 615.304 255.333 615.558C255.113 615.812 255.003 616.15 255.003 616.573V617.024ZM259.041 621.734C259.041 621.184 259.21 620.729 259.548 620.369C259.891 620.009 260.323 619.83 260.843 619.83C261.364 619.83 261.795 620.009 262.138 620.369C262.485 620.725 262.659 621.194 262.659 621.778V622.229C262.659 622.779 262.487 623.234 262.145 623.594C261.806 623.953 261.376 624.133 260.856 624.133C260.335 624.133 259.902 623.956 259.555 623.6C259.212 623.24 259.041 622.773 259.041 622.197V621.734ZM259.65 622.229C259.65 622.627 259.758 622.953 259.974 623.207C260.194 623.46 260.488 623.587 260.856 623.587C261.22 623.587 261.508 623.46 261.719 623.207C261.935 622.948 262.043 622.612 262.043 622.197V621.734C262.043 621.328 261.933 621.002 261.713 620.756C261.497 620.507 261.207 620.382 260.843 620.382C260.488 620.382 260.2 620.507 259.98 620.756C259.76 621.006 259.65 621.34 259.65 621.759V622.229ZM256.451 623.232L255.975 622.927L260.488 615.704L260.964 616.008L256.451 623.232Z" fill="#2CB36A" fill-opacity="0.87"/>
</svg>
