<svg width="411" height="731" viewBox="0 0 411 731" fill="none" xmlns="http://www.w3.org/2000/svg">
<rect width="411" height="731" fill="#1F2133" fill-opacity="0.74"/>
<rect x="165" y="201" width="73" height="49" fill="#C4C4C4"/>
<path d="M202.527 221.708H199.479V230H197.428V221.708H194.42V220.047H202.527V221.708ZM208.29 230H206.314V222.385L203.956 223.116V221.51L208.078 220.033H208.29V230Z" fill="#4F3BCD"/>
<rect x="195" y="325" width="62" height="37" fill="#C4C4C4"/>
<path d="M226.877 339.708H223.828V348H221.777V339.708H218.769V338.047H226.877V339.708ZM234.663 348H227.841V346.646L231.06 343.215C231.502 342.732 231.828 342.31 232.038 341.95C232.252 341.59 232.359 341.248 232.359 340.925C232.359 340.483 232.247 340.136 232.024 339.886C231.801 339.631 231.482 339.503 231.067 339.503C230.62 339.503 230.267 339.658 230.007 339.968C229.752 340.273 229.625 340.676 229.625 341.178H227.642C227.642 340.572 227.786 340.018 228.073 339.517C228.365 339.015 228.775 338.623 229.303 338.341C229.832 338.054 230.431 337.91 231.101 337.91C232.127 337.91 232.922 338.156 233.487 338.648C234.057 339.141 234.341 339.836 234.341 340.733C234.341 341.226 234.214 341.727 233.959 342.237C233.703 342.748 233.266 343.342 232.646 344.021L230.383 346.407H234.663V348Z" fill="#2CB36A" fill-opacity="0.87"/>
<rect x="266" y="325" width="62" height="37" fill="#C4C4C4"/>
<path d="M297.877 339.708H294.828V348H292.777V339.708H289.769V338.047H297.877V339.708ZM305.663 348H298.841V346.646L302.06 343.215C302.502 342.732 302.828 342.31 303.038 341.95C303.252 341.59 303.359 341.248 303.359 340.925C303.359 340.483 303.247 340.136 303.024 339.886C302.801 339.631 302.482 339.503 302.067 339.503C301.62 339.503 301.267 339.658 301.007 339.968C300.752 340.273 300.625 340.676 300.625 341.178H298.642C298.642 340.572 298.786 340.018 299.073 339.517C299.365 339.015 299.775 338.623 300.303 338.341C300.832 338.054 301.431 337.91 302.101 337.91C303.127 337.91 303.922 338.156 304.487 338.648C305.057 339.141 305.341 339.836 305.341 340.733C305.341 341.226 305.214 341.727 304.959 342.237C304.703 342.748 304.266 343.342 303.646 344.021L301.383 346.407H305.663V348Z" fill="#2CB36A" fill-opacity="0.87"/>
<rect x="337" y="325" width="62" height="37" fill="#C4C4C4"/>
<path d="M368.877 339.708H365.828V348H363.777V339.708H360.769V338.047H368.877V339.708ZM376.663 348H369.841V346.646L373.06 343.215C373.502 342.732 373.828 342.31 374.038 341.95C374.252 341.59 374.359 341.248 374.359 340.925C374.359 340.483 374.247 340.136 374.024 339.886C373.801 339.631 373.482 339.503 373.067 339.503C372.62 339.503 372.267 339.658 372.007 339.968C371.752 340.273 371.625 340.676 371.625 341.178H369.642C369.642 340.572 369.786 340.018 370.073 339.517C370.365 339.015 370.775 338.623 371.303 338.341C371.832 338.054 372.431 337.91 373.101 337.91C374.127 337.91 374.922 338.156 375.487 338.648C376.057 339.141 376.341 339.836 376.341 340.733C376.341 341.226 376.214 341.727 375.959 342.237C375.703 342.748 375.266 343.342 374.646 344.021L372.383 346.407H376.663V348Z" fill="#2CB36A" fill-opacity="0.87"/>
<rect x="194" y="439" width="62" height="37" fill="#C4C4C4"/>
<path d="M225.877 453.708H222.828V462H220.777V453.708H217.769V452.047H225.877V453.708ZM228.85 456.148H229.903C230.404 456.148 230.776 456.023 231.017 455.772C231.259 455.522 231.38 455.189 231.38 454.774C231.38 454.373 231.259 454.061 231.017 453.838C230.78 453.615 230.452 453.503 230.033 453.503C229.655 453.503 229.338 453.608 229.083 453.817C228.827 454.022 228.7 454.291 228.7 454.624H226.724C226.724 454.104 226.863 453.64 227.141 453.229C227.424 452.815 227.816 452.491 228.317 452.259C228.823 452.026 229.379 451.91 229.985 451.91C231.038 451.91 231.863 452.163 232.46 452.669C233.057 453.17 233.355 453.863 233.355 454.747C233.355 455.203 233.216 455.622 232.938 456.005C232.66 456.388 232.296 456.682 231.844 456.887C232.405 457.087 232.822 457.388 233.095 457.789C233.373 458.19 233.512 458.664 233.512 459.211C233.512 460.095 233.189 460.804 232.542 461.337C231.899 461.87 231.047 462.137 229.985 462.137C228.992 462.137 228.178 461.875 227.545 461.351C226.916 460.826 226.601 460.134 226.601 459.272H228.577C228.577 459.646 228.716 459.951 228.994 460.188C229.276 460.425 229.623 460.544 230.033 460.544C230.502 460.544 230.869 460.421 231.133 460.175C231.402 459.924 231.537 459.594 231.537 459.184C231.537 458.19 230.99 457.693 229.896 457.693H228.85V456.148Z" fill="#D13333"/>
<rect x="278" y="439" width="62" height="37" fill="#C4C4C4"/>
<path d="M309.877 453.708H306.828V462H304.777V453.708H301.769V452.047H309.877V453.708ZM312.85 456.148H313.903C314.404 456.148 314.776 456.023 315.017 455.772C315.259 455.522 315.38 455.189 315.38 454.774C315.38 454.373 315.259 454.061 315.017 453.838C314.78 453.615 314.452 453.503 314.033 453.503C313.655 453.503 313.338 453.608 313.083 453.817C312.827 454.022 312.7 454.291 312.7 454.624H310.724C310.724 454.104 310.863 453.64 311.141 453.229C311.424 452.815 311.816 452.491 312.317 452.259C312.823 452.026 313.379 451.91 313.985 451.91C315.038 451.91 315.863 452.163 316.46 452.669C317.057 453.17 317.355 453.863 317.355 454.747C317.355 455.203 317.216 455.622 316.938 456.005C316.66 456.388 316.296 456.682 315.844 456.887C316.405 457.087 316.822 457.388 317.095 457.789C317.373 458.19 317.512 458.664 317.512 459.211C317.512 460.095 317.189 460.804 316.542 461.337C315.899 461.87 315.047 462.137 313.985 462.137C312.992 462.137 312.178 461.875 311.545 461.351C310.916 460.826 310.601 460.134 310.601 459.272H312.577C312.577 459.646 312.716 459.951 312.994 460.188C313.276 460.425 313.623 460.544 314.033 460.544C314.502 460.544 314.869 460.421 315.133 460.175C315.402 459.924 315.537 459.594 315.537 459.184C315.537 458.19 314.99 457.693 313.896 457.693H312.85V456.148Z" fill="#D13333"/>
<rect x="124" y="326" width="62" height="37" fill="#C4C4C4"/>
<path d="M155.877 340.708H152.828V349H150.777V340.708H147.769V339.047H155.877V340.708ZM163.663 349H156.841V347.646L160.06 344.215C160.502 343.732 160.828 343.31 161.038 342.95C161.252 342.59 161.359 342.248 161.359 341.925C161.359 341.483 161.247 341.136 161.024 340.886C160.801 340.631 160.482 340.503 160.067 340.503C159.62 340.503 159.267 340.658 159.007 340.968C158.752 341.273 158.625 341.676 158.625 342.178H156.642C156.642 341.572 156.786 341.018 157.073 340.517C157.365 340.015 157.775 339.623 158.303 339.341C158.832 339.054 159.431 338.91 160.101 338.91C161.127 338.91 161.922 339.156 162.487 339.648C163.057 340.141 163.341 340.836 163.341 341.733C163.341 342.226 163.214 342.727 162.959 343.237C162.703 343.748 162.266 344.342 161.646 345.021L159.383 347.407H163.663V349Z" fill="#2CB36A" fill-opacity="0.87"/>
<rect x="110" y="439" width="62" height="37" fill="#C4C4C4"/>
<path d="M141.877 453.708H138.828V462H136.777V453.708H133.769V452.047H141.877V453.708ZM144.85 456.148H145.903C146.404 456.148 146.776 456.023 147.017 455.772C147.259 455.522 147.38 455.189 147.38 454.774C147.38 454.373 147.259 454.061 147.017 453.838C146.78 453.615 146.452 453.503 146.033 453.503C145.655 453.503 145.338 453.608 145.083 453.817C144.827 454.022 144.7 454.291 144.7 454.624H142.724C142.724 454.104 142.863 453.64 143.141 453.229C143.424 452.815 143.816 452.491 144.317 452.259C144.823 452.026 145.379 451.91 145.985 451.91C147.038 451.91 147.863 452.163 148.46 452.669C149.057 453.17 149.355 453.863 149.355 454.747C149.355 455.203 149.216 455.622 148.938 456.005C148.66 456.388 148.296 456.682 147.844 456.887C148.405 457.087 148.822 457.388 149.095 457.789C149.373 458.19 149.512 458.664 149.512 459.211C149.512 460.095 149.189 460.804 148.542 461.337C147.899 461.87 147.047 462.137 145.985 462.137C144.992 462.137 144.178 461.875 143.545 461.351C142.916 460.826 142.601 460.134 142.601 459.272H144.577C144.577 459.646 144.716 459.951 144.994 460.188C145.276 460.425 145.623 460.544 146.033 460.544C146.502 460.544 146.869 460.421 147.133 460.175C147.402 459.924 147.537 459.594 147.537 459.184C147.537 458.19 146.99 457.693 145.896 457.693H144.85V456.148Z" fill="#D13333"/>
<rect x="102" y="552" width="62" height="37" fill="#C4C4C4"/>
<path d="M133.877 566.708H130.828V575H128.777V566.708H125.769V565.047H133.877V566.708ZM140.685 571.254H141.813V572.847H140.685V575H138.71V572.847H134.629L134.54 571.603L138.689 565.047H140.685V571.254ZM136.508 571.254H138.71V567.74L138.58 567.966L136.508 571.254Z" fill="#93681C"/>
<rect x="53" y="326" width="62" height="36" fill="#C4C4C4"/>
<path d="M84.8766 340.708H81.8278V349H79.777V340.708H76.7692V339.047H84.8766V340.708ZM92.6628 349H85.8405V347.646L89.0602 344.215C89.5023 343.732 89.8281 343.31 90.0378 342.95C90.252 342.59 90.3591 342.248 90.3591 341.925C90.3591 341.483 90.2474 341.136 90.0241 340.886C89.8008 340.631 89.4818 340.503 89.0671 340.503C88.6205 340.503 88.2673 340.658 88.0075 340.968C87.7523 341.273 87.6247 341.676 87.6247 342.178H85.6423C85.6423 341.572 85.7858 341.018 86.0729 340.517C86.3646 340.015 86.7747 339.623 87.3034 339.341C87.832 339.054 88.4313 338.91 89.1012 338.91C90.1266 338.91 90.9219 339.156 91.487 339.648C92.0566 340.141 92.3415 340.836 92.3415 341.733C92.3415 342.226 92.2139 342.727 91.9587 343.237C91.7035 343.748 91.266 344.342 90.6462 345.021L88.3835 347.407H92.6628V349Z" fill="#2CB36A" fill-opacity="0.87"/>
<rect x="26" y="439" width="62" height="37" fill="#C4C4C4"/>
<path d="M57.8766 453.708H54.8278V462H52.777V453.708H49.7692V452.047H57.8766V453.708ZM60.8503 456.148H61.903C62.4043 456.148 62.7757 456.023 63.0173 455.772C63.2588 455.522 63.3796 455.189 63.3796 454.774C63.3796 454.373 63.2588 454.061 63.0173 453.838C62.7803 453.615 62.4522 453.503 62.0329 453.503C61.6546 453.503 61.3379 453.608 61.0827 453.817C60.8275 454.022 60.6999 454.291 60.6999 454.624H58.7243C58.7243 454.104 58.8633 453.64 59.1413 453.229C59.4238 452.815 59.8158 452.491 60.3171 452.259C60.8229 452.026 61.3789 451.91 61.985 451.91C63.0378 451.91 63.8626 452.163 64.4596 452.669C65.0566 453.17 65.3552 453.863 65.3552 454.747C65.3552 455.203 65.2162 455.622 64.9382 456.005C64.6602 456.388 64.2956 456.682 63.8444 456.887C64.405 457.087 64.8219 457.388 65.0954 457.789C65.3734 458.19 65.5124 458.664 65.5124 459.211C65.5124 460.095 65.1888 460.804 64.5417 461.337C63.8991 461.87 63.0469 462.137 61.985 462.137C60.9915 462.137 60.1781 461.875 59.5446 461.351C58.9157 460.826 58.6012 460.134 58.6012 459.272H60.5768C60.5768 459.646 60.7158 459.951 60.9938 460.188C61.2764 460.425 61.6227 460.544 62.0329 460.544C62.5023 460.544 62.8691 460.421 63.1335 460.175C63.4024 459.924 63.5368 459.594 63.5368 459.184C63.5368 458.19 62.9899 457.693 61.8962 457.693H60.8503V456.148Z" fill="#D13333"/>
<rect x="12" y="552" width="62" height="37" fill="#C4C4C4"/>
<path d="M43.8766 566.708H40.8278V575H38.777V566.708H35.7692V565.047H43.8766V566.708ZM50.6852 571.254H51.8132V572.847H50.6852V575H48.7096V572.847H44.6286L44.5397 571.603L48.6891 565.047H50.6852V571.254ZM46.5085 571.254H48.7096V567.74L48.5798 567.966L46.5085 571.254Z" fill="#93681C"/>
<path d="M136.325 150.678H131.667V163H131.192V150.678H126.534V150.203H136.325V150.678ZM138.909 163H138.435V153.49H138.909V163ZM138.188 150.52C138.188 150.385 138.235 150.271 138.329 150.177C138.423 150.077 138.537 150.027 138.672 150.027C138.807 150.027 138.921 150.077 139.015 150.177C139.114 150.271 139.164 150.385 139.164 150.52C139.164 150.654 139.114 150.769 139.015 150.862C138.921 150.956 138.807 151.003 138.672 151.003C138.537 151.003 138.423 150.956 138.329 150.862C138.235 150.769 138.188 150.654 138.188 150.52ZM145.448 163.176C144.681 163.176 143.975 162.971 143.33 162.561C142.691 162.145 142.19 161.576 141.827 160.855C141.464 160.135 141.282 159.335 141.282 158.456V158.061C141.282 157.182 141.458 156.376 141.81 155.644C142.161 154.911 142.645 154.34 143.26 153.93C143.875 153.52 144.546 153.314 145.272 153.314C146.333 153.314 147.2 153.692 147.874 154.448C148.548 155.204 148.885 156.197 148.885 157.428V157.929H141.757V158.447C141.757 159.221 141.918 159.938 142.24 160.601C142.568 161.257 143.017 161.772 143.585 162.147C144.159 162.522 144.78 162.71 145.448 162.71C146.087 162.71 146.629 162.604 147.074 162.394C147.525 162.177 147.924 161.846 148.27 161.4L148.604 161.638C147.895 162.663 146.843 163.176 145.448 163.176ZM145.272 153.789C144.347 153.789 143.562 154.135 142.917 154.826C142.272 155.512 141.895 156.388 141.783 157.454H148.41V157.34C148.41 156.695 148.272 156.098 147.997 155.547C147.728 154.99 147.353 154.56 146.872 154.255C146.397 153.944 145.864 153.789 145.272 153.789ZM155.292 153.833L154.677 153.78C153.868 153.78 153.191 154.044 152.646 154.571C152.102 155.093 151.744 155.825 151.574 156.769V163H151.1V153.49H151.574V155.468C151.832 154.806 152.219 154.281 152.734 153.895C153.25 153.508 153.897 153.314 154.677 153.314C154.952 153.314 155.175 153.347 155.345 153.411L155.292 153.833ZM163.141 160.249L163.659 162.297L166.445 153.49H166.929L169.697 162.297L170.233 160.249L172.167 153.49H172.721L169.952 163H169.478L167.131 155.854L166.683 154.149L166.199 155.854L163.888 163H163.413L160.653 153.49H161.198L163.141 160.249ZM174.338 158.061C174.338 157.152 174.511 156.338 174.856 155.617C175.208 154.891 175.7 154.325 176.333 153.921C176.972 153.517 177.692 153.314 178.495 153.314C179.292 153.314 180.007 153.511 180.64 153.903C181.272 154.296 181.765 154.853 182.116 155.573C182.474 156.294 182.655 157.105 182.661 158.008V158.43C182.661 159.344 182.488 160.161 182.143 160.882C181.797 161.603 181.305 162.165 180.666 162.569C180.033 162.974 179.315 163.176 178.513 163.176C177.71 163.176 176.989 162.977 176.351 162.578C175.718 162.18 175.226 161.623 174.874 160.908C174.522 160.188 174.344 159.379 174.338 158.482V158.061ZM174.812 158.43C174.812 159.221 174.968 159.947 175.278 160.609C175.595 161.266 176.031 161.778 176.588 162.147C177.15 162.517 177.792 162.701 178.513 162.701C179.597 162.701 180.479 162.294 181.158 161.479C181.844 160.665 182.187 159.616 182.187 158.333V158.061C182.187 157.281 182.028 156.561 181.712 155.898C181.396 155.236 180.956 154.721 180.394 154.352C179.837 153.977 179.204 153.789 178.495 153.789C177.411 153.789 176.526 154.202 175.841 155.028C175.155 155.854 174.812 156.895 174.812 158.148V158.43ZM189.165 153.833L188.55 153.78C187.741 153.78 187.064 154.044 186.52 154.571C185.975 155.093 185.617 155.825 185.447 156.769V163H184.973V153.49H185.447V155.468C185.705 154.806 186.092 154.281 186.607 153.895C187.123 153.508 187.771 153.314 188.55 153.314C188.825 153.314 189.048 153.347 189.218 153.411L189.165 153.833ZM192.874 157.858L192.856 157.876L191.477 159.062V163H191.002V149.5H191.477V158.544L192.593 157.489L196.917 153.49H197.594L193.226 157.542L197.866 163H197.251L192.874 157.858ZM200.116 163H199.642V153.49H200.116V163ZM199.396 150.52C199.396 150.385 199.442 150.271 199.536 150.177C199.63 150.077 199.744 150.027 199.879 150.027C200.014 150.027 200.128 150.077 200.222 150.177C200.321 150.271 200.371 150.385 200.371 150.52C200.371 150.654 200.321 150.769 200.222 150.862C200.128 150.956 200.014 151.003 199.879 151.003C199.744 151.003 199.63 150.956 199.536 150.862C199.442 150.769 199.396 150.654 199.396 150.52ZM203.711 155.705C204.021 154.967 204.479 154.384 205.082 153.956C205.686 153.528 206.354 153.314 207.086 153.314C208.105 153.314 208.861 153.604 209.354 154.185C209.852 154.759 210.104 155.629 210.109 156.795V163H209.635V156.777C209.629 155.758 209.421 155.005 209.011 154.519C208.601 154.026 207.95 153.78 207.06 153.78C206.239 153.78 205.527 154.073 204.924 154.659C204.326 155.239 203.922 155.989 203.711 156.909V163H203.236V153.49H203.711V155.705ZM212.649 158.148C212.649 156.631 212.969 155.447 213.607 154.598C214.246 153.742 215.122 153.314 216.235 153.314C216.944 153.314 217.574 153.479 218.125 153.807C218.676 154.129 219.118 154.604 219.452 155.23V153.49H219.936V162.833C219.936 164.087 219.613 165.065 218.969 165.769C218.324 166.478 217.448 166.832 216.341 166.832C215.702 166.832 215.116 166.694 214.583 166.419C214.056 166.144 213.604 165.748 213.229 165.232L213.563 164.916C213.933 165.385 214.337 165.742 214.776 165.988C215.216 166.24 215.731 166.366 216.323 166.366C217.302 166.366 218.063 166.067 218.608 165.47C219.153 164.878 219.435 164.04 219.452 162.956V161.497C219.124 162.036 218.679 162.452 218.116 162.745C217.56 163.032 216.927 163.176 216.218 163.176C215.116 163.176 214.246 162.739 213.607 161.866C212.969 160.993 212.649 159.795 212.649 158.271V158.148ZM213.133 158.333C213.133 159.692 213.402 160.762 213.941 161.541C214.48 162.314 215.236 162.701 216.209 162.701C217.012 162.701 217.694 162.517 218.257 162.147C218.819 161.772 219.218 161.248 219.452 160.574V156.259C218.937 154.612 217.861 153.789 216.227 153.789C215.248 153.789 214.486 154.173 213.941 154.94C213.402 155.708 213.133 156.839 213.133 158.333ZM234.552 158.333C234.552 159.815 234.232 160.993 233.594 161.866C232.955 162.739 232.085 163.176 230.983 163.176C230.269 163.176 229.63 163.029 229.067 162.736C228.505 162.438 228.062 162.024 227.74 161.497V163H227.266V149.5H227.74V155.222C228.074 154.595 228.514 154.12 229.059 153.798C229.609 153.476 230.245 153.314 230.966 153.314C232.079 153.314 232.955 153.742 233.594 154.598C234.232 155.447 234.552 156.643 234.552 158.184V158.333ZM234.06 158.148C234.06 156.783 233.787 155.717 233.242 154.949C232.703 154.176 231.947 153.789 230.975 153.789C230.178 153.789 229.501 153.994 228.944 154.404C228.394 154.814 227.992 155.424 227.74 156.232V160.592C227.992 161.266 228.394 161.787 228.944 162.156C229.501 162.52 230.184 162.701 230.992 162.701C231.971 162.701 232.727 162.312 233.26 161.532C233.793 160.753 234.06 159.625 234.06 158.148ZM240.563 163.176C239.796 163.176 239.09 162.971 238.445 162.561C237.807 162.145 237.306 161.576 236.942 160.855C236.579 160.135 236.397 159.335 236.397 158.456V158.061C236.397 157.182 236.573 156.376 236.925 155.644C237.276 154.911 237.76 154.34 238.375 153.93C238.99 153.52 239.661 153.314 240.388 153.314C241.448 153.314 242.315 153.692 242.989 154.448C243.663 155.204 244 156.197 244 157.428V157.929H236.872V158.447C236.872 159.221 237.033 159.938 237.355 160.601C237.684 161.257 238.132 161.772 238.7 162.147C239.274 162.522 239.896 162.71 240.563 162.71C241.202 162.71 241.744 162.604 242.189 162.394C242.641 162.177 243.039 161.846 243.385 161.4L243.719 161.638C243.01 162.663 241.958 163.176 240.563 163.176ZM240.388 153.789C239.462 153.789 238.677 154.135 238.032 154.826C237.388 155.512 237.01 156.388 236.898 157.454H243.525V157.34C243.525 156.695 243.388 156.098 243.112 155.547C242.843 154.99 242.468 154.56 241.987 154.255C241.513 153.944 240.979 153.789 240.388 153.789ZM246.804 163H246.329V149.5H246.804V163ZM249.203 158.061C249.203 157.152 249.376 156.338 249.722 155.617C250.073 154.891 250.565 154.325 251.198 153.921C251.837 153.517 252.558 153.314 253.36 153.314C254.157 153.314 254.872 153.511 255.505 153.903C256.138 154.296 256.63 154.853 256.981 155.573C257.339 156.294 257.521 157.105 257.526 158.008V158.43C257.526 159.344 257.354 160.161 257.008 160.882C256.662 161.603 256.17 162.165 255.531 162.569C254.898 162.974 254.181 163.176 253.378 163.176C252.575 163.176 251.854 162.977 251.216 162.578C250.583 162.18 250.091 161.623 249.739 160.908C249.388 160.188 249.209 159.379 249.203 158.482V158.061ZM249.678 158.43C249.678 159.221 249.833 159.947 250.144 160.609C250.46 161.266 250.896 161.778 251.453 162.147C252.016 162.517 252.657 162.701 253.378 162.701C254.462 162.701 255.344 162.294 256.023 161.479C256.709 160.665 257.052 159.616 257.052 158.333V158.061C257.052 157.281 256.894 156.561 256.577 155.898C256.261 155.236 255.821 154.721 255.259 154.352C254.702 153.977 254.069 153.789 253.36 153.789C252.276 153.789 251.392 154.202 250.706 155.028C250.021 155.854 249.678 156.895 249.678 158.148V158.43ZM261.543 160.249L262.062 162.297L264.848 153.49H265.331L268.1 162.297L268.636 160.249L270.569 153.49H271.123L268.354 163H267.88L265.533 155.854L265.085 154.149L264.602 155.854L262.29 163H261.815L259.056 153.49H259.601L261.543 160.249Z" fill="white"/>
<path d="M68 325.212C68 325.212 68 307.712 68 261.712C68 215.712 163.5 224.5 163.5 224.5" stroke="#2CB36A" stroke-opacity="0.4" stroke-width="2"/>
<path d="M46 439C46 439 46 399.758 46 302.147C46 204.536 165 224.73 165 224.73" stroke="#D13333"/>
<path d="M21 553.905C21 553.905 21 494.134 21 345.458C21 196.781 163 224.5 163 224.5" stroke="#F7C978" stroke-width="1.2"/>
<path d="M154 233.5C157.5 230.5 162.4 222.5 154 214.5L165 224.5L154 233.5Z" stroke="#4F3BCD" stroke-width="2"/>
<path d="M84.5567 267.223C83.608 271.777 81.7641 276.198 81 280.783" stroke="#2CB36A" stroke-opacity="0.87" stroke-linecap="round" stroke-linejoin="round"/>
<path d="M91.4478 268.334C88.7266 270.223 88.0233 275.084 88.1134 278.239C88.1291 278.786 89.1544 278.56 89.5583 278.56C90.8978 278.56 91.4372 276.774 91.9047 275.769C92.5828 274.311 93.0073 272.799 93.6707 271.348C94.0193 270.585 94.5599 269.615 94.5599 268.779C94.5599 267.737 92.4797 268.041 91.8924 268.334" stroke="#2CB36A" stroke-opacity="0.87" stroke-linecap="round" stroke-linejoin="round"/>
<path d="M104.119 265C102.119 269.513 99.8313 273.987 97.3386 278.239C96.2103 280.163 95.4901 282.52 93.8931 284.117" stroke="#2CB36A" stroke-opacity="0.87" stroke-linecap="round" stroke-linejoin="round"/>
<path d="M97.4496 270.335C97.4496 270.705 97.1797 272.598 97.499 272.953C97.87 273.365 98.5611 273.382 98.5611 272.768C98.5611 271.739 98.5611 270.71 98.5611 269.68C98.5611 268.502 98.1996 270.372 97.8942 270.78" stroke="#2CB36A" stroke-opacity="0.87" stroke-linecap="round" stroke-linejoin="round"/>
<path d="M100.784 276.781C100.566 277.236 99.6227 279.017 100.167 279.622C100.328 279.802 100.99 279.721 101.006 279.449C101.034 278.973 101.684 277.893 100.784 277.893" stroke="#2CB36A" stroke-opacity="0.87" stroke-linecap="round" stroke-linejoin="round"/>
<rect x="29" y="58" width="354" height="30" fill="#C4C4C4" fill-opacity="0.04"/>
<path d="M108.265 73.8232H105.259V79H103.562V66.2031H107.799C109.24 66.2031 110.348 66.5312 111.121 67.1875C111.9 67.8438 112.29 68.7988 112.29 70.0527C112.29 70.8496 112.073 71.5439 111.64 72.1357C111.212 72.7275 110.614 73.1699 109.847 73.4629L112.853 78.8945V79H111.042L108.265 73.8232ZM105.259 72.4434H107.852C108.689 72.4434 109.354 72.2266 109.847 71.793C110.345 71.3594 110.594 70.7793 110.594 70.0527C110.594 69.2617 110.356 68.6553 109.882 68.2334C109.413 67.8115 108.733 67.5977 107.843 67.5918H105.259V72.4434ZM118.354 79.1758C117.065 79.1758 116.017 78.7539 115.208 77.9102C114.399 77.0605 113.995 75.9268 113.995 74.5088V74.21C113.995 73.2666 114.174 72.4258 114.531 71.6875C114.895 70.9434 115.398 70.3633 116.043 69.9473C116.693 69.5254 117.396 69.3145 118.152 69.3145C119.389 69.3145 120.35 69.7217 121.035 70.5361C121.721 71.3506 122.063 72.5166 122.063 74.0342V74.7109H115.621C115.645 75.6484 115.917 76.4072 116.438 76.9873C116.966 77.5615 117.634 77.8486 118.442 77.8486C119.017 77.8486 119.503 77.7314 119.901 77.4971C120.3 77.2627 120.648 76.9521 120.947 76.5654L121.94 77.3389C121.144 78.5635 119.948 79.1758 118.354 79.1758ZM118.152 70.6504C117.496 70.6504 116.945 70.8906 116.5 71.3711C116.055 71.8457 115.779 72.5137 115.674 73.375H120.438V73.252C120.391 72.4258 120.168 71.7871 119.77 71.3359C119.371 70.8789 118.832 70.6504 118.152 70.6504ZM124.753 79V70.7471H123.25V69.4902H124.753V68.5146C124.753 67.4951 125.025 66.707 125.57 66.1504C126.115 65.5938 126.886 65.3154 127.882 65.3154C128.257 65.3154 128.629 65.3652 128.998 65.4648L128.91 66.7832C128.635 66.7305 128.342 66.7041 128.031 66.7041C127.504 66.7041 127.097 66.8594 126.81 67.1699C126.522 67.4746 126.379 67.9141 126.379 68.4883V69.4902H128.409V70.7471H126.379V79H124.753ZM131.011 79V70.7471H129.508V69.4902H131.011V68.5146C131.011 67.4951 131.283 66.707 131.828 66.1504C132.373 65.5938 133.144 65.3154 134.14 65.3154C134.515 65.3154 134.887 65.3652 135.256 65.4648L135.168 66.7832C134.893 66.7305 134.6 66.7041 134.289 66.7041C133.762 66.7041 133.354 66.8594 133.067 67.1699C132.78 67.4746 132.637 67.9141 132.637 68.4883V69.4902H134.667V70.7471H132.637V79H131.011ZM140.204 79.1758C138.915 79.1758 137.866 78.7539 137.058 77.9102C136.249 77.0605 135.845 75.9268 135.845 74.5088V74.21C135.845 73.2666 136.023 72.4258 136.381 71.6875C136.744 70.9434 137.248 70.3633 137.893 69.9473C138.543 69.5254 139.246 69.3145 140.002 69.3145C141.238 69.3145 142.199 69.7217 142.885 70.5361C143.57 71.3506 143.913 72.5166 143.913 74.0342V74.7109H137.471C137.494 75.6484 137.767 76.4072 138.288 76.9873C138.815 77.5615 139.483 77.8486 140.292 77.8486C140.866 77.8486 141.353 77.7314 141.751 77.4971C142.149 77.2627 142.498 76.9521 142.797 76.5654L143.79 77.3389C142.993 78.5635 141.798 79.1758 140.204 79.1758ZM140.002 70.6504C139.346 70.6504 138.795 70.8906 138.35 71.3711C137.904 71.8457 137.629 72.5137 137.523 73.375H142.287V73.252C142.24 72.4258 142.018 71.7871 141.619 71.3359C141.221 70.8789 140.682 70.6504 140.002 70.6504ZM150.399 70.9492C150.153 70.9082 149.887 70.8877 149.6 70.8877C148.533 70.8877 147.81 71.3418 147.429 72.25V79H145.803V69.4902H147.385L147.411 70.5889C147.944 69.7393 148.7 69.3145 149.679 69.3145C149.995 69.3145 150.235 69.3555 150.399 69.4375V70.9492ZM158.573 67.1875V69.4902H160.349V70.7471H158.573V76.6445C158.573 77.0254 158.652 77.3125 158.811 77.5059C158.969 77.6934 159.238 77.7871 159.619 77.7871C159.807 77.7871 160.064 77.752 160.393 77.6816V79C159.965 79.1172 159.549 79.1758 159.145 79.1758C158.418 79.1758 157.87 78.9561 157.501 78.5166C157.132 78.0771 156.947 77.4531 156.947 76.6445V70.7471H155.216V69.4902H156.947V67.1875H158.573ZM161.649 74.1572C161.649 73.2256 161.831 72.3877 162.194 71.6436C162.563 70.8994 163.073 70.3252 163.724 69.9209C164.38 69.5166 165.127 69.3145 165.965 69.3145C167.26 69.3145 168.306 69.7627 169.103 70.6592C169.905 71.5557 170.307 72.748 170.307 74.2363V74.3506C170.307 75.2764 170.128 76.1084 169.771 76.8467C169.419 77.5791 168.912 78.1504 168.25 78.5605C167.594 78.9707 166.838 79.1758 165.982 79.1758C164.693 79.1758 163.647 78.7275 162.845 77.8311C162.048 76.9346 161.649 75.748 161.649 74.2715V74.1572ZM163.284 74.3506C163.284 75.4053 163.527 76.252 164.014 76.8906C164.506 77.5293 165.162 77.8486 165.982 77.8486C166.809 77.8486 167.465 77.5264 167.951 76.8818C168.438 76.2314 168.681 75.3232 168.681 74.1572C168.681 73.1143 168.432 72.2705 167.934 71.626C167.441 70.9756 166.785 70.6504 165.965 70.6504C165.162 70.6504 164.515 70.9697 164.022 71.6084C163.53 72.2471 163.284 73.1611 163.284 74.3506ZM177.391 72.584L178.041 66.2031H184.598V67.7061H179.421L179.034 71.1953C179.661 70.8262 180.373 70.6416 181.17 70.6416C182.336 70.6416 183.262 71.0283 183.947 71.8018C184.633 72.5693 184.976 73.6094 184.976 74.9219C184.976 76.2402 184.618 77.2803 183.903 78.042C183.194 78.7979 182.201 79.1758 180.924 79.1758C179.793 79.1758 178.87 78.8623 178.155 78.2354C177.44 77.6084 177.033 76.7412 176.934 75.6338H178.472C178.571 76.3662 178.832 76.9199 179.254 77.2949C179.676 77.6641 180.232 77.8486 180.924 77.8486C181.68 77.8486 182.271 77.5908 182.699 77.0752C183.133 76.5596 183.35 75.8477 183.35 74.9395C183.35 74.084 183.115 73.3984 182.646 72.8828C182.184 72.3613 181.565 72.1006 180.792 72.1006C180.083 72.1006 179.526 72.2559 179.122 72.5664L178.691 72.918L177.391 72.584ZM190.952 74.1572C190.952 73.2256 191.134 72.3877 191.497 71.6436C191.866 70.8994 192.376 70.3252 193.026 69.9209C193.683 69.5166 194.43 69.3145 195.268 69.3145C196.562 69.3145 197.608 69.7627 198.405 70.6592C199.208 71.5557 199.609 72.748 199.609 74.2363V74.3506C199.609 75.2764 199.431 76.1084 199.073 76.8467C198.722 77.5791 198.215 78.1504 197.553 78.5605C196.896 78.9707 196.141 79.1758 195.285 79.1758C193.996 79.1758 192.95 78.7275 192.147 77.8311C191.351 76.9346 190.952 75.748 190.952 74.2715V74.1572ZM192.587 74.3506C192.587 75.4053 192.83 76.252 193.316 76.8906C193.809 77.5293 194.465 77.8486 195.285 77.8486C196.111 77.8486 196.768 77.5264 197.254 76.8818C197.74 76.2314 197.983 75.3232 197.983 74.1572C197.983 73.1143 197.734 72.2705 197.236 71.626C196.744 70.9756 196.088 70.6504 195.268 70.6504C194.465 70.6504 193.817 70.9697 193.325 71.6084C192.833 72.2471 192.587 73.1611 192.587 74.3506ZM206.245 70.9492C205.999 70.9082 205.732 70.8877 205.445 70.8877C204.379 70.8877 203.655 71.3418 203.274 72.25V79H201.648V69.4902H203.23L203.257 70.5889C203.79 69.7393 204.546 69.3145 205.524 69.3145C205.841 69.3145 206.081 69.3555 206.245 69.4375V70.9492ZM213.742 69.4902L213.786 70.5449C214.483 69.7246 215.424 69.3145 216.607 69.3145C217.938 69.3145 218.843 69.8242 219.323 70.8438C219.64 70.3867 220.05 70.0176 220.554 69.7363C221.063 69.4551 221.664 69.3145 222.355 69.3145C224.441 69.3145 225.502 70.4189 225.537 72.6279V79H223.911V72.7246C223.911 72.0449 223.756 71.5381 223.445 71.2041C223.135 70.8643 222.613 70.6943 221.881 70.6943C221.277 70.6943 220.776 70.876 220.378 71.2393C219.979 71.5967 219.748 72.0801 219.684 72.6895V79H218.049V72.7686C218.049 71.3857 217.372 70.6943 216.019 70.6943C214.952 70.6943 214.223 71.1484 213.83 72.0566V79H212.204V69.4902H213.742ZM227.567 74.1572C227.567 73.2256 227.749 72.3877 228.112 71.6436C228.481 70.8994 228.991 70.3252 229.642 69.9209C230.298 69.5166 231.045 69.3145 231.883 69.3145C233.178 69.3145 234.224 69.7627 235.021 70.6592C235.823 71.5557 236.225 72.748 236.225 74.2363V74.3506C236.225 75.2764 236.046 76.1084 235.688 76.8467C235.337 77.5791 234.83 78.1504 234.168 78.5605C233.512 78.9707 232.756 79.1758 231.9 79.1758C230.611 79.1758 229.565 78.7275 228.763 77.8311C227.966 76.9346 227.567 75.748 227.567 74.2715V74.1572ZM229.202 74.3506C229.202 75.4053 229.445 76.252 229.932 76.8906C230.424 77.5293 231.08 77.8486 231.9 77.8486C232.727 77.8486 233.383 77.5264 233.869 76.8818C234.355 76.2314 234.599 75.3232 234.599 74.1572C234.599 73.1143 234.35 72.2705 233.852 71.626C233.359 70.9756 232.703 70.6504 231.883 70.6504C231.08 70.6504 230.433 70.9697 229.94 71.6084C229.448 72.2471 229.202 73.1611 229.202 74.3506ZM242.86 70.9492C242.614 70.9082 242.348 70.8877 242.061 70.8877C240.994 70.8877 240.271 71.3418 239.89 72.25V79H238.264V69.4902H239.846L239.872 70.5889C240.405 69.7393 241.161 69.3145 242.14 69.3145C242.456 69.3145 242.696 69.3555 242.86 69.4375V70.9492ZM248.134 79.1758C246.845 79.1758 245.796 78.7539 244.987 77.9102C244.179 77.0605 243.774 75.9268 243.774 74.5088V74.21C243.774 73.2666 243.953 72.4258 244.311 71.6875C244.674 70.9434 245.178 70.3633 245.822 69.9473C246.473 69.5254 247.176 69.3145 247.932 69.3145C249.168 69.3145 250.129 69.7217 250.814 70.5361C251.5 71.3506 251.843 72.5166 251.843 74.0342V74.7109H245.4C245.424 75.6484 245.696 76.4072 246.218 76.9873C246.745 77.5615 247.413 77.8486 248.222 77.8486C248.796 77.8486 249.282 77.7314 249.681 77.4971C250.079 77.2627 250.428 76.9521 250.727 76.5654L251.72 77.3389C250.923 78.5635 249.728 79.1758 248.134 79.1758ZM247.932 70.6504C247.275 70.6504 246.725 70.8906 246.279 71.3711C245.834 71.8457 245.559 72.5137 245.453 73.375H250.217V73.252C250.17 72.4258 249.947 71.7871 249.549 71.3359C249.15 70.8789 248.611 70.6504 247.932 70.6504ZM266.23 74.3506C266.23 75.7979 265.899 76.9639 265.237 77.8486C264.575 78.7334 263.679 79.1758 262.548 79.1758C261.394 79.1758 260.485 78.8096 259.823 78.0771V82.6562H258.197V69.4902H259.683L259.762 70.5449C260.424 69.7246 261.344 69.3145 262.521 69.3145C263.664 69.3145 264.566 69.7451 265.229 70.6064C265.896 71.4678 266.23 72.666 266.23 74.2012V74.3506ZM264.604 74.166C264.604 73.0938 264.376 72.2471 263.919 71.626C263.462 71.0049 262.835 70.6943 262.038 70.6943C261.054 70.6943 260.315 71.1309 259.823 72.0039V76.5479C260.31 77.415 261.054 77.8486 262.056 77.8486C262.835 77.8486 263.453 77.541 263.91 76.9258C264.373 76.3047 264.604 75.3848 264.604 74.166ZM272.251 79.1758C270.962 79.1758 269.913 78.7539 269.104 77.9102C268.296 77.0605 267.892 75.9268 267.892 74.5088V74.21C267.892 73.2666 268.07 72.4258 268.428 71.6875C268.791 70.9434 269.295 70.3633 269.939 69.9473C270.59 69.5254 271.293 69.3145 272.049 69.3145C273.285 69.3145 274.246 69.7217 274.932 70.5361C275.617 71.3506 275.96 72.5166 275.96 74.0342V74.7109H269.518C269.541 75.6484 269.813 76.4072 270.335 76.9873C270.862 77.5615 271.53 77.8486 272.339 77.8486C272.913 77.8486 273.399 77.7314 273.798 77.4971C274.196 77.2627 274.545 76.9521 274.844 76.5654L275.837 77.3389C275.04 78.5635 273.845 79.1758 272.251 79.1758ZM272.049 70.6504C271.393 70.6504 270.842 70.8906 270.396 71.3711C269.951 71.8457 269.676 72.5137 269.57 73.375H274.334V73.252C274.287 72.4258 274.064 71.7871 273.666 71.3359C273.268 70.8789 272.729 70.6504 272.049 70.6504ZM277.419 74.1572C277.419 73.2256 277.601 72.3877 277.964 71.6436C278.333 70.8994 278.843 70.3252 279.493 69.9209C280.149 69.5166 280.896 69.3145 281.734 69.3145C283.029 69.3145 284.075 69.7627 284.872 70.6592C285.675 71.5557 286.076 72.748 286.076 74.2363V74.3506C286.076 75.2764 285.897 76.1084 285.54 76.8467C285.188 77.5791 284.682 78.1504 284.02 78.5605C283.363 78.9707 282.607 79.1758 281.752 79.1758C280.463 79.1758 279.417 78.7275 278.614 77.8311C277.817 76.9346 277.419 75.748 277.419 74.2715V74.1572ZM279.054 74.3506C279.054 75.4053 279.297 76.252 279.783 76.8906C280.275 77.5293 280.932 77.8486 281.752 77.8486C282.578 77.8486 283.234 77.5264 283.721 76.8818C284.207 76.2314 284.45 75.3232 284.45 74.1572C284.45 73.1143 284.201 72.2705 283.703 71.626C283.211 70.9756 282.555 70.6504 281.734 70.6504C280.932 70.6504 280.284 70.9697 279.792 71.6084C279.3 72.2471 279.054 73.1611 279.054 74.3506ZM296.148 74.3506C296.148 75.7979 295.817 76.9639 295.155 77.8486C294.493 78.7334 293.597 79.1758 292.466 79.1758C291.312 79.1758 290.403 78.8096 289.741 78.0771V82.6562H288.115V69.4902H289.601L289.68 70.5449C290.342 69.7246 291.262 69.3145 292.439 69.3145C293.582 69.3145 294.484 69.7451 295.146 70.6064C295.814 71.4678 296.148 72.666 296.148 74.2012V74.3506ZM294.522 74.166C294.522 73.0938 294.294 72.2471 293.837 71.626C293.38 71.0049 292.753 70.6943 291.956 70.6943C290.972 70.6943 290.233 71.1309 289.741 72.0039V76.5479C290.228 77.415 290.972 77.8486 291.974 77.8486C292.753 77.8486 293.371 77.541 293.828 76.9258C294.291 76.3047 294.522 75.3848 294.522 74.166ZM299.989 79H298.363V65.5H299.989V79ZM306.546 79.1758C305.257 79.1758 304.208 78.7539 303.399 77.9102C302.591 77.0605 302.187 75.9268 302.187 74.5088V74.21C302.187 73.2666 302.365 72.4258 302.723 71.6875C303.086 70.9434 303.59 70.3633 304.234 69.9473C304.885 69.5254 305.588 69.3145 306.344 69.3145C307.58 69.3145 308.541 69.7217 309.227 70.5361C309.912 71.3506 310.255 72.5166 310.255 74.0342V74.7109H303.812C303.836 75.6484 304.108 76.4072 304.63 76.9873C305.157 77.5615 305.825 77.8486 306.634 77.8486C307.208 77.8486 307.694 77.7314 308.093 77.4971C308.491 77.2627 308.84 76.9521 309.139 76.5654L310.132 77.3389C309.335 78.5635 308.14 79.1758 306.546 79.1758ZM306.344 70.6504C305.688 70.6504 305.137 70.8906 304.691 71.3711C304.246 71.8457 303.971 72.5137 303.865 73.375H308.629V73.252C308.582 72.4258 308.359 71.7871 307.961 71.3359C307.562 70.8789 307.023 70.6504 306.344 70.6504Z" fill="#2CB36A" fill-opacity="0.87"/>
<path d="M63.0142 388C62.5809 389.316 62.2042 390.662 61.7049 391.956C61.6595 392.073 60.8494 393.733 60.9389 393.752C62.0914 394.008 62.2439 393.987 63.0699 395.02C65.2653 397.764 66.1892 400.129 66.0088 403.558C65.9284 405.084 64.7788 407.616 62.847 406.998C61.8544 406.681 60.3409 405.463 59.56 404.742C58.8126 404.052 58.3667 402.706 58 401.789" stroke="#D13333" stroke-linecap="round" stroke-linejoin="round"/>
<path d="M63.5156 389.254C66.2415 389.301 68.3076 391.51 71.0369 391.51" stroke="#D13333" stroke-linecap="round" stroke-linejoin="round"/>
<path d="M78.5581 391.51C76.4958 394.623 74.312 397.9 72.9589 401.399C72.1176 403.575 71.4606 405.836 70.6468 408.029C69.7768 410.373 68.6476 412.506 67.7776 414.826" stroke="#D13333" stroke-linecap="round" stroke-linejoin="round"/>
<path d="M70.7861 399.031C71.4302 401.894 72.0397 398.345 72.0397 397.276C72.0397 397.275 71.8014 398.163 71.789 398.474C71.7741 398.845 71.3157 399.096 71.0368 399.282" stroke="#D13333" stroke-linecap="round" stroke-linejoin="round"/>
<path d="M75.2988 403.043C75.2565 403.24 74.5295 405.169 74.9367 405.285C75.1927 405.358 75.781 405.395 75.8002 405.048C75.853 404.098 76.105 402.386 75.0481 403.795" stroke="#D13333" stroke-linecap="round" stroke-linejoin="round"/>
<path d="M36.2193 504.122C36.7586 501.858 37.8791 498.574 40.5479 500.671C42.1051 501.895 43.0632 503.425 43.0632 505.438C43.0632 507.419 43.4533 509.349 41.8933 510.849C41.335 511.386 40.552 511.506 39.9045 511.902C39.0223 512.441 38.793 513.657 38.0619 514.388C37.0141 515.436 36.8712 516.926 35.9561 518.044C35.546 518.545 32.7724 520.442 34.64 520.442C37.6063 520.442 40.5578 520.969 43.5896 520.969" stroke="#F7C978" stroke-linecap="round" stroke-linejoin="round"/>
<path d="M53.5921 505.175C53.0109 509.954 51.9804 515.294 50.6966 519.916C49.9685 522.537 49.8037 526.125 48.3276 528.339" stroke="#F7C978" stroke-linecap="round" stroke-linejoin="round"/>
<path d="M46.2217 514.125C46.2776 515.244 47.1273 518.345 49.0879 517.225C50.1829 516.599 49.2693 515.178 48.3275 515.178" stroke="#F7C978" stroke-linecap="round" stroke-linejoin="round"/>
<path d="M54.6449 519.389C54.6449 521.112 54.0387 522.548 55.961 522.548C56.5251 522.548 57.2399 522.128 57.2771 521.495C57.3951 519.489 56.5135 518.67 54.6449 519.916" stroke="#F7C978" stroke-linecap="round" stroke-linejoin="round"/>
<path d="M33.8022 655H33.0215V645.758H33.8022V655ZM36.6841 655V648.754H35.5479V648.132H36.6841V647.3C36.6841 646.598 36.8618 646.058 37.2173 645.682C37.577 645.305 38.0763 645.117 38.7153 645.117C39.0031 645.117 39.2718 645.153 39.5215 645.225L39.4644 645.859C39.2528 645.809 39.0221 645.783 38.7725 645.783C38.3535 645.783 38.0277 645.914 37.7949 646.177C37.5622 646.435 37.4458 646.803 37.4458 647.281V648.132H39.0835V648.754H37.4458V655H36.6841ZM50.1475 645.758V652.067C50.1432 652.689 50.0057 653.231 49.7349 653.692C49.464 654.154 49.0811 654.509 48.5859 654.759C48.0951 655.004 47.5301 655.127 46.8911 655.127C45.9178 655.127 45.137 654.862 44.5488 654.333C43.9648 653.8 43.6623 653.064 43.6411 652.125V645.758H44.4155V652.01C44.4155 652.789 44.6377 653.394 45.082 653.826C45.5264 654.253 46.1294 654.467 46.8911 654.467C47.6528 654.467 48.2537 654.251 48.6938 653.819C49.1382 653.388 49.3604 652.787 49.3604 652.017V645.758H50.1475ZM56.2603 653.254C56.2603 652.878 56.1079 652.575 55.8032 652.347C55.5028 652.118 55.0479 651.94 54.4385 651.813C53.8291 651.682 53.3551 651.534 53.0166 651.369C52.6823 651.2 52.4326 650.995 52.2676 650.753C52.1068 650.512 52.0264 650.22 52.0264 649.877C52.0264 649.336 52.2528 648.889 52.7056 648.538C53.1584 648.183 53.7381 648.005 54.4448 648.005C55.2108 648.005 55.8244 648.195 56.2856 648.576C56.7511 648.953 56.9839 649.446 56.9839 650.055H56.2222C56.2222 649.653 56.0529 649.319 55.7144 649.052C55.38 648.786 54.9569 648.652 54.4448 648.652C53.9455 648.652 53.5435 648.764 53.2388 648.989C52.9383 649.209 52.7881 649.497 52.7881 649.852C52.7881 650.195 52.9129 650.461 53.1626 650.652C53.4165 650.838 53.8757 651.009 54.54 651.166C55.2087 651.323 55.708 651.49 56.0381 651.667C56.3724 651.845 56.62 652.059 56.7808 652.309C56.9416 652.558 57.022 652.861 57.022 653.216C57.022 653.796 56.7871 654.259 56.3174 654.606C55.8519 654.953 55.2425 655.127 54.4893 655.127C53.6895 655.127 53.0399 654.934 52.5405 654.549C52.0454 654.16 51.7979 653.669 51.7979 653.077H52.5596C52.5892 653.521 52.7754 653.868 53.1182 654.118C53.4652 654.363 53.9222 654.486 54.4893 654.486C55.0182 654.486 55.4456 654.369 55.7715 654.137C56.0973 653.904 56.2603 653.61 56.2603 653.254ZM61.3955 655.127C60.8115 655.127 60.2826 654.983 59.8086 654.695C59.3389 654.408 58.9728 654.008 58.7104 653.496C58.4481 652.979 58.3169 652.402 58.3169 651.763V651.49C58.3169 650.83 58.4438 650.235 58.6978 649.706C58.9559 649.177 59.3135 648.762 59.7705 648.462C60.2275 648.157 60.7227 648.005 61.2559 648.005C62.0895 648.005 62.7497 648.291 63.2363 648.862C63.7272 649.429 63.9727 650.205 63.9727 651.191V651.617H59.0723V651.763C59.0723 652.541 59.2944 653.191 59.7388 653.711C60.1873 654.228 60.7502 654.486 61.4272 654.486C61.8335 654.486 62.1911 654.412 62.5 654.264C62.8132 654.116 63.0967 653.879 63.3506 653.553L63.8267 653.915C63.2681 654.723 62.4577 655.127 61.3955 655.127ZM61.2559 648.652C60.6846 648.652 60.2021 648.862 59.8086 649.281C59.4193 649.7 59.1823 650.263 59.0977 650.969H63.2173V650.887C63.1961 650.227 63.0078 649.689 62.6523 649.274C62.2969 648.86 61.8314 648.652 61.2559 648.652ZM68.6255 648.779C68.4647 648.75 68.2933 648.735 68.1113 648.735C67.6374 648.735 67.2354 648.868 66.9053 649.135C66.5794 649.397 66.3467 649.78 66.207 650.284V655H65.4517V648.132H66.1943L66.207 649.224C66.609 648.411 67.2544 648.005 68.1431 648.005C68.3547 648.005 68.5218 648.032 68.6445 648.087L68.6255 648.779ZM73.748 649.293C73.9977 648.883 74.3172 648.566 74.7065 648.341C75.0959 648.117 75.5212 648.005 75.9824 648.005C76.7188 648.005 77.2668 648.212 77.6265 648.627C77.9862 649.042 78.1681 649.664 78.1724 650.493V655H77.417V650.487C77.4128 649.873 77.2816 649.416 77.0234 649.116C76.7695 648.815 76.3612 648.665 75.7983 648.665C75.3286 648.665 74.9118 648.813 74.5479 649.109C74.1882 649.401 73.9215 649.797 73.748 650.296V655H72.9927V645.25H73.748V649.293ZM84.4629 655C84.3867 654.784 84.3381 654.465 84.3169 654.042C84.0503 654.389 83.7096 654.657 83.2949 654.848C82.8844 655.034 82.4486 655.127 81.9873 655.127C81.3271 655.127 80.7918 654.943 80.3813 654.575C79.9751 654.207 79.772 653.741 79.772 653.178C79.772 652.51 80.0492 651.981 80.6035 651.591C81.1621 651.202 81.9386 651.007 82.9331 651.007H84.3105V650.227C84.3105 649.736 84.1582 649.351 83.8535 649.071C83.5531 648.788 83.113 648.646 82.5332 648.646C82.0042 648.646 81.5662 648.781 81.2192 649.052C80.8722 649.323 80.6987 649.649 80.6987 650.03L79.937 650.023C79.937 649.478 80.1909 649.006 80.6987 648.608C81.2065 648.206 81.8307 648.005 82.5713 648.005C83.3372 648.005 83.9403 648.197 84.3804 648.583C84.8247 648.963 85.0532 649.497 85.0659 650.182V653.432C85.0659 654.097 85.1357 654.594 85.2754 654.924V655H84.4629ZM82.0762 654.454C82.584 654.454 83.0368 654.331 83.4346 654.086C83.8366 653.84 84.1286 653.513 84.3105 653.102V651.591H82.9521C82.1947 651.6 81.6022 651.739 81.1748 652.01C80.7474 652.277 80.5337 652.645 80.5337 653.115C80.5337 653.5 80.6755 653.819 80.959 654.073C81.2467 654.327 81.6191 654.454 82.0762 654.454ZM91.2104 653.254C91.2104 652.878 91.0581 652.575 90.7534 652.347C90.453 652.118 89.998 651.94 89.3887 651.813C88.7793 651.682 88.3053 651.534 87.9668 651.369C87.6325 651.2 87.3828 650.995 87.2178 650.753C87.057 650.512 86.9766 650.22 86.9766 649.877C86.9766 649.336 87.203 648.889 87.6558 648.538C88.1086 648.183 88.6883 648.005 89.395 648.005C90.161 648.005 90.7746 648.195 91.2358 648.576C91.7013 648.953 91.9341 649.446 91.9341 650.055H91.1724C91.1724 649.653 91.0031 649.319 90.6646 649.052C90.3302 648.786 89.9071 648.652 89.395 648.652C88.8957 648.652 88.4937 648.764 88.189 648.989C87.8885 649.209 87.7383 649.497 87.7383 649.852C87.7383 650.195 87.8631 650.461 88.1128 650.652C88.3667 650.838 88.8258 651.009 89.4902 651.166C90.1589 651.323 90.6582 651.49 90.9883 651.667C91.3226 651.845 91.5701 652.059 91.731 652.309C91.8918 652.558 91.9722 652.861 91.9722 653.216C91.9722 653.796 91.7373 654.259 91.2676 654.606C90.8021 654.953 90.1927 655.127 89.4395 655.127C88.6396 655.127 87.9901 654.934 87.4907 654.549C86.9956 654.16 86.748 653.669 86.748 653.077H87.5098C87.5394 653.521 87.7256 653.868 88.0684 654.118C88.4154 654.363 88.8724 654.486 89.4395 654.486C89.9684 654.486 90.3958 654.369 90.7217 654.137C91.0475 653.904 91.2104 653.61 91.2104 653.254ZM97.2407 650.265L97.6914 645.758H102.312V646.462H98.3452L98.0215 649.585C98.5166 649.247 99.0964 649.078 99.7607 649.078C100.594 649.078 101.259 649.348 101.754 649.89C102.249 650.432 102.497 651.153 102.497 652.055C102.497 653.028 102.255 653.783 101.773 654.321C101.291 654.858 100.611 655.127 99.7354 655.127C98.9313 655.127 98.2796 654.903 97.7803 654.454C97.2809 654.006 96.9953 653.377 96.9233 652.569H97.6533C97.7253 653.199 97.939 653.678 98.2944 654.003C98.6499 654.325 99.1302 654.486 99.7354 654.486C100.396 654.486 100.893 654.276 101.227 653.857C101.566 653.438 101.735 652.842 101.735 652.067C101.735 651.39 101.547 650.838 101.17 650.411C100.793 649.983 100.279 649.77 99.6274 649.77C99.2677 649.77 98.9546 649.816 98.688 649.909C98.4214 649.998 98.14 650.174 97.8438 650.436L97.2407 650.265ZM110.393 648.779C110.232 648.75 110.061 648.735 109.879 648.735C109.405 648.735 109.003 648.868 108.673 649.135C108.347 649.397 108.114 649.78 107.975 650.284V655H107.219V648.132H107.962L107.975 649.224C108.377 648.411 109.022 648.005 109.911 648.005C110.122 648.005 110.289 648.032 110.412 648.087L110.393 648.779ZM114.132 655.127C113.548 655.127 113.019 654.983 112.545 654.695C112.075 654.408 111.709 654.008 111.447 653.496C111.184 652.979 111.053 652.402 111.053 651.763V651.49C111.053 650.83 111.18 650.235 111.434 649.706C111.692 649.177 112.05 648.762 112.507 648.462C112.964 648.157 113.459 648.005 113.992 648.005C114.826 648.005 115.486 648.291 115.973 648.862C116.464 649.429 116.709 650.205 116.709 651.191V651.617H111.809V651.763C111.809 652.541 112.031 653.191 112.475 653.711C112.924 654.228 113.486 654.486 114.164 654.486C114.57 654.486 114.927 654.412 115.236 654.264C115.549 654.116 115.833 653.879 116.087 653.553L116.563 653.915C116.004 654.723 115.194 655.127 114.132 655.127ZM113.992 648.652C113.421 648.652 112.938 648.862 112.545 649.281C112.156 649.7 111.919 650.263 111.834 650.969H115.954V650.887C115.932 650.227 115.744 649.689 115.389 649.274C115.033 648.86 114.568 648.652 113.992 648.652ZM118.734 655V648.754H117.598V648.132H118.734V647.3C118.734 646.598 118.912 646.058 119.267 645.682C119.627 645.305 120.126 645.117 120.765 645.117C121.053 645.117 121.322 645.153 121.571 645.225L121.514 645.859C121.303 645.809 121.072 645.783 120.822 645.783C120.403 645.783 120.077 645.914 119.845 646.177C119.612 646.435 119.496 646.803 119.496 647.281V648.132H121.133V648.754H119.496V655H118.734ZM123.038 655V648.754H121.901V648.132H123.038V647.3C123.038 646.598 123.215 646.058 123.571 645.682C123.931 645.305 124.43 645.117 125.069 645.117C125.357 645.117 125.625 645.153 125.875 645.225L125.818 645.859C125.606 645.809 125.376 645.783 125.126 645.783C124.707 645.783 124.381 645.914 124.148 646.177C123.916 646.435 123.799 646.803 123.799 647.281V648.132H125.437V648.754H123.799V655H123.038ZM129.303 655.127C128.719 655.127 128.19 654.983 127.716 654.695C127.246 654.408 126.88 654.008 126.618 653.496C126.355 652.979 126.224 652.402 126.224 651.763V651.49C126.224 650.83 126.351 650.235 126.605 649.706C126.863 649.177 127.221 648.762 127.678 648.462C128.135 648.157 128.63 648.005 129.163 648.005C129.997 648.005 130.657 648.291 131.144 648.862C131.634 649.429 131.88 650.205 131.88 651.191V651.617H126.979V651.763C126.979 652.541 127.202 653.191 127.646 653.711C128.095 654.228 128.657 654.486 129.334 654.486C129.741 654.486 130.098 654.412 130.407 654.264C130.72 654.116 131.004 653.879 131.258 653.553L131.734 653.915C131.175 654.723 130.365 655.127 129.303 655.127ZM129.163 648.652C128.592 648.652 128.109 648.862 127.716 649.281C127.326 649.7 127.09 650.263 127.005 650.969H131.125V650.887C131.103 650.227 130.915 649.689 130.56 649.274C130.204 648.86 129.739 648.652 129.163 648.652ZM136.533 648.779C136.372 648.75 136.201 648.735 136.019 648.735C135.545 648.735 135.143 648.868 134.812 649.135C134.487 649.397 134.254 649.78 134.114 650.284V655H133.359V648.132H134.102L134.114 649.224C134.516 648.411 135.162 648.005 136.05 648.005C136.262 648.005 136.429 648.032 136.552 648.087L136.533 648.779ZM141.82 655C141.744 654.784 141.695 654.465 141.674 654.042C141.408 654.389 141.067 654.657 140.652 654.848C140.242 655.034 139.806 655.127 139.345 655.127C138.685 655.127 138.149 654.943 137.739 654.575C137.333 654.207 137.129 653.741 137.129 653.178C137.129 652.51 137.407 651.981 137.961 651.591C138.52 651.202 139.296 651.007 140.291 651.007H141.668V650.227C141.668 649.736 141.516 649.351 141.211 649.071C140.91 648.788 140.47 648.646 139.891 648.646C139.362 648.646 138.924 648.781 138.577 649.052C138.23 649.323 138.056 649.649 138.056 650.03L137.294 650.023C137.294 649.478 137.548 649.006 138.056 648.608C138.564 648.206 139.188 648.005 139.929 648.005C140.695 648.005 141.298 648.197 141.738 648.583C142.182 648.963 142.411 649.497 142.423 650.182V653.432C142.423 654.097 142.493 654.594 142.633 654.924V655H141.82ZM139.434 654.454C139.941 654.454 140.394 654.331 140.792 654.086C141.194 653.84 141.486 653.513 141.668 653.102V651.591H140.31C139.552 651.6 138.96 651.739 138.532 652.01C138.105 652.277 137.891 652.645 137.891 653.115C137.891 653.5 138.033 653.819 138.316 654.073C138.604 654.327 138.977 654.454 139.434 654.454ZM145.305 655H144.543V645.25H145.305V655ZM151.488 653.254C151.488 652.878 151.335 652.575 151.031 652.347C150.73 652.118 150.275 651.94 149.666 651.813C149.057 651.682 148.583 651.534 148.244 651.369C147.91 651.2 147.66 650.995 147.495 650.753C147.334 650.512 147.254 650.22 147.254 649.877C147.254 649.336 147.48 648.889 147.933 648.538C148.386 648.183 148.966 648.005 149.672 648.005C150.438 648.005 151.052 648.195 151.513 648.576C151.979 648.953 152.211 649.446 152.211 650.055H151.45C151.45 649.653 151.28 649.319 150.942 649.052C150.608 648.786 150.184 648.652 149.672 648.652C149.173 648.652 148.771 648.764 148.466 648.989C148.166 649.209 148.016 649.497 148.016 649.852C148.016 650.195 148.14 650.461 148.39 650.652C148.644 650.838 149.103 651.009 149.768 651.166C150.436 651.323 150.936 651.49 151.266 651.667C151.6 651.845 151.847 652.059 152.008 652.309C152.169 652.558 152.25 652.861 152.25 653.216C152.25 653.796 152.015 654.259 151.545 654.606C151.079 654.953 150.47 655.127 149.717 655.127C148.917 655.127 148.267 654.934 147.768 654.549C147.273 654.16 147.025 653.669 147.025 653.077H147.787C147.817 653.521 148.003 653.868 148.346 654.118C148.693 654.363 149.15 654.486 149.717 654.486C150.246 654.486 150.673 654.369 150.999 654.137C151.325 653.904 151.488 653.61 151.488 653.254ZM158.305 646.374V648.132H159.727V648.754H158.305V653.331C158.305 653.711 158.373 653.995 158.508 654.181C158.648 654.367 158.879 654.46 159.2 654.46C159.327 654.46 159.532 654.439 159.816 654.397L159.848 655.019C159.649 655.091 159.378 655.127 159.035 655.127C158.515 655.127 158.136 654.977 157.899 654.676C157.662 654.372 157.543 653.925 157.543 653.337V648.754H156.28V648.132H157.543V646.374H158.305ZM162.057 649.293C162.306 648.883 162.626 648.566 163.015 648.341C163.404 648.117 163.83 648.005 164.291 648.005C165.027 648.005 165.575 648.212 165.935 648.627C166.295 649.042 166.477 649.664 166.481 650.493V655H165.726V650.487C165.721 649.873 165.59 649.416 165.332 649.116C165.078 648.815 164.67 648.665 164.107 648.665C163.637 648.665 163.22 648.813 162.856 649.109C162.497 649.401 162.23 649.797 162.057 650.296V655H161.301V645.25H162.057V649.293ZM171.096 655.127C170.512 655.127 169.983 654.983 169.509 654.695C169.039 654.408 168.673 654.008 168.411 653.496C168.148 652.979 168.017 652.402 168.017 651.763V651.49C168.017 650.83 168.144 650.235 168.398 649.706C168.656 649.177 169.014 648.762 169.471 648.462C169.928 648.157 170.423 648.005 170.956 648.005C171.79 648.005 172.45 648.291 172.937 648.862C173.427 649.429 173.673 650.205 173.673 651.191V651.617H168.772V651.763C168.772 652.541 168.995 653.191 169.439 653.711C169.888 654.228 170.45 654.486 171.127 654.486C171.534 654.486 171.891 654.412 172.2 654.264C172.513 654.116 172.797 653.879 173.051 653.553L173.527 653.915C172.968 654.723 172.158 655.127 171.096 655.127ZM170.956 648.652C170.385 648.652 169.902 648.862 169.509 649.281C169.119 649.7 168.882 650.263 168.798 650.969H172.917V650.887C172.896 650.227 172.708 649.689 172.353 649.274C171.997 648.86 171.532 648.652 170.956 648.652ZM175.875 648.132L175.901 649.306C176.159 648.883 176.481 648.561 176.866 648.341C177.251 648.117 177.676 648.005 178.142 648.005C178.878 648.005 179.426 648.212 179.786 648.627C180.145 649.042 180.327 649.664 180.332 650.493V655H179.576V650.487C179.572 649.873 179.441 649.416 179.183 649.116C178.929 648.815 178.52 648.665 177.958 648.665C177.488 648.665 177.071 648.813 176.707 649.109C176.347 649.401 176.081 649.797 175.907 650.296V655H175.152V648.132H175.875ZM186.216 649.293C186.465 648.883 186.785 648.566 187.174 648.341C187.564 648.117 187.989 648.005 188.45 648.005C189.187 648.005 189.735 648.212 190.094 648.627C190.454 649.042 190.636 649.664 190.64 650.493V655H189.885V650.487C189.881 649.873 189.749 649.416 189.491 649.116C189.237 648.815 188.829 648.665 188.266 648.665C187.796 648.665 187.38 648.813 187.016 649.109C186.656 649.401 186.389 649.797 186.216 650.296V655H185.46V645.25H186.216V649.293ZM195.255 655.127C194.671 655.127 194.142 654.983 193.668 654.695C193.198 654.408 192.832 654.008 192.57 653.496C192.307 652.979 192.176 652.402 192.176 651.763V651.49C192.176 650.83 192.303 650.235 192.557 649.706C192.815 649.177 193.173 648.762 193.63 648.462C194.087 648.157 194.582 648.005 195.115 648.005C195.949 648.005 196.609 648.291 197.096 648.862C197.587 649.429 197.832 650.205 197.832 651.191V651.617H192.932V651.763C192.932 652.541 193.154 653.191 193.598 653.711C194.047 654.228 194.61 654.486 195.287 654.486C195.693 654.486 196.05 654.412 196.359 654.264C196.673 654.116 196.956 653.879 197.21 653.553L197.686 653.915C197.127 654.723 196.317 655.127 195.255 655.127ZM195.115 648.652C194.544 648.652 194.062 648.862 193.668 649.281C193.279 649.7 193.042 650.263 192.957 650.969H197.077V650.887C197.056 650.227 196.867 649.689 196.512 649.274C196.156 648.86 195.691 648.652 195.115 648.652ZM204.116 653.419L204.23 654.01L204.383 653.388L206.033 648.132H206.681L208.312 653.343L208.49 654.067L208.636 653.4L210.045 648.132H210.832L208.833 655H208.185L206.42 649.554L206.338 649.179L206.255 649.56L204.522 655H203.875L201.882 648.132H202.663L204.116 653.419ZM213.124 655H212.362V648.132H213.124V655ZM212.229 646.145C212.229 646.001 212.275 645.881 212.368 645.783C212.461 645.682 212.588 645.631 212.749 645.631C212.91 645.631 213.037 645.682 213.13 645.783C213.227 645.881 213.276 646.001 213.276 646.145C213.276 646.289 213.227 646.41 213.13 646.507C213.037 646.604 212.91 646.653 212.749 646.653C212.588 646.653 212.461 646.604 212.368 646.507C212.275 646.41 212.229 646.289 212.229 646.145ZM216.043 655H215.282V645.25H216.043V655ZM218.963 655H218.202V645.25H218.963V655ZM226.854 655.127C226.27 655.127 225.741 654.983 225.267 654.695C224.797 654.408 224.431 654.008 224.168 653.496C223.906 652.979 223.775 652.402 223.775 651.763V651.49C223.775 650.83 223.902 650.235 224.156 649.706C224.414 649.177 224.771 648.762 225.229 648.462C225.686 648.157 226.181 648.005 226.714 648.005C227.548 648.005 228.208 648.291 228.694 648.862C229.185 649.429 229.431 650.205 229.431 651.191V651.617H224.53V651.763C224.53 652.541 224.752 653.191 225.197 653.711C225.645 654.228 226.208 654.486 226.885 654.486C227.292 654.486 227.649 654.412 227.958 654.264C228.271 654.116 228.555 653.879 228.809 653.553L229.285 653.915C228.726 654.723 227.916 655.127 226.854 655.127ZM226.714 648.652C226.143 648.652 225.66 648.862 225.267 649.281C224.877 649.7 224.64 650.263 224.556 650.969H228.675V650.887C228.654 650.227 228.466 649.689 228.11 649.274C227.755 648.86 227.289 648.652 226.714 648.652ZM235.245 655C235.169 654.784 235.12 654.465 235.099 654.042C234.833 654.389 234.492 654.657 234.077 654.848C233.667 655.034 233.231 655.127 232.77 655.127C232.109 655.127 231.574 654.943 231.164 654.575C230.757 654.207 230.554 653.741 230.554 653.178C230.554 652.51 230.831 651.981 231.386 651.591C231.944 651.202 232.721 651.007 233.715 651.007H235.093V650.227C235.093 649.736 234.94 649.351 234.636 649.071C234.335 648.788 233.895 648.646 233.315 648.646C232.786 648.646 232.348 648.781 232.001 649.052C231.654 649.323 231.481 649.649 231.481 650.03L230.719 650.023C230.719 649.478 230.973 649.006 231.481 648.608C231.989 648.206 232.613 648.005 233.354 648.005C234.119 648.005 234.722 648.197 235.163 648.583C235.607 648.963 235.835 649.497 235.848 650.182V653.432C235.848 654.097 235.918 654.594 236.058 654.924V655H235.245ZM232.858 654.454C233.366 654.454 233.819 654.331 234.217 654.086C234.619 653.84 234.911 653.513 235.093 653.102V651.591H233.734C232.977 651.6 232.384 651.739 231.957 652.01C231.53 652.277 231.316 652.645 231.316 653.115C231.316 653.5 231.458 653.819 231.741 654.073C232.029 654.327 232.401 654.454 232.858 654.454ZM241.053 648.779C240.892 648.75 240.721 648.735 240.539 648.735C240.065 648.735 239.663 648.868 239.333 649.135C239.007 649.397 238.774 649.78 238.635 650.284V655H237.879V648.132H238.622L238.635 649.224C239.037 648.411 239.682 648.005 240.571 648.005C240.782 648.005 240.95 648.032 241.072 648.087L241.053 648.779ZM242.983 648.132L243.008 649.306C243.266 648.883 243.588 648.561 243.973 648.341C244.358 648.117 244.784 648.005 245.249 648.005C245.985 648.005 246.533 648.212 246.893 648.627C247.253 649.042 247.435 649.664 247.439 650.493V655H246.684V650.487C246.679 649.873 246.548 649.416 246.29 649.116C246.036 648.815 245.628 648.665 245.065 648.665C244.595 648.665 244.178 648.813 243.814 649.109C243.455 649.401 243.188 649.797 243.015 650.296V655H242.259V648.132H242.983ZM258.236 655H252.447V654.416L255.615 650.823C256.139 650.218 256.503 649.719 256.707 649.325C256.91 648.932 257.011 648.549 257.011 648.176C257.011 647.592 256.84 647.131 256.497 646.792C256.154 646.45 255.682 646.278 255.082 646.278C254.459 646.278 253.956 646.477 253.571 646.875C253.19 647.273 253 647.789 253 648.424H252.244C252.244 647.903 252.361 647.429 252.593 647.002C252.83 646.575 253.165 646.24 253.596 645.999C254.032 645.754 254.527 645.631 255.082 645.631C255.928 645.631 256.588 645.853 257.062 646.297C257.54 646.742 257.779 647.347 257.779 648.113C257.779 648.544 257.644 649.016 257.373 649.528C257.106 650.04 256.635 650.679 255.958 651.445L253.38 654.359H258.236V655ZM259.48 647.535C259.48 646.985 259.65 646.53 259.988 646.17C260.331 645.806 260.765 645.625 261.29 645.625C261.814 645.625 262.246 645.806 262.584 646.17C262.927 646.53 263.099 646.998 263.099 647.573V648.024C263.099 648.566 262.929 649.018 262.591 649.382C262.257 649.742 261.827 649.922 261.302 649.922C260.782 649.922 260.348 649.744 260.001 649.389C259.654 649.033 259.48 648.563 259.48 647.979V647.535ZM260.096 648.024C260.096 648.417 260.204 648.741 260.42 648.995C260.64 649.249 260.934 649.376 261.302 649.376C261.662 649.376 261.948 649.249 262.159 648.995C262.375 648.737 262.483 648.405 262.483 647.999V647.535C262.483 647.142 262.373 646.818 262.153 646.564C261.933 646.306 261.645 646.177 261.29 646.177C260.938 646.177 260.651 646.304 260.426 646.558C260.206 646.812 260.096 647.15 260.096 647.573V648.024ZM264.133 652.734C264.133 652.184 264.303 651.729 264.641 651.369C264.984 651.009 265.416 650.83 265.936 650.83C266.457 650.83 266.888 651.009 267.231 651.369C267.578 651.725 267.751 652.194 267.751 652.778V653.229C267.751 653.779 267.58 654.234 267.237 654.594C266.899 654.953 266.469 655.133 265.949 655.133C265.428 655.133 264.994 654.956 264.647 654.6C264.305 654.24 264.133 653.773 264.133 653.197V652.734ZM264.743 653.229C264.743 653.627 264.851 653.953 265.066 654.207C265.286 654.46 265.581 654.587 265.949 654.587C266.313 654.587 266.6 654.46 266.812 654.207C267.028 653.948 267.136 653.612 267.136 653.197V652.734C267.136 652.328 267.026 652.002 266.806 651.756C266.59 651.507 266.3 651.382 265.936 651.382C265.581 651.382 265.293 651.507 265.073 651.756C264.853 652.006 264.743 652.34 264.743 652.759V653.229ZM261.543 654.232L261.067 653.927L265.581 646.704L266.057 647.008L261.543 654.232ZM275.724 648.779C275.563 648.75 275.392 648.735 275.21 648.735C274.736 648.735 274.334 648.868 274.004 649.135C273.678 649.397 273.445 649.78 273.306 650.284V655H272.55V648.132H273.293L273.306 649.224C273.708 648.411 274.353 648.005 275.242 648.005C275.453 648.005 275.62 648.032 275.743 648.087L275.724 648.779ZM279.463 655.127C278.879 655.127 278.35 654.983 277.876 654.695C277.406 654.408 277.04 654.008 276.778 653.496C276.515 652.979 276.384 652.402 276.384 651.763V651.49C276.384 650.83 276.511 650.235 276.765 649.706C277.023 649.177 277.381 648.762 277.838 648.462C278.295 648.157 278.79 648.005 279.323 648.005C280.157 648.005 280.817 648.291 281.304 648.862C281.795 649.429 282.04 650.205 282.04 651.191V651.617H277.14V651.763C277.14 652.541 277.362 653.191 277.806 653.711C278.255 654.228 278.818 654.486 279.495 654.486C279.901 654.486 280.258 654.412 280.567 654.264C280.881 654.116 281.164 653.879 281.418 653.553L281.894 653.915C281.335 654.723 280.525 655.127 279.463 655.127ZM279.323 648.652C278.752 648.652 278.27 648.862 277.876 649.281C277.487 649.7 277.25 650.263 277.165 650.969H281.285V650.887C281.264 650.227 281.075 649.689 280.72 649.274C280.364 648.86 279.899 648.652 279.323 648.652ZM285.163 653.419L285.277 654.01L285.43 653.388L287.08 648.132H287.728L289.359 653.343L289.537 654.067L289.683 653.4L291.092 648.132H291.879L289.879 655H289.232L287.467 649.554L287.385 649.179L287.302 649.56L285.569 655H284.922L282.929 648.132H283.709L285.163 653.419ZM297.655 655C297.579 654.784 297.53 654.465 297.509 654.042C297.243 654.389 296.902 654.657 296.487 654.848C296.077 655.034 295.641 655.127 295.18 655.127C294.52 655.127 293.984 654.943 293.574 654.575C293.167 654.207 292.964 653.741 292.964 653.178C292.964 652.51 293.242 651.981 293.796 651.591C294.354 651.202 295.131 651.007 296.125 651.007H297.503V650.227C297.503 649.736 297.351 649.351 297.046 649.071C296.745 648.788 296.305 648.646 295.726 648.646C295.197 648.646 294.759 648.781 294.412 649.052C294.065 649.323 293.891 649.649 293.891 650.03L293.129 650.023C293.129 649.478 293.383 649.006 293.891 648.608C294.399 648.206 295.023 648.005 295.764 648.005C296.53 648.005 297.133 648.197 297.573 648.583C298.017 648.963 298.246 649.497 298.258 650.182V653.432C298.258 654.097 298.328 654.594 298.468 654.924V655H297.655ZM295.269 654.454C295.776 654.454 296.229 654.331 296.627 654.086C297.029 653.84 297.321 653.513 297.503 653.102V651.591H296.145C295.387 651.6 294.795 651.739 294.367 652.01C293.94 652.277 293.726 652.645 293.726 653.115C293.726 653.5 293.868 653.819 294.151 654.073C294.439 654.327 294.812 654.454 295.269 654.454ZM303.463 648.779C303.303 648.75 303.131 648.735 302.949 648.735C302.475 648.735 302.073 648.868 301.743 649.135C301.417 649.397 301.185 649.78 301.045 650.284V655H300.29V648.132H301.032L301.045 649.224C301.447 648.411 302.092 648.005 302.981 648.005C303.193 648.005 303.36 648.032 303.482 648.087L303.463 648.779ZM304.238 651.502C304.238 650.436 304.475 649.588 304.949 648.957C305.427 648.322 306.074 648.005 306.891 648.005C307.818 648.005 308.525 648.371 309.011 649.103V645.25H309.767V655H309.056L309.024 654.086C308.537 654.78 307.822 655.127 306.878 655.127C306.087 655.127 305.448 654.81 304.961 654.175C304.479 653.536 304.238 652.675 304.238 651.591V651.502ZM305.006 651.636C305.006 652.512 305.181 653.204 305.533 653.711C305.884 654.215 306.379 654.467 307.018 654.467C307.953 654.467 308.618 654.054 309.011 653.229V650.004C308.618 649.111 307.958 648.665 307.031 648.665C306.392 648.665 305.895 648.917 305.539 649.42C305.184 649.92 305.006 650.658 305.006 651.636ZM315.879 653.254C315.879 652.878 315.727 652.575 315.422 652.347C315.122 652.118 314.667 651.94 314.058 651.813C313.448 651.682 312.974 651.534 312.636 651.369C312.301 651.2 312.052 650.995 311.887 650.753C311.726 650.512 311.646 650.22 311.646 649.877C311.646 649.336 311.872 648.889 312.325 648.538C312.778 648.183 313.357 648.005 314.064 648.005C314.83 648.005 315.444 648.195 315.905 648.576C316.37 648.953 316.603 649.446 316.603 650.055H315.841C315.841 649.653 315.672 649.319 315.333 649.052C314.999 648.786 314.576 648.652 314.064 648.652C313.565 648.652 313.163 648.764 312.858 648.989C312.557 649.209 312.407 649.497 312.407 649.852C312.407 650.195 312.532 650.461 312.782 650.652C313.036 650.838 313.495 651.009 314.159 651.166C314.828 651.323 315.327 651.49 315.657 651.667C315.992 651.845 316.239 652.059 316.4 652.309C316.561 652.558 316.641 652.861 316.641 653.216C316.641 653.796 316.406 654.259 315.937 654.606C315.471 654.953 314.862 655.127 314.108 655.127C313.309 655.127 312.659 654.934 312.16 654.549C311.665 654.16 311.417 653.669 311.417 653.077H312.179C312.208 653.521 312.395 653.868 312.737 654.118C313.084 654.363 313.541 654.486 314.108 654.486C314.637 654.486 315.065 654.369 315.391 654.137C315.716 653.904 315.879 653.61 315.879 653.254ZM327.045 651.636C327.045 652.706 326.808 653.557 326.334 654.188C325.86 654.814 325.223 655.127 324.423 655.127C323.467 655.127 322.743 654.771 322.252 654.061L322.221 655H321.51V645.25H322.265V649.128C322.748 648.379 323.463 648.005 324.411 648.005C325.223 648.005 325.864 648.316 326.334 648.938C326.808 649.556 327.045 650.417 327.045 651.521V651.636ZM326.283 651.502C326.283 650.597 326.108 649.899 325.756 649.408C325.405 648.913 324.91 648.665 324.271 648.665C323.784 648.665 323.372 648.786 323.033 649.027C322.695 649.264 322.439 649.613 322.265 650.074V653.172C322.646 654.035 323.319 654.467 324.284 654.467C324.91 654.467 325.399 654.219 325.75 653.724C326.105 653.229 326.283 652.488 326.283 651.502ZM330.828 653.908L332.834 648.132H333.653L330.72 656.168L330.568 656.523C330.191 657.357 329.609 657.774 328.822 657.774C328.64 657.774 328.446 657.744 328.238 657.685L328.232 657.057L328.625 657.095C328.998 657.095 329.298 657.002 329.527 656.815C329.76 656.633 329.956 656.318 330.117 655.87L330.454 654.943L327.864 648.132H328.695L330.828 653.908ZM339.562 649.966H340.35C340.785 649.966 341.166 649.89 341.492 649.738C341.818 649.581 342.066 649.37 342.235 649.103C342.408 648.832 342.495 648.521 342.495 648.17C342.495 647.577 342.328 647.114 341.994 646.78C341.659 646.445 341.179 646.278 340.553 646.278C339.96 646.278 339.474 646.454 339.093 646.805C338.716 647.152 338.528 647.611 338.528 648.183H337.766C337.766 647.704 337.887 647.269 338.128 646.875C338.369 646.477 338.703 646.17 339.131 645.955C339.558 645.739 340.032 645.631 340.553 645.631C341.391 645.631 342.051 645.859 342.533 646.316C343.016 646.773 343.257 647.4 343.257 648.195C343.257 648.64 343.115 649.05 342.832 649.427C342.552 649.799 342.167 650.078 341.676 650.265C342.252 650.425 342.688 650.703 342.984 651.096C343.28 651.486 343.428 651.951 343.428 652.493C343.428 653.284 343.17 653.921 342.654 654.403C342.138 654.886 341.448 655.127 340.584 655.127C340.034 655.127 339.529 655.017 339.067 654.797C338.61 654.577 338.255 654.27 338.001 653.876C337.751 653.479 337.626 653.017 337.626 652.493H338.388C338.388 653.081 338.593 653.561 339.004 653.934C339.414 654.302 339.941 654.486 340.584 654.486C341.24 654.486 341.75 654.319 342.114 653.984C342.482 653.646 342.667 653.157 342.667 652.518C342.667 651.9 342.468 651.428 342.07 651.103C341.676 650.777 341.094 650.614 340.324 650.614H339.562V649.966ZM349.217 655H348.456V645.25H349.217V655ZM353.946 655.127C353.362 655.127 352.833 654.983 352.359 654.695C351.89 654.408 351.524 654.008 351.261 653.496C350.999 652.979 350.868 652.402 350.868 651.763V651.49C350.868 650.83 350.995 650.235 351.249 649.706C351.507 649.177 351.864 648.762 352.321 648.462C352.778 648.157 353.273 648.005 353.807 648.005C354.64 648.005 355.3 648.291 355.787 648.862C356.278 649.429 356.523 650.205 356.523 651.191V651.617H351.623V651.763C351.623 652.541 351.845 653.191 352.29 653.711C352.738 654.228 353.301 654.486 353.978 654.486C354.384 654.486 354.742 654.412 355.051 654.264C355.364 654.116 355.647 653.879 355.901 653.553L356.377 653.915C355.819 654.723 355.008 655.127 353.946 655.127ZM353.807 648.652C353.235 648.652 352.753 648.862 352.359 649.281C351.97 649.7 351.733 650.263 351.648 650.969H355.768V650.887C355.747 650.227 355.559 649.689 355.203 649.274C354.848 648.86 354.382 648.652 353.807 648.652ZM360.053 653.953L362.141 648.132H362.922L360.357 655H359.742L357.165 648.132H357.945L360.053 653.953ZM366.743 655.127C366.159 655.127 365.63 654.983 365.156 654.695C364.687 654.408 364.32 654.008 364.058 653.496C363.796 652.979 363.665 652.402 363.665 651.763V651.49C363.665 650.83 363.792 650.235 364.045 649.706C364.304 649.177 364.661 648.762 365.118 648.462C365.575 648.157 366.07 648.005 366.604 648.005C367.437 648.005 368.097 648.291 368.584 648.862C369.075 649.429 369.32 650.205 369.32 651.191V651.617H364.42V651.763C364.42 652.541 364.642 653.191 365.086 653.711C365.535 654.228 366.098 654.486 366.775 654.486C367.181 654.486 367.539 654.412 367.848 654.264C368.161 654.116 368.444 653.879 368.698 653.553L369.174 653.915C368.616 654.723 367.805 655.127 366.743 655.127ZM366.604 648.652C366.032 648.652 365.55 648.862 365.156 649.281C364.767 649.7 364.53 650.263 364.445 650.969H368.565V650.887C368.544 650.227 368.355 649.689 368 649.274C367.645 648.86 367.179 648.652 366.604 648.652ZM371.65 655H370.888V645.25H371.65V655ZM377.833 653.254C377.833 652.878 377.68 652.575 377.375 652.347C377.075 652.118 376.62 651.94 376.011 651.813C375.401 651.682 374.927 651.534 374.589 651.369C374.255 651.2 374.005 650.995 373.84 650.753C373.679 650.512 373.599 650.22 373.599 649.877C373.599 649.336 373.825 648.889 374.278 648.538C374.731 648.183 375.31 648.005 376.017 648.005C376.783 648.005 377.397 648.195 377.858 648.576C378.323 648.953 378.556 649.446 378.556 650.055H377.794C377.794 649.653 377.625 649.319 377.287 649.052C376.952 648.786 376.529 648.652 376.017 648.652C375.518 648.652 375.116 648.764 374.811 648.989C374.511 649.209 374.36 649.497 374.36 649.852C374.36 650.195 374.485 650.461 374.735 650.652C374.989 650.838 375.448 651.009 376.112 651.166C376.781 651.323 377.28 651.49 377.61 651.667C377.945 651.845 378.192 652.059 378.353 652.309C378.514 652.558 378.594 652.861 378.594 653.216C378.594 653.796 378.359 654.259 377.89 654.606C377.424 654.953 376.815 655.127 376.062 655.127C375.262 655.127 374.612 654.934 374.113 654.549C373.618 654.16 373.37 653.669 373.37 653.077H374.132C374.161 653.521 374.348 653.868 374.69 654.118C375.037 654.363 375.494 654.486 376.062 654.486C376.59 654.486 377.018 654.369 377.344 654.137C377.67 653.904 377.833 653.61 377.833 653.254ZM77.9629 666.636C77.9629 667.706 77.7259 668.557 77.252 669.188C76.778 669.814 76.1411 670.127 75.3413 670.127C74.3849 670.127 73.6613 669.771 73.1704 669.061L73.1387 670H72.4277V660.25H73.1831V664.128C73.6655 663.379 74.3807 663.005 75.3286 663.005C76.1411 663.005 76.7822 663.316 77.252 663.938C77.7259 664.556 77.9629 665.417 77.9629 666.521V666.636ZM77.2012 666.502C77.2012 665.597 77.0256 664.899 76.6743 664.408C76.3231 663.913 75.828 663.665 75.189 663.665C74.7023 663.665 74.2897 663.786 73.9512 664.027C73.6126 664.264 73.3566 664.613 73.1831 665.074V668.172C73.564 669.035 74.2368 669.467 75.2017 669.467C75.828 669.467 76.3167 669.219 76.668 668.724C77.0234 668.229 77.2012 667.488 77.2012 666.502ZM82.3047 670.127C81.7207 670.127 81.1917 669.983 80.7178 669.695C80.248 669.408 79.882 669.008 79.6196 668.496C79.3573 667.979 79.2261 667.402 79.2261 666.763V666.49C79.2261 665.83 79.353 665.235 79.6069 664.706C79.8651 664.177 80.2227 663.762 80.6797 663.462C81.1367 663.157 81.6318 663.005 82.165 663.005C82.9987 663.005 83.6589 663.291 84.1455 663.862C84.6364 664.429 84.8818 665.205 84.8818 666.191V666.617H79.9814V666.763C79.9814 667.541 80.2036 668.191 80.6479 668.711C81.0965 669.228 81.6593 669.486 82.3364 669.486C82.7427 669.486 83.1003 669.412 83.4092 669.264C83.7223 669.116 84.0059 668.879 84.2598 668.553L84.7358 668.915C84.1772 669.723 83.3669 670.127 82.3047 670.127ZM82.165 663.652C81.5938 663.652 81.1113 663.862 80.7178 664.281C80.3285 664.7 80.0915 665.263 80.0068 665.969H84.1265V665.887C84.1053 665.227 83.917 664.689 83.5615 664.274C83.2061 663.86 82.7406 663.652 82.165 663.652ZM87.2114 670H86.4497V660.25H87.2114V670ZM88.8618 666.464C88.8618 665.804 88.9888 665.21 89.2427 664.681C89.5008 664.152 89.8626 663.741 90.3281 663.449C90.7979 663.153 91.3289 663.005 91.9214 663.005C92.8354 663.005 93.576 663.326 94.1431 663.97C94.7101 664.609 94.9937 665.457 94.9937 666.515V666.674C94.9937 667.338 94.8646 667.937 94.6064 668.47C94.3525 668.999 93.9928 669.408 93.5273 669.695C93.0618 669.983 92.5308 670.127 91.9341 670.127C91.0243 670.127 90.2837 669.807 89.7124 669.168C89.1453 668.525 88.8618 667.675 88.8618 666.617V666.464ZM89.6235 666.674C89.6235 667.495 89.8351 668.17 90.2583 668.699C90.6857 669.223 91.2443 669.486 91.9341 669.486C92.6196 669.486 93.174 669.223 93.5972 668.699C94.0246 668.17 94.2383 667.474 94.2383 666.61V666.464C94.2383 665.94 94.141 665.459 93.9463 665.023C93.7516 664.588 93.4787 664.251 93.1274 664.014C92.7762 663.773 92.3742 663.652 91.9214 663.652C91.2443 663.652 90.6921 663.919 90.2646 664.452C89.8372 664.981 89.6235 665.675 89.6235 666.534V666.674ZM98.2119 668.419L98.3262 669.01L98.4785 668.388L100.129 663.132H100.776L102.408 668.343L102.585 669.067L102.731 668.4L104.141 663.132H104.928L102.928 670H102.281L100.516 664.554L100.434 664.179L100.351 664.56L98.6182 670H97.9707L95.9775 663.132H96.7583L98.2119 668.419ZM110.285 664.293C110.535 663.883 110.854 663.566 111.244 663.341C111.633 663.117 112.058 663.005 112.52 663.005C113.256 663.005 113.804 663.212 114.164 663.627C114.523 664.042 114.705 664.664 114.709 665.493V670H113.954V665.487C113.95 664.873 113.819 664.416 113.561 664.116C113.307 663.815 112.898 663.665 112.335 663.665C111.866 663.665 111.449 663.813 111.085 664.109C110.725 664.401 110.459 664.797 110.285 665.296V670H109.53V660.25H110.285V664.293ZM117.515 670H116.753V663.132H117.515V670ZM116.62 661.145C116.62 661.001 116.667 660.881 116.76 660.783C116.853 660.682 116.98 660.631 117.141 660.631C117.301 660.631 117.428 660.682 117.521 660.783C117.619 660.881 117.667 661.001 117.667 661.145C117.667 661.289 117.619 661.41 117.521 661.507C117.428 661.604 117.301 661.653 117.141 661.653C116.98 661.653 116.853 661.604 116.76 661.507C116.667 661.41 116.62 661.289 116.62 661.145ZM120.276 663.132L120.302 664.249C120.556 663.834 120.873 663.523 121.254 663.316C121.635 663.109 122.058 663.005 122.523 663.005C123.607 663.005 124.294 663.449 124.586 664.338C124.832 663.91 125.16 663.583 125.57 663.354C125.981 663.121 126.434 663.005 126.929 663.005C128.401 663.005 129.153 663.809 129.182 665.417V670H128.42V665.474C128.416 664.861 128.283 664.406 128.021 664.109C127.762 663.813 127.339 663.665 126.751 663.665C126.205 663.674 125.744 663.851 125.367 664.198C124.991 664.541 124.781 664.96 124.739 665.455V670H123.977V665.417C123.973 664.829 123.833 664.391 123.558 664.103C123.287 663.811 122.868 663.665 122.301 663.665C121.823 663.665 121.413 663.803 121.07 664.078C120.727 664.348 120.473 664.753 120.308 665.29V670H119.546V663.132H120.276ZM186.812 666.636C186.812 667.706 186.576 668.557 186.102 669.188C185.628 669.814 184.991 670.127 184.191 670.127C183.235 670.127 182.511 669.771 182.02 669.061L181.988 670H181.277V660.25H182.033V664.128C182.515 663.379 183.23 663.005 184.178 663.005C184.991 663.005 185.632 663.316 186.102 663.938C186.576 664.556 186.812 665.417 186.812 666.521V666.636ZM186.051 666.502C186.051 665.597 185.875 664.899 185.524 664.408C185.173 663.913 184.678 663.665 184.039 663.665C183.552 663.665 183.139 663.786 182.801 664.027C182.462 664.264 182.206 664.613 182.033 665.074V668.172C182.414 669.035 183.086 669.467 184.051 669.467C184.678 669.467 185.166 669.219 185.518 668.724C185.873 668.229 186.051 667.488 186.051 666.502ZM190.596 668.908L192.602 663.132H193.42L190.488 671.168L190.335 671.523C189.959 672.357 189.377 672.774 188.59 672.774C188.408 672.774 188.213 672.744 188.006 672.685L188 672.057L188.393 672.095C188.765 672.095 189.066 672.002 189.294 671.815C189.527 671.633 189.724 671.318 189.885 670.87L190.221 669.943L187.631 663.132H188.463L190.596 668.908ZM198.613 670H197.851V660.25H198.613V670ZM203.342 670.127C202.758 670.127 202.229 669.983 201.755 669.695C201.285 669.408 200.919 669.008 200.657 668.496C200.394 667.979 200.263 667.402 200.263 666.763V666.49C200.263 665.83 200.39 665.235 200.644 664.706C200.902 664.177 201.26 663.762 201.717 663.462C202.174 663.157 202.669 663.005 203.202 663.005C204.036 663.005 204.696 663.291 205.183 663.862C205.674 664.429 205.919 665.205 205.919 666.191V666.617H201.019V666.763C201.019 667.541 201.241 668.191 201.685 668.711C202.134 669.228 202.696 669.486 203.374 669.486C203.78 669.486 204.137 669.412 204.446 669.264C204.759 669.116 205.043 668.879 205.297 668.553L205.773 668.915C205.214 669.723 204.404 670.127 203.342 670.127ZM203.202 663.652C202.631 663.652 202.148 663.862 201.755 664.281C201.366 664.7 201.129 665.263 201.044 665.969H205.164V665.887C205.142 665.227 204.954 664.689 204.599 664.274C204.243 663.86 203.778 663.652 203.202 663.652ZM209.448 668.953L211.537 663.132H212.317L209.753 670H209.137L206.56 663.132H207.341L209.448 668.953ZM216.139 670.127C215.555 670.127 215.026 669.983 214.552 669.695C214.082 669.408 213.716 669.008 213.454 668.496C213.191 667.979 213.06 667.402 213.06 666.763V666.49C213.06 665.83 213.187 665.235 213.441 664.706C213.699 664.177 214.057 663.762 214.514 663.462C214.971 663.157 215.466 663.005 215.999 663.005C216.833 663.005 217.493 663.291 217.979 663.862C218.47 664.429 218.716 665.205 218.716 666.191V666.617H213.815V666.763C213.815 667.541 214.038 668.191 214.482 668.711C214.931 669.228 215.493 669.486 216.17 669.486C216.577 669.486 216.934 669.412 217.243 669.264C217.556 669.116 217.84 668.879 218.094 668.553L218.57 668.915C218.011 669.723 217.201 670.127 216.139 670.127ZM215.999 663.652C215.428 663.652 214.945 663.862 214.552 664.281C214.162 664.7 213.925 665.263 213.841 665.969H217.96V665.887C217.939 665.227 217.751 664.689 217.396 664.274C217.04 663.86 216.575 663.652 215.999 663.652ZM221.045 670H220.284V660.25H221.045V670ZM231.944 670H226.155V669.416L229.323 665.823C229.847 665.218 230.211 664.719 230.415 664.325C230.618 663.932 230.719 663.549 230.719 663.176C230.719 662.592 230.548 662.131 230.205 661.792C229.862 661.45 229.39 661.278 228.79 661.278C228.167 661.278 227.664 661.477 227.279 661.875C226.898 662.273 226.708 662.789 226.708 663.424H225.952C225.952 662.903 226.069 662.429 226.301 662.002C226.538 661.575 226.873 661.24 227.304 660.999C227.74 660.754 228.235 660.631 228.79 660.631C229.636 660.631 230.296 660.853 230.77 661.297C231.248 661.742 231.487 662.347 231.487 663.113C231.487 663.544 231.352 664.016 231.081 664.528C230.814 665.04 230.343 665.679 229.666 666.445L227.088 669.359H231.944V670ZM240.983 670C240.907 669.784 240.859 669.465 240.837 669.042C240.571 669.389 240.23 669.657 239.815 669.848C239.405 670.034 238.969 670.127 238.508 670.127C237.848 670.127 237.312 669.943 236.902 669.575C236.496 669.207 236.292 668.741 236.292 668.178C236.292 667.51 236.57 666.981 237.124 666.591C237.683 666.202 238.459 666.007 239.454 666.007H240.831V665.227C240.831 664.736 240.679 664.351 240.374 664.071C240.074 663.788 239.633 663.646 239.054 663.646C238.525 663.646 238.087 663.781 237.74 664.052C237.393 664.323 237.219 664.649 237.219 665.03L236.458 665.023C236.458 664.478 236.711 664.006 237.219 663.608C237.727 663.206 238.351 663.005 239.092 663.005C239.858 663.005 240.461 663.197 240.901 663.583C241.345 663.963 241.574 664.497 241.586 665.182V668.432C241.586 669.097 241.656 669.594 241.796 669.924V670H240.983ZM238.597 669.454C239.104 669.454 239.557 669.331 239.955 669.086C240.357 668.84 240.649 668.513 240.831 668.102V666.591H239.473C238.715 666.6 238.123 666.739 237.695 667.01C237.268 667.277 237.054 667.645 237.054 668.115C237.054 668.5 237.196 668.819 237.479 669.073C237.767 669.327 238.14 669.454 238.597 669.454ZM244.341 663.132L244.367 664.306C244.625 663.883 244.946 663.561 245.332 663.341C245.717 663.117 246.142 663.005 246.607 663.005C247.344 663.005 247.892 663.212 248.251 663.627C248.611 664.042 248.793 664.664 248.797 665.493V670H248.042V665.487C248.038 664.873 247.907 664.416 247.648 664.116C247.395 663.815 246.986 663.665 246.423 663.665C245.954 663.665 245.537 663.813 245.173 664.109C244.813 664.401 244.547 664.797 244.373 665.296V670H243.618V663.132H244.341ZM250.46 666.502C250.46 665.436 250.697 664.588 251.171 663.957C251.65 663.322 252.297 663.005 253.114 663.005C254.041 663.005 254.747 663.371 255.234 664.103V660.25H255.989V670H255.278L255.247 669.086C254.76 669.78 254.045 670.127 253.101 670.127C252.31 670.127 251.671 669.81 251.184 669.175C250.702 668.536 250.46 667.675 250.46 666.591V666.502ZM251.229 666.636C251.229 667.512 251.404 668.204 251.755 668.711C252.107 669.215 252.602 669.467 253.241 669.467C254.176 669.467 254.84 669.054 255.234 668.229V665.004C254.84 664.111 254.18 663.665 253.253 663.665C252.614 663.665 252.117 663.917 251.762 664.42C251.406 664.92 251.229 665.658 251.229 666.636ZM293.872 666.636C293.872 667.706 293.635 668.557 293.161 669.188C292.687 669.814 292.05 670.127 291.25 670.127C290.294 670.127 289.57 669.771 289.08 669.061L289.048 670H288.337V660.25H289.092V664.128C289.575 663.379 290.29 663.005 291.238 663.005C292.05 663.005 292.691 663.316 293.161 663.938C293.635 664.556 293.872 665.417 293.872 666.521V666.636ZM293.11 666.502C293.11 665.597 292.935 664.899 292.583 664.408C292.232 663.913 291.737 663.665 291.098 663.665C290.611 663.665 290.199 663.786 289.86 664.027C289.522 664.264 289.266 664.613 289.092 665.074V668.172C289.473 669.035 290.146 669.467 291.111 669.467C291.737 669.467 292.226 669.219 292.577 668.724C292.933 668.229 293.11 667.488 293.11 666.502ZM297.655 668.908L299.661 663.132H300.48L297.547 671.168L297.395 671.523C297.018 672.357 296.437 672.774 295.649 672.774C295.467 672.774 295.273 672.744 295.065 672.685L295.059 672.057L295.453 672.095C295.825 672.095 296.125 672.002 296.354 671.815C296.587 671.633 296.784 671.318 296.944 670.87L297.281 669.943L294.691 663.132H295.522L297.655 668.908ZM305.672 670H304.911V660.25H305.672V670ZM310.401 670.127C309.817 670.127 309.288 669.983 308.814 669.695C308.345 669.408 307.979 669.008 307.716 668.496C307.454 667.979 307.323 667.402 307.323 666.763V666.49C307.323 665.83 307.45 665.235 307.704 664.706C307.962 664.177 308.319 663.762 308.776 663.462C309.233 663.157 309.729 663.005 310.262 663.005C311.095 663.005 311.756 663.291 312.242 663.862C312.733 664.429 312.979 665.205 312.979 666.191V666.617H308.078V666.763C308.078 667.541 308.3 668.191 308.745 668.711C309.193 669.228 309.756 669.486 310.433 669.486C310.839 669.486 311.197 669.412 311.506 669.264C311.819 669.116 312.103 668.879 312.356 668.553L312.833 668.915C312.274 669.723 311.464 670.127 310.401 670.127ZM310.262 663.652C309.69 663.652 309.208 663.862 308.814 664.281C308.425 664.7 308.188 665.263 308.104 665.969H312.223V665.887C312.202 665.227 312.014 664.689 311.658 664.274C311.303 663.86 310.837 663.652 310.262 663.652ZM316.508 668.953L318.596 663.132H319.377L316.812 670H316.197L313.62 663.132H314.4L316.508 668.953ZM323.198 670.127C322.614 670.127 322.085 669.983 321.611 669.695C321.142 669.408 320.776 669.008 320.513 668.496C320.251 667.979 320.12 667.402 320.12 666.763V666.49C320.12 665.83 320.247 665.235 320.5 664.706C320.759 664.177 321.116 663.762 321.573 663.462C322.03 663.157 322.525 663.005 323.059 663.005C323.892 663.005 324.552 663.291 325.039 663.862C325.53 664.429 325.775 665.205 325.775 666.191V666.617H320.875V666.763C320.875 667.541 321.097 668.191 321.542 668.711C321.99 669.228 322.553 669.486 323.23 669.486C323.636 669.486 323.994 669.412 324.303 669.264C324.616 669.116 324.899 668.879 325.153 668.553L325.629 668.915C325.071 669.723 324.26 670.127 323.198 670.127ZM323.059 663.652C322.487 663.652 322.005 663.862 321.611 664.281C321.222 664.7 320.985 665.263 320.9 665.969H325.02V665.887C324.999 665.227 324.811 664.689 324.455 664.274C324.1 663.86 323.634 663.652 323.059 663.652ZM328.105 670H327.343V660.25H328.105V670ZM336.75 670H335.989V661.672L333.475 662.605V661.894L336.624 660.726H336.75V670Z" fill="white"/>
<path d="M139.795 666.636C139.795 667.706 139.558 668.557 139.084 669.188C138.611 669.814 137.976 670.127 137.18 670.127C136.241 670.127 135.521 669.797 135.022 669.137V672.641H134.267V663.132H134.971L135.009 664.103C135.504 663.371 136.222 663.005 137.161 663.005C137.982 663.005 138.625 663.316 139.091 663.938C139.561 664.56 139.795 665.423 139.795 666.528V666.636ZM139.034 666.502C139.034 665.626 138.854 664.935 138.494 664.427C138.134 663.919 137.633 663.665 136.99 663.665C136.524 663.665 136.124 663.777 135.79 664.001C135.456 664.226 135.2 664.552 135.022 664.979V668.273C135.204 668.667 135.464 668.967 135.803 669.175C136.141 669.382 136.541 669.486 137.002 669.486C137.641 669.486 138.139 669.232 138.494 668.724C138.854 668.212 139.034 667.472 139.034 666.502ZM142.334 670H141.573V660.25H142.334V670ZM148.822 669.13C148.365 669.795 147.635 670.127 146.632 670.127C145.9 670.127 145.343 669.915 144.962 669.492C144.582 669.065 144.387 668.434 144.378 667.601V663.132H145.134V667.505C145.134 668.813 145.663 669.467 146.721 669.467C147.821 669.467 148.517 669.012 148.809 668.102V663.132H149.571V670H148.834L148.822 669.13ZM155.665 668.254C155.665 667.878 155.512 667.575 155.208 667.347C154.907 667.118 154.452 666.94 153.843 666.813C153.233 666.682 152.759 666.534 152.421 666.369C152.087 666.2 151.837 665.995 151.672 665.753C151.511 665.512 151.431 665.22 151.431 664.877C151.431 664.336 151.657 663.889 152.11 663.538C152.563 663.183 153.142 663.005 153.849 663.005C154.615 663.005 155.229 663.195 155.69 663.576C156.155 663.953 156.388 664.446 156.388 665.055H155.626C155.626 664.653 155.457 664.319 155.119 664.052C154.784 663.786 154.361 663.652 153.849 663.652C153.35 663.652 152.948 663.764 152.643 663.989C152.343 664.209 152.192 664.497 152.192 664.852C152.192 665.195 152.317 665.461 152.567 665.652C152.821 665.838 153.28 666.009 153.944 666.166C154.613 666.323 155.112 666.49 155.442 666.667C155.777 666.845 156.024 667.059 156.185 667.309C156.346 667.558 156.426 667.861 156.426 668.216C156.426 668.796 156.191 669.259 155.722 669.606C155.256 669.953 154.647 670.127 153.894 670.127C153.094 670.127 152.444 669.934 151.945 669.549C151.45 669.16 151.202 668.669 151.202 668.077H151.964C151.993 668.521 152.18 668.868 152.522 669.118C152.869 669.363 153.326 669.486 153.894 669.486C154.423 669.486 154.85 669.369 155.176 669.137C155.502 668.904 155.665 668.61 155.665 668.254Z" fill="#F7C978"/>
<path d="M161.695 665.265L162.146 660.758H166.767V661.462H162.799L162.476 664.585C162.971 664.247 163.55 664.078 164.215 664.078C165.049 664.078 165.713 664.348 166.208 664.89C166.703 665.432 166.951 666.153 166.951 667.055C166.951 668.028 166.709 668.783 166.227 669.321C165.745 669.858 165.065 670.127 164.189 670.127C163.385 670.127 162.734 669.903 162.234 669.454C161.735 669.006 161.449 668.377 161.377 667.569H162.107C162.179 668.199 162.393 668.678 162.749 669.003C163.104 669.325 163.584 669.486 164.189 669.486C164.85 669.486 165.347 669.276 165.681 668.857C166.02 668.438 166.189 667.842 166.189 667.067C166.189 666.39 166.001 665.838 165.624 665.411C165.247 664.983 164.733 664.77 164.082 664.77C163.722 664.77 163.409 664.816 163.142 664.909C162.875 664.998 162.594 665.174 162.298 665.436L161.695 665.265ZM168.214 662.535C168.214 661.985 168.383 661.53 168.722 661.17C169.064 660.806 169.498 660.625 170.023 660.625C170.548 660.625 170.979 660.806 171.318 661.17C171.661 661.53 171.832 661.998 171.832 662.573V663.024C171.832 663.566 171.663 664.018 171.324 664.382C170.99 664.742 170.56 664.922 170.036 664.922C169.515 664.922 169.081 664.744 168.734 664.389C168.387 664.033 168.214 663.563 168.214 662.979V662.535ZM168.83 663.024C168.83 663.417 168.938 663.741 169.153 663.995C169.373 664.249 169.667 664.376 170.036 664.376C170.395 664.376 170.681 664.249 170.893 663.995C171.108 663.737 171.216 663.405 171.216 662.999V662.535C171.216 662.142 171.106 661.818 170.886 661.564C170.666 661.306 170.378 661.177 170.023 661.177C169.672 661.177 169.384 661.304 169.16 661.558C168.94 661.812 168.83 662.15 168.83 662.573V663.024ZM172.867 667.734C172.867 667.184 173.036 666.729 173.375 666.369C173.717 666.009 174.149 665.83 174.669 665.83C175.19 665.83 175.622 666.009 175.964 666.369C176.311 666.725 176.485 667.194 176.485 667.778V668.229C176.485 668.779 176.313 669.234 175.971 669.594C175.632 669.953 175.203 670.133 174.682 670.133C174.162 670.133 173.728 669.956 173.381 669.6C173.038 669.24 172.867 668.773 172.867 668.197V667.734ZM173.476 668.229C173.476 668.627 173.584 668.953 173.8 669.207C174.02 669.46 174.314 669.587 174.682 669.587C175.046 669.587 175.334 669.46 175.545 669.207C175.761 668.948 175.869 668.612 175.869 668.197V667.734C175.869 667.328 175.759 667.002 175.539 666.756C175.323 666.507 175.033 666.382 174.669 666.382C174.314 666.382 174.026 666.507 173.806 666.756C173.586 667.006 173.476 667.34 173.476 667.759V668.229ZM170.277 669.232L169.801 668.927L174.314 661.704L174.79 662.008L170.277 669.232ZM264.565 670H263.803V661.672L261.29 662.605V661.894L264.438 660.726H264.565V670ZM273.813 666.147C273.813 667.45 273.574 668.441 273.096 669.118C272.618 669.791 271.913 670.127 270.982 670.127C270.068 670.127 269.368 669.797 268.881 669.137C268.395 668.472 268.145 667.507 268.132 666.242V664.585C268.132 663.286 268.374 662.302 268.856 661.634C269.338 660.965 270.043 660.631 270.97 660.631C271.884 660.631 272.582 660.955 273.064 661.602C273.547 662.245 273.797 663.195 273.813 664.452V666.147ZM273.052 664.49C273.052 663.432 272.878 662.632 272.531 662.091C272.188 661.549 271.668 661.278 270.97 661.278C270.284 661.278 269.768 661.543 269.421 662.072C269.074 662.601 268.896 663.382 268.888 664.414V666.229C268.888 667.283 269.065 668.089 269.421 668.648C269.781 669.207 270.301 669.486 270.982 669.486C271.66 669.486 272.172 669.213 272.519 668.667C272.87 668.121 273.048 667.321 273.052 666.268V664.49ZM275.273 662.535C275.273 661.985 275.443 661.53 275.781 661.17C276.124 660.806 276.558 660.625 277.083 660.625C277.607 660.625 278.039 660.806 278.377 661.17C278.72 661.53 278.892 661.998 278.892 662.573V663.024C278.892 663.566 278.722 664.018 278.384 664.382C278.049 664.742 277.62 664.922 277.095 664.922C276.575 664.922 276.141 664.744 275.794 664.389C275.447 664.033 275.273 663.563 275.273 662.979V662.535ZM275.889 663.024C275.889 663.417 275.997 663.741 276.213 663.995C276.433 664.249 276.727 664.376 277.095 664.376C277.455 664.376 277.741 664.249 277.952 663.995C278.168 663.737 278.276 663.405 278.276 662.999V662.535C278.276 662.142 278.166 661.818 277.946 661.564C277.726 661.306 277.438 661.177 277.083 661.177C276.731 661.177 276.444 661.304 276.219 661.558C275.999 661.812 275.889 662.15 275.889 662.573V663.024ZM279.926 667.734C279.926 667.184 280.096 666.729 280.434 666.369C280.777 666.009 281.208 665.83 281.729 665.83C282.25 665.83 282.681 666.009 283.024 666.369C283.371 666.725 283.544 667.194 283.544 667.778V668.229C283.544 668.779 283.373 669.234 283.03 669.594C282.692 669.953 282.262 670.133 281.742 670.133C281.221 670.133 280.787 669.956 280.44 669.6C280.098 669.24 279.926 668.773 279.926 668.197V667.734ZM280.536 668.229C280.536 668.627 280.644 668.953 280.859 669.207C281.079 669.46 281.374 669.587 281.742 669.587C282.106 669.587 282.393 669.46 282.605 669.207C282.821 668.948 282.929 668.612 282.929 668.197V667.734C282.929 667.328 282.819 667.002 282.599 666.756C282.383 666.507 282.093 666.382 281.729 666.382C281.374 666.382 281.086 666.507 280.866 666.756C280.646 667.006 280.536 667.34 280.536 667.759V668.229ZM277.336 669.232L276.86 668.927L281.374 661.704L281.85 662.008L277.336 669.232Z" fill="#2CB36A" fill-opacity="0.87"/>
</svg>
