<?xml version="1.0" encoding="utf-8"?>
<!-- Generator: Adobe Illustrator 24.1.3, SVG Export Plug-In . SVG Version: 6.00 Build 0)  -->
<svg version="1.1" id="Layer_1" xmlns="http://www.w3.org/2000/svg" xmlns:xlink="http://www.w3.org/1999/xlink" x="0px" y="0px"
	 viewBox="0 0 588 96" style="enable-background:new 0 0 588 96;" xml:space="preserve">
<style type="text/css">
	.st0{fill-rule:evenodd;clip-rule:evenodd;fill:url(#SVGID_1_);}
</style>
<linearGradient id="SVGID_1_" gradientUnits="userSpaceOnUse" x1="7.3411" y1="32.1839" x2="583.5012" y2="60.1514">
	<stop  offset="0" style="stop-color:#E86700"/>
	<stop  offset="1" style="stop-color:#9C00B1"/>
</linearGradient>
<path class="st0" d="M191.3,72.49c-3.07,0-5.94-0.53-8.59-1.58c-2.65-1.06-4.97-2.58-6.96-4.57c-1.99-1.99-3.54-4.42-4.66-7.28
	c-1.12-2.86-1.67-6.13-1.67-9.81c0-3.62,0.57-6.87,1.72-9.77s2.67-5.34,4.57-7.32c1.9-1.99,4.08-3.53,6.56-4.61
	c2.47-1.09,5-1.63,7.6-1.63c3.01,0,5.67,0.51,7.96,1.54c2.29,1.02,4.21,2.47,5.74,4.34c1.54,1.87,2.7,4.1,3.48,6.69
	c0.78,2.59,1.18,5.43,1.18,8.5c0,1.02-0.05,1.99-0.14,2.89c-0.09,0.9-0.2,1.63-0.32,2.17h-28.21c0.48,3.98,1.88,7.04,4.21,9.18
	c2.32,2.14,5.29,3.21,8.91,3.21c1.93,0,3.72-0.29,5.38-0.86s3.3-1.37,4.93-2.4l3.53,6.51c-2.11,1.39-4.46,2.53-7.05,3.44
	C196.85,72.03,194.13,72.49,191.3,72.49z M179.45,45h19.71c0-3.44-0.74-6.13-2.22-8.09s-3.75-2.94-6.83-2.94
	c-2.65,0-4.97,0.93-6.96,2.8C181.17,38.63,179.94,41.38,179.45,45z M280.19,72.49c-3.01,0-5.83-0.51-8.46-1.54
	c-2.62-1.02-4.9-2.53-6.83-4.52c-1.93-1.99-3.44-4.43-4.52-7.32c-1.09-2.89-1.63-6.18-1.63-9.86s0.6-6.96,1.81-9.86
	s2.83-5.34,4.88-7.32c2.05-1.99,4.42-3.51,7.1-4.57s5.5-1.58,8.46-1.58c2.89,0,5.38,0.48,7.46,1.45c2.08,0.96,3.93,2.14,5.56,3.53
	l-5.06,6.78c-1.21-1.02-2.4-1.82-3.57-2.4c-1.18-0.57-2.46-0.86-3.84-0.86c-3.62,0-6.54,1.34-8.77,4.02
	c-2.23,2.68-3.35,6.28-3.35,10.81c0,4.46,1.1,8.03,3.3,10.72c2.2,2.68,5.05,4.02,8.55,4.02c1.75,0,3.39-0.38,4.93-1.13
	c1.54-0.75,2.94-1.64,4.21-2.67l4.25,6.87c-2.11,1.81-4.42,3.17-6.92,4.07C285.24,72.03,282.73,72.49,280.19,72.49z M303.43,71.4
	V7.56h10.4v16.46l-0.36,8.59c1.87-1.75,3.93-3.3,6.19-4.66c2.26-1.36,4.93-2.03,8-2.03c4.76,0,8.23,1.52,10.4,4.57
	c2.17,3.04,3.26,7.4,3.26,13.07V71.4h-10.4V44.9c0-3.68-0.54-6.27-1.63-7.78c-1.09-1.51-2.86-2.26-5.34-2.26
	c-1.93,0-3.63,0.47-5.11,1.4s-3.15,2.31-5.02,4.11V71.4H303.43z M364.66,72.49c-3.92,0-7.08-1.19-9.5-3.57
	c-2.41-2.38-3.62-5.53-3.62-9.45c0-2.35,0.5-4.45,1.49-6.28c0.99-1.84,2.56-3.42,4.7-4.75c2.14-1.33,4.85-2.44,8.14-3.35
	c3.29-0.9,7.22-1.6,11.8-2.08c-0.06-1.15-0.23-2.25-0.5-3.3c-0.27-1.06-0.72-1.99-1.36-2.8c-0.63-0.81-1.46-1.45-2.49-1.9
	c-1.02-0.45-2.29-0.68-3.8-0.68c-2.17,0-4.3,0.42-6.38,1.27c-2.08,0.84-4.11,1.87-6.1,3.07l-3.8-6.96c2.47-1.57,5.24-2.92,8.32-4.07
	s6.39-1.72,9.95-1.72c5.55,0,9.69,1.64,12.43,4.93c2.74,3.29,4.11,8.03,4.11,14.24V71.4h-8.59l-0.72-4.88h-0.36
	c-1.99,1.69-4.11,3.1-6.38,4.25C369.77,71.91,367.31,72.49,364.66,72.49z M368,64.35c1.81,0,3.45-0.42,4.93-1.27
	c1.48-0.84,3.06-2.05,4.75-3.62v-9.95c-3.01,0.36-5.55,0.84-7.6,1.45s-3.71,1.28-4.97,2.03c-1.27,0.75-2.17,1.61-2.71,2.58
	c-0.54,0.96-0.81,1.99-0.81,3.07c0,1.99,0.6,3.44,1.81,4.34C364.6,63.9,366.13,64.35,368,64.35z M400.56,71.4V27h8.59l0.72,5.97
	h0.36c1.99-1.93,4.14-3.59,6.47-4.97c2.32-1.39,5.02-2.08,8.09-2.08c4.76,0,8.23,1.52,10.4,4.57c2.17,3.04,3.26,7.4,3.26,13.07V71.4
	h-10.4V44.9c0-3.68-0.54-6.27-1.63-7.78c-1.09-1.51-2.86-2.26-5.34-2.26c-1.93,0-3.63,0.47-5.11,1.4s-3.15,2.31-5.02,4.11V71.4
	H400.56z M466.66,91.02c-2.65,0-5.11-0.24-7.37-0.72c-2.26-0.48-4.21-1.21-5.83-2.17c-1.63-0.96-2.91-2.17-3.84-3.62
	c-0.93-1.45-1.4-3.13-1.4-5.06c0-1.87,0.54-3.6,1.63-5.2c1.09-1.6,2.65-3.03,4.7-4.3v-0.36c-1.15-0.72-2.1-1.69-2.85-2.89
	c-0.75-1.21-1.13-2.71-1.13-4.52c0-1.75,0.5-3.33,1.49-4.75c0.99-1.42,2.13-2.58,3.39-3.48v-0.36c-1.51-1.15-2.85-2.73-4.02-4.75
	c-1.18-2.02-1.76-4.36-1.76-7.01c0-2.53,0.48-4.79,1.45-6.78s2.25-3.66,3.84-5.02c1.6-1.36,3.45-2.38,5.56-3.07
	c2.11-0.69,4.34-1.04,6.69-1.04c1.21,0,2.37,0.11,3.48,0.32c1.12,0.21,2.13,0.47,3.03,0.77h15.92v7.69h-8.14
	c0.72,0.84,1.33,1.91,1.81,3.21c0.48,1.3,0.72,2.73,0.72,4.3c0,2.47-0.44,4.64-1.31,6.51c-0.87,1.87-2.06,3.44-3.57,4.7
	c-1.51,1.27-3.29,2.23-5.34,2.89c-2.05,0.66-4.25,0.99-6.6,0.99c-0.96,0-1.96-0.09-2.98-0.27c-1.02-0.18-2.05-0.48-3.07-0.9
	c-0.66,0.6-1.19,1.21-1.58,1.81c-0.39,0.6-0.59,1.42-0.59,2.44c0,1.27,0.53,2.26,1.58,2.98c1.06,0.72,2.94,1.09,5.65,1.09h7.87
	c5.37,0,9.42,0.86,12.16,2.58c2.74,1.72,4.11,4.51,4.11,8.36c0,2.17-0.56,4.22-1.67,6.15c-1.12,1.93-2.7,3.59-4.75,4.97
	s-4.54,2.49-7.46,3.3C473.55,90.62,470.28,91.02,466.66,91.02z M467.21,50.78c2.11,0,3.92-0.77,5.43-2.31
	c1.51-1.54,2.26-3.75,2.26-6.65c0-2.77-0.74-4.93-2.22-6.47c-1.48-1.54-3.3-2.31-5.47-2.31c-2.17,0-4.01,0.75-5.52,2.26
	c-1.51,1.51-2.26,3.68-2.26,6.51c0,2.89,0.75,5.11,2.26,6.65C463.2,50.01,465.03,50.78,467.21,50.78z M468.29,84.24
	c3.62,0,6.53-0.71,8.73-2.13c2.2-1.42,3.3-3.09,3.3-5.02c0-1.75-0.68-2.92-2.03-3.53c-1.36-0.6-3.3-0.9-5.83-0.9h-6.06
	c-2.41,0-4.43-0.21-6.06-0.63c-2.29,1.75-3.44,3.71-3.44,5.88c0,1.99,1.01,3.54,3.03,4.66C461.95,83.68,464.73,84.24,468.29,84.24z
	 M498.22,71.4V27h10.4v44.4H498.22z M503.47,19.22c-1.87,0-3.41-0.54-4.61-1.63c-1.21-1.09-1.81-2.5-1.81-4.25s0.6-3.18,1.81-4.3
	c1.21-1.12,2.74-1.67,4.61-1.67s3.41,0.56,4.61,1.67c1.21,1.12,1.81,2.55,1.81,4.3s-0.6,3.17-1.81,4.25
	C506.87,18.68,505.34,19.22,503.47,19.22z M532.04,72.49c-3.74,0-6.36-1.12-7.87-3.35s-2.26-5.28-2.26-9.13V7.56h10.4v52.99
	c0,1.27,0.24,2.16,0.72,2.67s0.99,0.77,1.54,0.77h0.68c0.21,0,0.53-0.06,0.95-0.18l1.36,7.78
	C536.17,72.18,534.34,72.49,532.04,72.49z M549.41,89.67c-1.21,0-2.26-0.08-3.17-0.23c-0.9-0.15-1.78-0.38-2.62-0.68l1.9-8.14
	c0.42,0.12,0.92,0.26,1.49,0.41c0.57,0.15,1.13,0.23,1.67,0.23c2.35,0,4.24-0.71,5.65-2.13s2.49-3.24,3.21-5.47l0.81-2.8L540.91,27
	h10.58l7.69,21.79c0.66,1.93,1.31,3.96,1.94,6.1c0.63,2.14,1.28,4.27,1.94,6.38h0.36c0.54-2.05,1.1-4.14,1.67-6.28
	c0.57-2.14,1.13-4.21,1.67-6.19L573.46,27h10.04l-16.1,46.39c-0.9,2.53-1.9,4.79-2.98,6.78s-2.34,3.69-3.75,5.11
	s-3.04,2.5-4.88,3.26C553.94,89.29,551.82,89.67,549.41,89.67z M80.37,27.87l-10.19,10.7L48.99,16.31h19.46h0.92L80.37,27.87z
	 M111.79,16.31h20.38l-31.4,32.97l31.4,32.97h-20.38l-31.4-32.97L111.79,16.31z M48.99,82.25L70.19,60l10.19,10.7L69.37,82.25h-0.92
	H48.99z M28.58,82.25H6.5v-15.1h36.46L28.58,82.25z M52.79,56.84H6.5v-15.1h46.29l7.19,7.55L52.79,56.84z M42.97,31.42H6.5v-15.1
	h22.08L42.97,31.42z M233.42,41.56l11.8-15.71h11.39l-17.49,23.28l31.95,42.49h-11.39l-26.26-34.91l-11.85,15.78h-11.39l17.54-23.35
	l-27.51-36.58h11.39L233.42,41.56z"/>
</svg>
